# Blender 4.3.2
# www.blender.org
mtllib Cone.mtl
o Cone
v -0.450000 -0.032891 0.450000
v 0.450000 -0.032891 0.450000
v -0.450000 -0.032891 -0.450000
v 0.450000 -0.032891 -0.450000
v -0.450000 0.041422 -0.450000
v -0.450000 0.041422 0.450000
v 0.450000 0.041422 0.450000
v 0.450000 0.041422 -0.450000
v -0.244115 0.025720 -0.244115
v -0.244115 0.025720 0.244115
v 0.244115 0.025720 0.244115
v 0.244115 0.025720 -0.244115
v -0.345230 0.025720 -0.000000
v 0.345230 0.025720 0.000000
v 0.000000 0.025720 0.345230
v 0.000000 0.025720 -0.345230
v 0.000000 0.025720 0.000000
v -0.056793 1.040923 -0.056793
v -0.056793 1.040923 0.056793
v 0.056793 1.040923 0.056793
v 0.056793 1.040923 -0.056793
v -0.080317 1.040923 -0.000000
v 0.080317 1.040923 0.000000
v 0.000000 1.040923 0.080317
v 0.000000 1.040923 -0.080317
v -0.049148 1.151706 -0.049148
v -0.049148 1.151706 0.049148
v 0.049148 1.151706 0.049148
v 0.049148 1.151706 -0.049148
v -0.069506 1.151706 -0.000000
v 0.069506 1.151706 0.000000
v 0.000000 1.151706 0.069506
v 0.000000 1.151706 -0.069506
v 0.000000 1.151706 0.000000
v -0.256926 0.364121 -0.000000
v -0.168621 0.702522 -0.000000
v -0.119233 0.702522 -0.119233
v -0.181674 0.364121 -0.181674
v 0.181674 0.364121 -0.181674
v 0.119233 0.702522 -0.119233
v 0.168622 0.702522 0.000000
v 0.256926 0.364121 0.000000
v -0.181674 0.364121 0.181674
v -0.119233 0.702522 0.119233
v 0.000000 0.364121 0.256926
v 0.000000 0.702522 0.168621
v 0.119233 0.702522 0.119233
v 0.181674 0.364121 0.181674
v 0.000000 0.702522 -0.168622
v 0.000000 0.364121 -0.256926
vn -0.0000 -1.0000 -0.0000
vn -0.0000 1.0000 -0.0000
vn -0.0000 -0.0000 -1.0000
vn -0.0000 -0.0000 1.0000
vn 1.0000 -0.0000 -0.0000
vn -1.0000 -0.0000 -0.0000
vn 0.3774 0.1655 -0.9111
vn 0.3811 0.0898 -0.9201
vn 0.3774 0.1655 0.9111
vn 0.3811 0.0898 0.9201
vn -0.3774 0.1655 -0.9111
vn -0.3811 0.0898 -0.9201
vn 0.9111 0.1655 0.3774
vn 0.9201 0.0898 0.3811
vn -0.8981 0.2344 -0.3720
vn -0.9111 0.1655 -0.3774
vn 0.8981 0.2344 -0.3720
vn 0.9111 0.1655 -0.3774
vn -0.8981 0.2344 0.3720
vn -0.9111 0.1655 0.3774
vn -0.3720 0.2344 0.8981
vn -0.3774 0.1655 0.9111
vn 0.8981 0.2344 0.3720
vn -0.3720 0.2344 -0.8981
vn 0.3720 0.2344 0.8981
vn 0.3720 0.2344 -0.8981
vn -0.9201 0.0898 -0.3811
vn 0.9201 0.0898 -0.3811
vn -0.9201 0.0898 0.3811
vn -0.3811 0.0898 0.9201
vt 0.261341 0.627688
vt 0.263086 0.627688
vt 0.261341 0.627832
vt 0.263086 0.627832
vt 0.262214 0.627832
vt 0.262721 0.627832
vt 0.262932 0.627832
vt 0.261706 0.627832
vt 0.261495 0.627832
vt 0.262332 0.629541
vt 0.262214 0.629541
vt 0.262214 0.629727
vt 0.262316 0.629727
vt 0.262095 0.629541
vt 0.262111 0.629727
vt 0.262381 0.629541
vt 0.262358 0.629727
vt 0.261965 0.628971
vt 0.261863 0.628971
vt 0.262046 0.629541
vt 0.262564 0.628971
vt 0.262462 0.628971
vt 0.262214 0.628971
vt 0.262069 0.629727
vt 0.262214 0.628402
vt 0.262592 0.628402
vt 0.254841 0.620554
vt 0.254463 0.620554
vt 0.254463 0.621124
vt 0.254711 0.621124
vt 0.261836 0.628402
vt 0.254085 0.620554
vt 0.254214 0.621124
vt 0.262748 0.628402
vt 0.254997 0.620554
vt 0.254813 0.621124
vt 0.261679 0.628402
vt 0.253928 0.620554
vt 0.254112 0.621124
s 1
usemtl Material
f 1/1/1 3/1/1 4/2/1 2/2/1
f 6/3/2 7/4/2 8/4/2 5/3/2
f 4/2/3 3/1/3 5/3/3 8/4/3
f 1/1/4 2/2/4 7/4/4 6/3/4
f 2/2/5 4/2/5 8/4/5 7/4/5
f 3/1/6 1/1/6 6/3/6 5/3/6
f 17/5/1 16/5/1 12/6/1 14/7/1
f 15/5/1 17/5/1 14/7/1 11/6/1
f 10/8/1 13/9/1 17/5/1 15/5/1
f 13/9/1 9/8/1 16/5/1 17/5/1
f 21/10/7 25/11/7 33/12/8 29/13/8
f 24/11/9 20/10/9 28/13/10 32/12/10
f 25/11/11 18/14/11 26/15/12 33/12/12
f 20/10/13 23/16/13 31/17/14 28/13/14
f 37/18/15 36/19/15 22/20/16 18/14/16
f 41/21/17 40/22/17 21/10/18 23/16/18
f 36/19/19 44/18/19 19/14/20 22/20/20
f 44/18/21 46/23/21 24/11/22 19/14/22
f 47/22/23 41/21/23 23/16/13 20/10/13
f 49/23/24 37/18/24 18/14/11 25/11/11
f 46/23/25 47/22/25 20/10/9 24/11/9
f 40/22/26 49/23/26 25/11/7 21/10/7
f 34/12/2 31/17/2 29/13/2 33/12/2
f 32/12/2 28/13/2 31/17/2 34/12/2
f 27/15/2 32/12/2 34/12/2 30/24/2
f 30/24/2 34/12/2 33/12/2 26/15/2
f 18/14/16 22/20/16 30/24/27 26/15/27
f 23/16/18 21/10/18 29/13/28 31/17/28
f 22/20/20 19/14/20 27/15/29 30/24/29
f 19/14/22 24/11/22 32/12/30 27/15/30
f 12/6/26 16/5/26 50/25/26 39/26/26
f 39/27/26 50/28/26 49/29/26 40/30/26
f 15/5/25 11/6/25 48/26/25 45/25/25
f 45/28/25 48/27/25 47/30/25 46/29/25
f 16/5/24 9/8/24 38/31/24 50/25/24
f 50/28/24 38/32/24 37/33/24 49/29/24
f 11/6/23 14/7/23 42/34/23 48/26/23
f 48/27/23 42/35/23 41/36/23 47/30/23
f 10/8/21 15/5/21 45/25/21 43/31/21
f 43/32/21 45/28/21 46/29/21 44/33/21
f 13/9/19 10/8/19 43/31/19 35/37/19
f 35/38/19 43/32/19 44/33/19 36/39/19
f 14/7/17 12/6/17 39/26/17 42/34/17
f 42/35/17 39/27/17 40/30/17 41/36/17
f 9/8/15 13/9/15 35/37/15 38/31/15
f 38/32/15 35/38/15 36/39/15 37/33/15
