# Blender 4.3.2
# www.blender.org
mtllib Metal Barrel.mtl
o Metal_Barrel
v 0.664464 1.739425 -0.653233
v -0.664464 1.739425 0.653233
v -0.939694 1.739425 -0.000000
v 0.939694 1.739425 0.000000
v 0.664464 1.739425 0.653233
v -0.000000 1.739425 0.923811
v -0.000000 0.649918 0.950244
v 0.683476 0.649918 0.671924
v 0.966581 0.649918 0.000000
v -0.966581 0.649918 -0.000000
v -0.683476 0.649918 -0.671924
v 0.000000 0.649918 -0.950244
v 0.683476 0.649918 -0.671924
v -0.683476 0.649918 0.671924
v -0.000000 0.722552 0.895443
v 0.644060 0.722552 0.633174
v 0.910838 0.722552 0.000000
v -0.910838 0.722552 -0.000000
v -0.644060 0.722552 0.633174
v 0.644060 0.722552 -0.633174
v 0.000000 0.722552 -0.895443
v -0.644060 0.722552 -0.633174
v -0.644060 1.658721 -0.633174
v -0.000000 1.658721 0.895443
v 0.000000 1.658721 -0.895443
v 0.644060 1.658721 0.633174
v 0.910838 1.658721 0.000000
v 0.644060 1.658721 -0.633174
v -0.910838 1.658721 -0.000000
v -0.644060 1.658721 0.633174
v -0.644060 1.820130 0.633174
v -0.644060 0.577284 0.633174
v -0.910838 0.577284 -0.000000
v -0.910838 1.820130 -0.000000
v 0.644060 1.820130 -0.633174
v 0.644060 0.577284 -0.633174
v 0.910838 0.577284 0.000000
v 0.910838 1.820130 0.000000
v 0.644060 0.577284 0.633174
v 0.644060 1.820130 0.633174
v 0.000000 1.820130 -0.895443
v 0.000000 0.577284 -0.895443
v -0.000000 0.577284 0.895443
v -0.000000 1.820130 0.895443
v -0.644060 1.820130 -0.633174
v -0.644060 0.577284 -0.633174
v -0.619069 2.453080 0.608606
v 0.619069 2.453080 0.608606
v -0.619069 2.453080 -0.608606
v 0.619069 2.453080 -0.608606
v 0.875496 2.453080 0.000000
v -0.875496 2.453080 -0.000000
v 0.000000 2.453080 0.000000
v 0.000000 2.453080 -0.860698
v -0.000000 2.453080 0.860698
v -0.000000 0.001027 0.894893
v 0.000000 0.001027 -0.894893
v 0.000000 0.001027 0.000000
v -0.910279 0.001027 -0.000000
v 0.910279 0.001027 0.000000
v 0.643665 0.001027 -0.632785
v -0.643665 0.001027 -0.632785
v 0.643665 0.001027 0.632785
v -0.643665 0.001027 0.632785
v 0.000000 1.739425 -0.923811
v -0.664464 1.739425 -0.653233
v -0.880934 2.251038 -0.000000
v 0.880934 2.251038 0.000000
v 0.622914 2.251038 0.612385
v -0.000000 2.251038 0.866044
v -0.622914 2.251038 -0.612385
v 0.000000 2.251038 -0.866044
v 0.622914 2.251038 -0.612385
v -0.622914 2.251038 0.612385
v -0.641192 2.352059 -0.630354
v 0.000000 2.352059 -0.891455
v 0.641192 2.352059 -0.630354
v -0.641192 2.352059 0.630354
v -0.906782 2.352059 -0.000000
v 0.906782 2.352059 0.000000
v 0.641192 2.352059 0.630354
v -0.000000 2.352059 0.891455
vn -0.3771 -0.0000 0.9262
vn -0.8753 0.3129 -0.3688
vn -0.9215 -0.0009 -0.3883
vn -0.3586 0.3096 -0.8807
vn -0.3771 -0.0009 -0.9262
vn 0.3586 0.3096 0.8807
vn 0.3771 -0.0009 0.9262
vn 0.3586 0.3096 -0.8807
vn 0.3771 -0.0009 -0.9262
vn 0.8753 0.3129 0.3688
vn 0.9215 -0.0009 0.3883
vn 0.8753 0.3129 -0.3688
vn 0.9215 -0.0009 -0.3883
vn -0.8753 0.3129 0.3688
vn -0.9215 -0.0009 0.3883
vn -0.3630 0.2714 0.8914
vn -0.8862 0.2744 -0.3734
vn -0.3630 0.2714 -0.8914
vn 0.3630 0.2714 0.8914
vn 0.3630 0.2714 -0.8914
vn 0.8862 0.2744 0.3734
vn 0.8862 0.2744 -0.3734
vn -0.8862 0.2744 0.3734
vn -0.0000 1.0000 -0.0000
vn -0.0000 -1.0000 -0.0000
vn -0.3771 -0.0009 0.9262
vn -0.3586 0.3096 0.8807
vn -0.9215 -0.0000 0.3883
vn 0.9215 -0.0000 -0.3883
vn 0.9215 -0.0000 0.3883
vn 0.3771 -0.0000 -0.9262
vn 0.3771 -0.0000 0.9262
vn -0.3771 -0.0000 -0.9262
vn -0.9215 -0.0000 -0.3883
vn -0.7524 0.5774 -0.3170
vn -0.3091 0.5728 -0.7592
vn 0.3091 0.5728 0.7592
vn 0.3091 0.5728 -0.7592
vn 0.7524 0.5774 0.3170
vn 0.7524 0.5774 -0.3170
vn -0.7524 0.5774 0.3170
vn -0.3091 0.5728 0.7592
vn -0.3091 -0.5728 0.7592
vn -0.7524 -0.5774 0.3170
vn 0.7524 -0.5774 -0.3170
vn 0.7524 -0.5774 0.3170
vn 0.3091 -0.5728 -0.7592
vn 0.3091 -0.5728 0.7592
vn -0.3091 -0.5728 -0.7592
vn -0.7524 -0.5774 -0.3170
vn -0.3586 -0.3096 0.8807
vn -0.8753 -0.3129 0.3688
vn 0.8753 -0.3129 -0.3688
vn 0.8753 -0.3129 0.3688
vn 0.3586 -0.3096 -0.8807
vn 0.3586 -0.3096 0.8807
vn -0.3586 -0.3096 -0.8807
vn -0.8753 -0.3129 -0.3688
vn -0.9197 0.0638 0.3875
vn 0.9197 0.0638 -0.3875
vn 0.9197 0.0638 0.3875
vn 0.3764 0.0631 -0.9243
vn 0.3764 0.0631 0.9243
vn -0.3764 0.0631 -0.9243
vn -0.9197 0.0638 -0.3875
vn -0.3764 0.0631 0.9243
vn -0.8969 -0.2295 0.3779
vn 0.8969 -0.2295 -0.3779
vn 0.8969 -0.2295 0.3779
vn 0.3673 -0.2269 -0.9020
vn 0.3673 -0.2269 0.9020
vn -0.3673 -0.2269 -0.9020
vn -0.8969 -0.2295 -0.3779
vn -0.3673 -0.2269 0.9020
vt 0.401655 0.086776
vt 0.402717 0.086776
vt 0.402717 0.088321
vt 0.401655 0.088321
vt 0.401621 0.088454
vt 0.401167 0.088454
vt 0.401214 0.088587
vt 0.401655 0.088587
vt 0.401655 0.085585
vt 0.401215 0.085585
vt 0.401214 0.086536
vt 0.401655 0.086536
vt 0.402717 0.088454
vt 0.402717 0.088587
vt 0.402717 0.085585
vt 0.402717 0.086536
vt 0.403814 0.088454
vt 0.403780 0.088587
vt 0.403780 0.085585
vt 0.403780 0.086536
vt 0.404268 0.088454
vt 0.404221 0.088587
vt 0.404220 0.085585
vt 0.404221 0.086536
vt 0.261201 0.271199
vt 0.261907 0.271199
vt 0.261907 0.271310
vt 0.261225 0.271310
vt 0.260908 0.271199
vt 0.260943 0.271310
vt 0.262613 0.271199
vt 0.262589 0.271310
vt 0.262905 0.271199
vt 0.262871 0.271310
vt 0.401214 0.086776
vt 0.401214 0.088321
vt 0.404221 0.086776
vt 0.403780 0.086776
vt 0.403780 0.088321
vt 0.404221 0.088321
vt 0.403780 0.086776
vt 0.402717 0.086776
vt 0.401655 0.086776
vt 0.401590 0.086656
vt 0.401122 0.086656
vt 0.402717 0.086656
vt 0.403845 0.086656
vt 0.404312 0.086656
vt 0.401690 0.089298
vt 0.401264 0.089298
vt 0.403745 0.089298
vt 0.404171 0.089298
vt 0.402717 0.089298
vt 0.260937 0.271088
vt 0.261221 0.271088
vt 0.262877 0.271088
vt 0.262593 0.271088
vt 0.261907 0.271088
s 0
usemtl Material
f 19/1/1 15/2/1 24/3/1 30/4/1
f 66/5/2 3/6/2 34/7/2 45/8/2
f 62/9/3 59/10/3 33/11/3 46/12/3
f 65/13/4 66/5/4 45/8/4 41/14/4
f 57/15/5 62/9/5 46/12/5 42/16/5
f 6/13/6 5/17/6 40/18/6 44/14/6
f 56/15/7 63/19/7 39/20/7 43/16/7
f 1/17/8 65/13/8 41/14/8 35/18/8
f 61/19/9 57/15/9 42/16/9 36/20/9
f 5/17/10 4/21/10 38/22/10 40/18/10
f 63/19/11 60/23/11 37/24/11 39/20/11
f 4/21/12 1/17/12 35/18/12 38/22/12
f 60/23/13 61/19/13 36/20/13 37/24/13
f 3/6/14 2/5/14 31/8/14 34/7/14
f 59/10/15 64/9/15 32/12/15 33/11/15
f 78/25/16 82/26/16 55/27/16 47/28/16
f 75/25/17 79/29/17 52/30/17 49/28/17
f 76/26/18 75/25/18 49/28/18 54/27/18
f 82/26/19 81/31/19 48/32/19 55/27/19
f 77/31/20 76/26/20 54/27/20 50/32/20
f 81/31/21 80/33/21 51/34/21 48/32/21
f 80/33/22 77/31/22 50/32/22 51/34/22
f 79/29/23 78/25/23 47/28/23 52/30/23
f 53/27/24 51/34/24 50/32/24 54/27/24
f 55/27/24 48/32/24 51/34/24 53/27/24
f 52/30/24 53/27/24 54/27/24 49/28/24
f 47/28/24 55/27/24 53/27/24 52/30/24
f 64/9/25 59/10/25 58/15/25 56/15/25
f 59/10/25 62/9/25 57/15/25 58/15/25
f 56/15/25 58/15/25 60/23/25 63/19/25
f 64/9/26 56/15/26 43/16/26 32/12/26
f 58/15/25 57/15/25 61/19/25 60/23/25
f 2/5/27 6/13/27 44/14/27 31/8/27
f 18/35/28 19/1/28 30/4/28 29/36/28
f 17/37/29 20/38/29 28/39/29 27/40/29
f 16/41/30 17/37/30 27/40/30 26/39/30
f 20/38/31 21/42/31 25/3/31 28/39/31
f 15/2/32 16/41/32 26/39/32 24/3/32
f 21/42/33 22/43/33 23/4/33 25/3/33
f 22/43/34 18/35/34 29/36/34 23/4/34
f 11/44/35 10/45/35 18/35/35 22/43/35
f 12/46/36 11/44/36 22/43/36 21/42/36
f 7/46/37 8/47/37 16/41/37 15/2/37
f 13/47/38 12/46/38 21/42/38 20/38/38
f 8/47/39 9/48/39 17/37/39 16/41/39
f 9/48/40 13/47/40 20/38/40 17/37/40
f 10/45/41 14/44/41 19/1/41 18/35/41
f 14/44/42 7/46/42 15/2/42 19/1/42
f 32/12/43 43/16/43 7/46/43 14/44/43
f 33/11/44 32/12/44 14/44/44 10/45/44
f 37/24/45 36/20/45 13/47/45 9/48/45
f 39/20/46 37/24/46 9/48/46 8/47/46
f 36/20/47 42/16/47 12/46/47 13/47/47
f 43/16/48 39/20/48 8/47/48 7/46/48
f 42/16/49 46/12/49 11/44/49 12/46/49
f 46/12/50 33/11/50 10/45/50 11/44/50
f 30/4/51 24/3/51 6/13/51 2/5/51
f 29/36/52 30/4/52 2/5/52 3/6/52
f 27/40/53 28/39/53 1/17/53 4/21/53
f 26/39/54 27/40/54 4/21/54 5/17/54
f 28/39/55 25/3/55 65/13/55 1/17/55
f 24/3/56 26/39/56 5/17/56 6/13/56
f 25/3/57 23/4/57 66/5/57 65/13/57
f 23/4/58 29/36/58 3/6/58 66/5/58
f 34/7/59 31/8/59 74/49/59 67/50/59
f 38/22/60 35/18/60 73/51/60 68/52/60
f 40/18/61 38/22/61 68/52/61 69/51/61
f 35/18/62 41/14/62 72/53/62 73/51/62
f 44/14/63 40/18/63 69/51/63 70/53/63
f 41/14/64 45/8/64 71/49/64 72/53/64
f 45/8/65 34/7/65 67/50/65 71/49/65
f 31/8/66 44/14/66 70/53/66 74/49/66
f 67/54/67 74/55/67 78/25/67 79/29/67
f 68/56/68 73/57/68 77/31/68 80/33/68
f 69/57/69 68/56/69 80/33/69 81/31/69
f 73/57/70 72/58/70 76/26/70 77/31/70
f 70/58/71 69/57/71 81/31/71 82/26/71
f 72/58/72 71/55/72 75/25/72 76/26/72
f 71/55/73 67/54/73 79/29/73 75/25/73
f 74/55/74 70/58/74 82/26/74 78/25/74
