# Blender 4.3.2
# www.blender.org
mtllib Arch_Base.mtl
o Arch_Base
v 1.497838 1.046200 -2.949486
v 1.407781 0.556788 -2.949486
v 1.283127 0.556788 -2.949486
v 1.373185 1.046200 -2.949486
v 1.647934 1.046200 -2.949486
v 1.572886 0.556788 -2.949486
v 1.778442 1.046200 -2.949486
v 1.710899 0.556788 -2.949486
v 2.423852 1.046200 -2.949486
v 2.423852 0.556788 -2.949486
v 2.098220 1.046200 -2.949486
v 2.008163 0.556788 -2.949486
v 1.883509 0.556788 -2.949486
v 1.973566 1.046200 -2.949486
v 2.248316 1.046200 -2.949486
v 2.173268 0.556788 -2.949486
v 2.378824 1.046200 -2.949486
v 2.311281 0.556788 -2.949486
v 0.022325 1.046200 -2.949486
v 0.022325 0.556788 -2.949486
v 0.297075 1.046200 -2.949486
v 0.207017 0.556788 -2.949486
v 0.082363 0.556788 -2.949486
v 0.172420 1.046200 -2.949486
v 0.447170 1.046200 -2.949486
v 0.372122 0.556788 -2.949486
v 0.577678 1.046200 -2.949486
v 0.510135 0.556788 -2.949486
v 0.897456 1.046200 -2.949486
v 0.807399 0.556788 -2.949486
v 0.682745 0.556788 -2.949486
v 0.772802 1.046200 -2.949486
v 1.047552 1.046200 -2.949486
v 0.972504 0.556788 -2.949486
v 1.178060 1.046200 -2.949486
v 1.110517 0.556788 -2.949486
v 2.424304 1.046200 -4.425432
v 2.424304 0.556788 -4.335375
v 2.424304 0.556788 -4.210721
v 2.424304 1.046200 -4.300779
v 2.424304 1.046200 -4.575528
v 2.424304 0.556788 -4.500480
v 2.424304 1.046200 -4.706036
v 2.424304 0.556788 -4.638493
v 2.424304 1.046200 -5.351446
v 2.424304 0.556788 -5.351446
v 2.424304 1.046200 -5.025815
v 2.424304 0.556788 -4.935758
v 2.424304 0.556788 -4.811103
v 2.424304 1.046200 -4.901160
v 2.424304 1.046200 -5.175910
v 2.424304 0.556788 -5.100862
v 2.424304 1.046200 -5.306418
v 2.424304 0.556788 -5.238875
v 2.424304 1.046200 -2.949918
v 2.424304 0.556788 -2.949918
v 2.424304 1.046200 -3.224668
v 2.424304 0.556788 -3.134611
v 2.424304 0.556788 -3.009957
v 2.424304 1.046200 -3.100014
v 2.424304 1.046200 -3.374764
v 2.424304 0.556788 -3.299716
v 2.424304 1.046200 -3.505272
v 2.424304 0.556788 -3.437729
v 2.424304 1.046200 -3.825050
v 2.424304 0.556788 -3.734993
v 2.424304 0.556788 -3.610339
v 2.424304 1.046200 -3.700396
v 2.424304 1.046200 -3.975146
v 2.424304 0.556788 -3.900098
v 2.424304 1.046200 -4.105654
v 2.424304 0.556788 -4.038111
v 0.024304 1.046200 -4.425432
v 0.024304 0.556788 -4.335375
v 0.024304 0.556788 -4.210721
v 0.024304 1.046200 -4.300779
v 0.024304 1.046200 -4.575528
v 0.024304 0.556788 -4.500480
v 0.024304 1.046200 -4.706036
v 0.024304 0.556788 -4.638493
v 0.024304 1.046200 -5.351446
v 0.024304 0.556788 -5.351446
v 0.024304 1.046200 -5.025815
v 0.024304 0.556788 -4.935758
v 0.024304 0.556788 -4.811103
v 0.024304 1.046200 -4.901160
v 0.024304 1.046200 -5.175910
v 0.024304 0.556788 -5.100862
v 0.024304 1.046200 -5.306418
v 0.024304 0.556788 -5.238875
v 0.024304 1.046200 -2.949918
v 0.024304 0.556788 -2.949918
v 0.024304 1.046200 -3.224668
v 0.024304 0.556788 -3.134611
v 0.024304 0.556788 -3.009957
v 0.024304 1.046200 -3.100014
v 0.024304 1.046200 -3.374764
v 0.024304 0.556788 -3.299716
v 0.024304 1.046200 -3.505272
v 0.024304 0.556788 -3.437729
v 0.024304 1.046200 -3.825050
v 0.024304 0.556788 -3.734993
v 0.024304 0.556788 -3.610339
v 0.024304 1.046200 -3.700396
v 0.024304 1.046200 -3.975146
v 0.024304 0.556788 -3.900098
v 0.024304 1.046200 -4.105654
v 0.024304 0.556788 -4.038111
v 1.497838 1.046200 -5.349486
v 1.407781 0.556788 -5.349486
v 1.283127 0.556788 -5.349486
v 1.373185 1.046200 -5.349486
v 1.647934 1.046200 -5.349486
v 1.572886 0.556788 -5.349486
v 1.778442 1.046200 -5.349486
v 1.710899 0.556788 -5.349486
v 2.423852 1.046200 -5.349486
v 2.423852 0.556788 -5.349486
v 2.098220 1.046200 -5.349486
v 2.008163 0.556788 -5.349486
v 1.883509 0.556788 -5.349486
v 1.973566 1.046200 -5.349486
v 2.248316 1.046200 -5.349486
v 2.173268 0.556788 -5.349486
v 2.378824 1.046200 -5.349486
v 2.311281 0.556788 -5.349486
v 0.022325 1.046200 -5.349486
v 0.022325 0.556788 -5.349486
v 0.297075 1.046200 -5.349486
v 0.207017 0.556788 -5.349486
v 0.082363 0.556788 -5.349486
v 0.172420 1.046200 -5.349486
v 0.447170 1.046200 -5.349486
v 0.372122 0.556788 -5.349486
v 0.577678 1.046200 -5.349486
v 0.510135 0.556788 -5.349486
v 0.897456 1.046200 -5.349486
v 0.807399 0.556788 -5.349486
v 0.682745 0.556788 -5.349486
v 0.772802 1.046200 -5.349486
v 1.047552 1.046200 -5.349486
v 0.972504 0.556788 -5.349486
v 1.178060 1.046200 -5.349486
v 1.110517 0.556788 -5.349486
v 0.053345 0.562273 -5.333685
v 0.053345 0.562274 -2.960819
v 2.415678 0.562274 -2.960819
v 2.415678 0.562273 -5.333685
v 0.423600 1.733613 -4.632266
v 0.423600 1.733613 -3.662238
v 2.045423 1.733613 -3.662238
v 2.045423 1.733613 -4.632266
v 0.053345 1.311535 -5.333685
v 0.053345 1.311536 -2.960819
v 2.415678 1.311535 -5.333685
v 2.415678 1.311536 -2.960819
v 0.423600 12.535275 -4.632267
v 0.423600 12.535275 -3.662239
v 2.045423 12.535275 -3.662239
v 2.045423 12.535275 -4.632267
v 0.423600 13.535275 -4.632267
v 0.423600 13.535275 -3.662238
v 2.045423 13.535275 -3.662238
v 2.045423 13.535275 -4.632267
v 1.497838 1.046200 -18.186184
v 1.407781 0.556788 -18.186184
v 1.283127 0.556788 -18.186184
v 1.373185 1.046200 -18.186184
v 1.647934 1.046200 -18.186184
v 1.572886 0.556788 -18.186184
v 1.778442 1.046200 -18.186184
v 1.710899 0.556788 -18.186184
v 2.423852 1.046200 -18.186184
v 2.423852 0.556788 -18.186184
v 2.098220 1.046200 -18.186184
v 2.008163 0.556788 -18.186184
v 1.883509 0.556788 -18.186184
v 1.973566 1.046200 -18.186184
v 2.248316 1.046200 -18.186184
v 2.173268 0.556788 -18.186184
v 2.378824 1.046200 -18.186184
v 2.311281 0.556788 -18.186184
v 0.022325 1.046200 -18.186184
v 0.022325 0.556788 -18.186184
v 0.297075 1.046200 -18.186184
v 0.207017 0.556788 -18.186184
v 0.082363 0.556788 -18.186184
v 0.172420 1.046200 -18.186184
v 0.447170 1.046200 -18.186184
v 0.372122 0.556788 -18.186184
v 0.577678 1.046200 -18.186184
v 0.510135 0.556788 -18.186184
v 0.897456 1.046200 -18.186184
v 0.807399 0.556788 -18.186184
v 0.682745 0.556788 -18.186184
v 0.772802 1.046200 -18.186184
v 1.047552 1.046200 -18.186184
v 0.972504 0.556788 -18.186184
v 1.178060 1.046200 -18.186184
v 1.110517 0.556788 -18.186184
v 2.424304 1.046200 -19.662130
v 2.424304 0.556788 -19.572071
v 2.424304 0.556788 -19.447418
v 2.424304 1.046200 -19.537476
v 2.424304 1.046200 -19.812225
v 2.424304 0.556788 -19.737177
v 2.424304 1.046200 -19.942734
v 2.424304 0.556788 -19.875191
v 2.424304 1.046200 -20.588144
v 2.424304 0.556788 -20.588144
v 2.424304 1.046200 -20.262512
v 2.424304 0.556788 -20.172455
v 2.424304 0.556788 -20.047800
v 2.424304 1.046200 -20.137857
v 2.424304 1.046200 -20.412607
v 2.424304 0.556788 -20.337561
v 2.424304 1.046200 -20.543116
v 2.424304 0.556788 -20.475573
v 2.424304 1.046200 -18.186615
v 2.424304 0.556788 -18.186615
v 2.424304 1.046200 -18.461365
v 2.424304 0.556788 -18.371309
v 2.424304 0.556788 -18.246655
v 2.424304 1.046200 -18.336712
v 2.424304 1.046200 -18.611462
v 2.424304 0.556788 -18.536413
v 2.424304 1.046200 -18.741970
v 2.424304 0.556788 -18.674427
v 2.424304 1.046200 -19.061749
v 2.424304 0.556788 -18.971691
v 2.424304 0.556788 -18.847038
v 2.424304 1.046200 -18.937094
v 2.424304 1.046200 -19.211843
v 2.424304 0.556788 -19.136795
v 2.424304 1.046200 -19.342352
v 2.424304 0.556788 -19.274809
v 0.024304 1.046200 -19.662130
v 0.024304 0.556788 -19.572071
v 0.024304 0.556788 -19.447418
v 0.024304 1.046200 -19.537476
v 0.024304 1.046200 -19.812225
v 0.024304 0.556788 -19.737177
v 0.024304 1.046200 -19.942734
v 0.024304 0.556788 -19.875191
v 0.024304 1.046200 -20.588144
v 0.024304 0.556788 -20.588144
v 0.024304 1.046200 -20.262512
v 0.024304 0.556788 -20.172455
v 0.024304 0.556788 -20.047800
v 0.024304 1.046200 -20.137857
v 0.024304 1.046200 -20.412607
v 0.024304 0.556788 -20.337561
v 0.024304 1.046200 -20.543116
v 0.024304 0.556788 -20.475573
v 0.024304 1.046200 -18.186615
v 0.024304 0.556788 -18.186615
v 0.024304 1.046200 -18.461365
v 0.024304 0.556788 -18.371309
v 0.024304 0.556788 -18.246655
v 0.024304 1.046200 -18.336712
v 0.024304 1.046200 -18.611462
v 0.024304 0.556788 -18.536413
v 0.024304 1.046200 -18.741970
v 0.024304 0.556788 -18.674427
v 0.024304 1.046200 -19.061749
v 0.024304 0.556788 -18.971691
v 0.024304 0.556788 -18.847038
v 0.024304 1.046200 -18.937094
v 0.024304 1.046200 -19.211843
v 0.024304 0.556788 -19.136795
v 0.024304 1.046200 -19.342352
v 0.024304 0.556788 -19.274809
v 1.497838 1.046200 -20.586185
v 1.407781 0.556788 -20.586185
v 1.283127 0.556788 -20.586185
v 1.373185 1.046200 -20.586185
v 1.647934 1.046200 -20.586185
v 1.572886 0.556788 -20.586185
v 1.778442 1.046200 -20.586185
v 1.710899 0.556788 -20.586185
v 2.423852 1.046200 -20.586185
v 2.423852 0.556788 -20.586185
v 2.098220 1.046200 -20.586185
v 2.008163 0.556788 -20.586185
v 1.883509 0.556788 -20.586185
v 1.973566 1.046200 -20.586185
v 2.248316 1.046200 -20.586185
v 2.173268 0.556788 -20.586185
v 2.378824 1.046200 -20.586185
v 2.311281 0.556788 -20.586185
v 0.022325 1.046200 -20.586185
v 0.022325 0.556788 -20.586185
v 0.297075 1.046200 -20.586185
v 0.207017 0.556788 -20.586185
v 0.082363 0.556788 -20.586185
v 0.172420 1.046200 -20.586185
v 0.447170 1.046200 -20.586185
v 0.372122 0.556788 -20.586185
v 0.577678 1.046200 -20.586185
v 0.510135 0.556788 -20.586185
v 0.897456 1.046200 -20.586185
v 0.807399 0.556788 -20.586185
v 0.682745 0.556788 -20.586185
v 0.772802 1.046200 -20.586185
v 1.047552 1.046200 -20.586185
v 0.972504 0.556788 -20.586185
v 1.178060 1.046200 -20.586185
v 1.110517 0.556788 -20.586185
v 0.053345 0.562273 -20.570383
v 0.053345 0.562274 -18.197517
v 2.415678 0.562274 -18.197517
v 2.415678 0.562273 -20.570383
v 0.423600 1.733613 -19.868963
v 0.423600 1.733613 -18.898935
v 2.045423 1.733613 -18.898935
v 2.045423 1.733613 -19.868963
v 0.053345 1.311535 -20.570383
v 0.053345 1.311536 -18.197517
v 2.415678 1.311535 -20.570383
v 2.415678 1.311536 -18.197517
v 0.423600 12.535275 -19.868963
v 0.423600 12.535275 -18.898935
v 2.045423 12.535275 -18.898935
v 2.045423 12.535275 -19.868963
v 0.423600 13.535275 -19.868963
v 0.423600 13.535275 -18.898935
v 2.045423 13.535275 -18.898935
v 2.045423 13.535275 -19.868963
vn -0.0000 -0.0000 1.0000
vn 1.0000 -0.0000 -0.0000
vn -0.0000 -1.0000 -0.0000
vn -0.0000 -0.0000 -1.0000
vn -1.0000 -0.0000 -0.0000
vn -0.7517 0.6594 -0.0000
vn 0.7517 0.6594 -0.0000
vn -0.0000 0.8568 -0.5156
vn -0.0000 0.8568 0.5156
vn -0.0000 1.0000 -0.0000
vt 0.440733 0.329441
vt 0.444928 0.327465
vt 0.444861 0.330335
vt 0.440666 0.332311
vt 0.298791 0.283249
vt 0.302986 0.281272
vt 0.302897 0.285073
vt 0.298710 0.286704
vt 0.438085 0.330142
vt 0.442272 0.328511
vt 0.442198 0.331688
vt 0.438015 0.333146
vt 0.298640 0.289709
vt 0.302823 0.288251
vt 0.302762 0.290842
vt 0.298615 0.290745
vt 0.303053 0.278403
vt 0.298858 0.280379
vt 0.298939 0.276923
vt 0.303085 0.277020
vt 0.301591 0.281243
vt 0.300219 0.281859
vt 0.301466 0.286566
vt 0.300097 0.287073
vt 0.299622 0.282756
s 0
usemtl Material
f 4/1/1 3/2/1 2/3/1 1/4/1
f 1/5/1 2/6/1 6/7/1 5/8/1
f 5/9/1 6/10/1 8/11/1 7/12/1
f 17/13/1 18/14/1 10/15/1 9/16/1
f 14/1/1 13/2/1 12/3/1 11/4/1
f 11/5/1 12/6/1 16/7/1 15/8/1
f 15/9/1 16/10/1 18/11/1 17/12/1
f 13/17/1 14/18/1 7/13/1 8/14/1
f 24/1/1 23/2/1 22/3/1 21/4/1
f 19/19/1 20/20/1 23/17/1 24/18/1
f 21/5/1 22/6/1 26/7/1 25/8/1
f 25/9/1 26/10/1 28/11/1 27/12/1
f 32/1/1 31/2/1 30/3/1 29/4/1
f 29/5/1 30/6/1 34/7/1 33/8/1
f 33/9/1 34/10/1 36/11/1 35/12/1
f 31/17/1 32/18/1 27/13/1 28/14/1
f 35/13/1 36/14/1 3/17/1 4/18/1
f 40/1/2 39/2/2 38/3/2 37/4/2
f 37/5/2 38/6/2 42/7/2 41/8/2
f 41/9/2 42/10/2 44/11/2 43/12/2
f 53/13/2 54/14/2 46/15/2 45/16/2
f 50/1/2 49/2/2 48/3/2 47/4/2
f 47/5/2 48/6/2 52/7/2 51/8/2
f 51/9/2 52/10/2 54/11/2 53/12/2
f 49/17/2 50/18/2 43/13/2 44/14/2
f 60/1/2 59/2/2 58/3/2 57/4/2
f 55/19/2 56/20/2 59/17/2 60/18/2
f 57/5/2 58/6/2 62/7/2 61/8/2
f 61/9/2 62/10/2 64/11/2 63/12/2
f 68/1/2 67/2/2 66/3/2 65/4/2
f 65/5/2 66/6/2 70/7/2 69/8/2
f 69/9/2 70/10/2 72/11/2 71/12/2
f 67/17/2 68/18/2 63/13/2 64/14/2
f 71/13/2 72/14/2 39/17/2 40/18/2
f 76/1/2 75/2/2 74/3/2 73/4/2
f 73/5/2 74/6/2 78/7/2 77/8/2
f 77/9/2 78/10/2 80/11/2 79/12/2
f 89/13/2 90/14/2 82/15/2 81/16/2
f 86/1/2 85/2/2 84/3/2 83/4/2
f 83/5/2 84/6/2 88/7/2 87/8/2
f 87/9/2 88/10/2 90/11/2 89/12/2
f 85/17/2 86/18/2 79/13/2 80/14/2
f 96/1/2 95/2/2 94/3/2 93/4/2
f 91/19/2 92/20/2 95/17/2 96/18/2
f 93/5/2 94/6/2 98/7/2 97/8/2
f 97/9/2 98/10/2 100/11/2 99/12/2
f 104/1/2 103/2/2 102/3/2 101/4/2
f 101/5/2 102/6/2 106/7/2 105/8/2
f 105/9/2 106/10/2 108/11/2 107/12/2
f 103/17/2 104/18/2 99/13/2 100/14/2
f 107/13/2 108/14/2 75/17/2 76/18/2
f 112/1/1 111/2/1 110/3/1 109/4/1
f 109/5/1 110/6/1 114/7/1 113/8/1
f 113/9/1 114/10/1 116/11/1 115/12/1
f 125/13/1 126/14/1 118/15/1 117/16/1
f 122/1/1 121/2/1 120/3/1 119/4/1
f 119/5/1 120/6/1 124/7/1 123/8/1
f 123/9/1 124/10/1 126/11/1 125/12/1
f 121/17/1 122/18/1 115/13/1 116/14/1
f 132/1/1 131/2/1 130/3/1 129/4/1
f 127/19/1 128/20/1 131/17/1 132/18/1
f 129/5/1 130/6/1 134/7/1 133/8/1
f 133/9/1 134/10/1 136/11/1 135/12/1
f 140/1/1 139/2/1 138/3/1 137/4/1
f 137/5/1 138/6/1 142/7/1 141/8/1
f 141/9/1 142/10/1 144/11/1 143/12/1
f 139/17/1 140/18/1 135/13/1 136/14/1
f 143/13/1 144/14/1 111/17/1 112/18/1
f 147/17/3 146/14/3 145/13/3 148/18/3
f 151/21/2 152/22/2 160/22/2 159/21/2
f 148/18/4 145/13/4 153/13/4 155/18/4
f 145/13/5 146/14/5 154/14/5 153/13/5
f 146/14/1 147/17/1 156/17/1 154/14/1
f 147/17/2 148/18/2 155/18/2 156/17/2
f 150/23/6 149/24/6 153/13/6 154/14/6
f 152/22/7 151/21/7 156/17/7 155/18/7
f 149/24/8 152/22/8 155/18/8 153/13/8
f 151/21/9 150/23/9 154/14/9 156/17/9
f 164/25/2 160/25/2 323/25/2 327/25/2
f 152/22/4 149/24/4 157/24/4 160/22/4
f 149/24/5 150/23/5 158/23/5 157/24/5
f 150/23/1 151/21/1 159/21/1 158/23/1
f 163/21/10 164/22/10 161/24/10 162/23/10
f 157/24/5 158/23/5 162/23/5 161/24/5
f 158/23/1 159/21/1 163/21/1 162/23/1
f 159/21/2 160/22/2 164/22/2 163/21/2
f 168/1/1 167/2/1 166/3/1 165/4/1
f 165/5/1 166/6/1 170/7/1 169/8/1
f 169/9/1 170/10/1 172/11/1 171/12/1
f 181/13/1 182/14/1 174/15/1 173/16/1
f 178/1/1 177/2/1 176/3/1 175/4/1
f 175/5/1 176/6/1 180/7/1 179/8/1
f 179/9/1 180/10/1 182/11/1 181/12/1
f 177/17/1 178/18/1 171/13/1 172/14/1
f 188/1/1 187/2/1 186/3/1 185/4/1
f 183/19/1 184/20/1 187/17/1 188/18/1
f 185/5/1 186/6/1 190/7/1 189/8/1
f 189/9/1 190/10/1 192/11/1 191/12/1
f 196/1/1 195/2/1 194/3/1 193/4/1
f 193/5/1 194/6/1 198/7/1 197/8/1
f 197/9/1 198/10/1 200/11/1 199/12/1
f 195/17/1 196/18/1 191/13/1 192/14/1
f 199/13/1 200/14/1 167/17/1 168/18/1
f 204/1/2 203/2/2 202/3/2 201/4/2
f 201/5/2 202/6/2 206/7/2 205/8/2
f 205/9/2 206/10/2 208/11/2 207/12/2
f 217/13/2 218/14/2 210/15/2 209/16/2
f 214/1/2 213/2/2 212/3/2 211/4/2
f 211/5/2 212/6/2 216/7/2 215/8/2
f 215/9/2 216/10/2 218/11/2 217/12/2
f 213/17/2 214/18/2 207/13/2 208/14/2
f 224/1/2 223/2/2 222/3/2 221/4/2
f 219/19/2 220/20/2 223/17/2 224/18/2
f 221/5/2 222/6/2 226/7/2 225/8/2
f 225/9/2 226/10/2 228/11/2 227/12/2
f 232/1/2 231/2/2 230/3/2 229/4/2
f 229/5/2 230/6/2 234/7/2 233/8/2
f 233/9/2 234/10/2 236/11/2 235/12/2
f 231/17/2 232/18/2 227/13/2 228/14/2
f 235/13/2 236/14/2 203/17/2 204/18/2
f 240/1/2 239/2/2 238/3/2 237/4/2
f 237/5/2 238/6/2 242/7/2 241/8/2
f 241/9/2 242/10/2 244/11/2 243/12/2
f 253/13/2 254/14/2 246/15/2 245/16/2
f 250/1/2 249/2/2 248/3/2 247/4/2
f 247/5/2 248/6/2 252/7/2 251/8/2
f 251/9/2 252/10/2 254/11/2 253/12/2
f 249/17/2 250/18/2 243/13/2 244/14/2
f 260/1/2 259/2/2 258/3/2 257/4/2
f 255/19/2 256/20/2 259/17/2 260/18/2
f 257/5/2 258/6/2 262/7/2 261/8/2
f 261/9/2 262/10/2 264/11/2 263/12/2
f 268/1/2 267/2/2 266/3/2 265/4/2
f 265/5/2 266/6/2 270/7/2 269/8/2
f 269/9/2 270/10/2 272/11/2 271/12/2
f 267/17/2 268/18/2 263/13/2 264/14/2
f 271/13/2 272/14/2 239/17/2 240/18/2
f 276/1/1 275/2/1 274/3/1 273/4/1
f 273/5/1 274/6/1 278/7/1 277/8/1
f 277/9/1 278/10/1 280/11/1 279/12/1
f 289/13/1 290/14/1 282/15/1 281/16/1
f 286/1/1 285/2/1 284/3/1 283/4/1
f 283/5/1 284/6/1 288/7/1 287/8/1
f 287/9/1 288/10/1 290/11/1 289/12/1
f 285/17/1 286/18/1 279/13/1 280/14/1
f 296/1/1 295/2/1 294/3/1 293/4/1
f 291/19/1 292/20/1 295/17/1 296/18/1
f 293/5/1 294/6/1 298/7/1 297/8/1
f 297/9/1 298/10/1 300/11/1 299/12/1
f 304/1/1 303/2/1 302/3/1 301/4/1
f 301/5/1 302/6/1 306/7/1 305/8/1
f 305/9/1 306/10/1 308/11/1 307/12/1
f 303/17/1 304/18/1 299/13/1 300/14/1
f 307/13/1 308/14/1 275/17/1 276/18/1
f 311/17/3 310/14/3 309/13/3 312/18/3
f 315/21/2 316/22/2 324/22/2 323/21/2
f 312/18/4 309/13/4 317/13/4 319/18/4
f 309/13/5 310/14/5 318/14/5 317/13/5
f 310/14/1 311/17/1 320/17/1 318/14/1
f 311/17/2 312/18/2 319/18/2 320/17/2
f 314/23/6 313/24/6 317/13/6 318/14/6
f 316/22/7 315/21/7 320/17/7 319/18/7
f 313/24/8 316/22/8 319/18/8 317/13/8
f 315/21/9 314/23/9 318/14/9 320/17/9
f 324/22/4 321/24/4 325/24/4 328/22/4
f 316/22/4 313/24/4 321/24/4 324/22/4
f 313/24/5 314/23/5 322/23/5 321/24/5
f 314/23/1 315/21/1 323/21/1 322/23/1
f 327/21/10 328/22/10 325/24/10 326/23/10
f 321/24/5 322/23/5 326/23/5 325/24/5
f 161/25/10 164/25/10 327/25/10 326/25/10
f 323/21/2 324/22/2 328/22/2 327/21/2
f 160/25/3 157/25/3 322/25/3 323/25/3
f 157/25/5 161/25/5 326/25/5 322/25/5
