# Blender 4.3.2
# www.blender.org
mtllib BackGround Wall Con.mtl
o Floor_Base.014
v 21.061653 18.227995 -0.604869
v 20.761654 18.227995 -0.000001
v 20.346405 18.227995 -0.000001
v 20.646404 18.227995 -0.604869
v 21.561653 18.227995 -0.604869
v 21.311655 18.227995 -0.000001
v 21.996405 18.227995 -0.604869
v 21.771404 18.227995 -0.000001
v 24.146404 18.227995 -0.604869
v 23.061653 18.227995 -0.604869
v 22.761654 18.227995 -0.000001
v 22.346405 18.227995 -0.000001
v 22.646404 18.227995 -0.604869
v 23.561655 18.227995 -0.604869
v 23.311653 18.227995 -0.000001
v 23.996405 18.227995 -0.604869
v 23.771404 18.227995 -0.000001
v 16.146404 18.227995 -0.604869
v 17.061653 18.227995 -0.604869
v 16.761652 18.227995 -0.000001
v 16.346403 18.227995 -0.000001
v 16.646404 18.227995 -0.604869
v 17.561655 18.227995 -0.604869
v 17.311655 18.227995 -0.000001
v 17.996405 18.227995 -0.604869
v 17.771404 18.227995 -0.000001
v 19.061655 18.227995 -0.604869
v 18.761654 18.227995 -0.000001
v 18.346405 18.227995 -0.000001
v 18.646406 18.227995 -0.604869
v 19.561653 18.227995 -0.604869
v 19.311653 18.227995 -0.000001
v 19.996405 18.227995 -0.604869
v 19.771404 18.227995 -0.000001
v 24.146404 18.227995 -0.600001
v 24.146404 18.227995 -0.000001
v 16.146404 18.227995 -0.600001
v 16.146404 18.227995 -0.000001
v 19.241722 0.202638 -0.604862
v 19.541721 0.202639 0.000006
v 19.956972 0.202639 0.000006
v 19.656971 0.202638 -0.604862
v 18.741722 0.202638 -0.604862
v 18.991722 0.202639 0.000006
v 18.306973 0.202638 -0.604862
v 18.531971 0.202639 0.000006
v 16.156971 0.202638 -0.604862
v 16.156971 0.202639 0.000006
v 17.241722 0.202638 -0.604862
v 17.541721 0.202639 0.000006
v 17.956970 0.202639 0.000006
v 17.656971 0.202638 -0.604862
v 16.741722 0.202638 -0.604862
v 16.991722 0.202639 0.000006
v 16.306973 0.202638 -0.604862
v 16.531971 0.202639 0.000006
v 24.156971 0.202638 -0.604862
v 24.156971 0.202639 0.000006
v 23.241722 0.202638 -0.604862
v 23.541723 0.202639 0.000006
v 23.956972 0.202639 0.000006
v 23.656971 0.202638 -0.604862
v 22.741722 0.202638 -0.604862
v 22.991720 0.202639 0.000006
v 22.306973 0.202638 -0.604862
v 22.531971 0.202639 0.000006
v 21.241722 0.202638 -0.604862
v 21.541723 0.202639 0.000006
v 21.956972 0.202639 0.000006
v 21.656971 0.202638 -0.604862
v 20.741722 0.202638 -0.604862
v 20.991722 0.202639 0.000006
v 20.306971 0.202638 -0.604862
v 20.531971 0.202639 0.000006
v 16.156971 0.202638 -0.599994
v 24.156971 0.202638 -0.599994
v 20.710592 0.213230 -0.604862
v 20.791040 1.125341 -0.613045
v 20.375792 1.125341 -0.613045
v 20.295343 0.213230 -0.604862
v 21.242371 0.213230 -0.604862
v 21.341042 1.125341 -0.613045
v 21.677124 0.213230 -0.604862
v 21.800791 1.125341 -0.613045
v 24.175793 0.213230 -0.604862
v 24.175793 1.125341 -0.613045
v 22.711420 0.213230 -0.604862
v 22.791040 1.125341 -0.613045
v 22.375792 1.125341 -0.613045
v 22.296169 0.213230 -0.604862
v 23.215355 0.213230 -0.604862
v 23.341040 1.125341 -0.613045
v 23.650105 0.213230 -0.604862
v 23.800793 1.125341 -0.613045
v 16.175791 0.213230 -0.604862
v 16.175791 1.125341 -0.613045
v 16.723362 0.213230 -0.604862
v 16.791039 1.125341 -0.613045
v 16.375790 1.125341 -0.613045
v 16.308113 0.213230 -0.604862
v 17.243752 0.213230 -0.604862
v 17.341042 1.125341 -0.613045
v 17.678503 0.213230 -0.604862
v 17.800793 1.125341 -0.613045
v 18.736309 0.213230 -0.604862
v 18.791040 1.125341 -0.613045
v 18.375790 1.125341 -0.613045
v 18.321060 0.213230 -0.604862
v 19.220051 0.213230 -0.604862
v 19.341042 1.125341 -0.613045
v 19.654800 0.213230 -0.604862
v 19.800793 1.125341 -0.613045
v 5.061654 18.227995 -0.604869
v 4.761654 18.227995 -0.000001
v 4.346404 18.227995 -0.000001
v 4.646405 18.227995 -0.604869
v 5.561653 18.227995 -0.604869
v 5.311655 18.227995 -0.000001
v 5.996405 18.227995 -0.604869
v 5.771405 18.227995 -0.000001
v 8.146404 18.227995 -0.604869
v 7.061653 18.227995 -0.604869
v 6.761654 18.227995 -0.000001
v 6.346405 18.227995 -0.000001
v 6.646404 18.227995 -0.604869
v 7.561655 18.227995 -0.604869
v 7.311654 18.227995 -0.000001
v 7.996405 18.227995 -0.604869
v 7.771404 18.227995 -0.000001
v 0.146404 18.227995 -0.604869
v 1.061653 18.227995 -0.604869
v 0.761652 18.227995 -0.000001
v 0.346403 18.227995 -0.000001
v 0.646404 18.227995 -0.604869
v 1.561655 18.227995 -0.604869
v 1.311655 18.227995 -0.000001
v 1.996405 18.227995 -0.604869
v 1.771404 18.227995 -0.000001
v 3.061655 18.227995 -0.604869
v 2.761654 18.227995 -0.000001
v 2.346405 18.227995 -0.000001
v 2.646406 18.227995 -0.604869
v 3.561654 18.227995 -0.604869
v 3.311653 18.227995 -0.000001
v 3.996405 18.227995 -0.604869
v 3.771404 18.227995 -0.000001
v 8.146404 18.227995 -0.600001
v 8.146404 18.227995 -0.000001
v 0.146404 18.227995 -0.600001
v 0.146404 18.227995 -0.000001
v 3.241722 0.202638 -0.604862
v 3.541721 0.202639 0.000006
v 3.956972 0.202639 0.000006
v 3.656971 0.202638 -0.604862
v 2.741722 0.202638 -0.604862
v 2.991722 0.202639 0.000006
v 2.306972 0.202638 -0.604862
v 2.531971 0.202639 0.000006
v 0.156971 0.202638 -0.604862
v 0.156971 0.202639 0.000006
v 1.241722 0.202638 -0.604862
v 1.541722 0.202639 0.000006
v 1.956971 0.202639 0.000006
v 1.656971 0.202638 -0.604862
v 0.741721 0.202638 -0.604862
v 0.991722 0.202639 0.000006
v 0.306972 0.202638 -0.604862
v 0.531971 0.202639 0.000006
v 8.156972 0.202638 -0.604862
v 8.156972 0.202639 0.000006
v 7.241722 0.202638 -0.604862
v 7.541723 0.202639 0.000006
v 7.956972 0.202639 0.000006
v 7.656971 0.202638 -0.604862
v 6.741722 0.202638 -0.604862
v 6.991720 0.202639 0.000006
v 6.306973 0.202638 -0.604862
v 6.531971 0.202639 0.000006
v 5.241722 0.202638 -0.604862
v 5.541723 0.202639 0.000006
v 5.956972 0.202639 0.000006
v 5.656971 0.202638 -0.604862
v 4.741722 0.202638 -0.604862
v 4.991722 0.202639 0.000006
v 4.306971 0.202638 -0.604862
v 4.531972 0.202639 0.000006
v 0.156971 0.202638 -0.599994
v 8.156972 0.202638 -0.599994
v 4.710592 0.213230 -0.604862
v 4.791040 1.125341 -0.613045
v 4.375792 1.125341 -0.613045
v 4.295343 0.213230 -0.604862
v 5.242371 0.213230 -0.604862
v 5.341042 1.125341 -0.613045
v 5.677124 0.213230 -0.604862
v 5.800791 1.125341 -0.613045
v 8.175792 0.213230 -0.604862
v 8.175792 1.125341 -0.613045
v 6.711420 0.213230 -0.604862
v 6.791040 1.125341 -0.613045
v 6.375792 1.125341 -0.613045
v 6.296169 0.213230 -0.604862
v 7.215355 0.213230 -0.604862
v 7.341040 1.125341 -0.613045
v 7.650105 0.213230 -0.604862
v 7.800793 1.125341 -0.613045
v 0.175791 0.213230 -0.604862
v 0.175791 1.125341 -0.613045
v 0.723362 0.213230 -0.604862
v 0.791039 1.125341 -0.613045
v 0.375791 1.125341 -0.613045
v 0.308112 0.213230 -0.604862
v 1.243752 0.213230 -0.604862
v 1.341042 1.125341 -0.613045
v 1.678503 0.213230 -0.604862
v 1.800792 1.125341 -0.613045
v 2.736309 0.213230 -0.604862
v 2.791040 1.125341 -0.613045
v 2.375791 1.125341 -0.613045
v 2.321060 0.213230 -0.604862
v 3.220050 0.213230 -0.604862
v 3.341042 1.125341 -0.613045
v 3.654799 0.213230 -0.604862
v 3.800792 1.125341 -0.613045
v 13.061654 18.227995 -0.604869
v 12.761654 18.227995 -0.000001
v 12.346404 18.227995 -0.000001
v 12.646405 18.227995 -0.604869
v 13.561653 18.227995 -0.604869
v 13.311655 18.227995 -0.000001
v 13.996405 18.227995 -0.604869
v 13.771405 18.227995 -0.000001
v 16.146404 18.227995 -0.604869
v 15.061653 18.227995 -0.604869
v 14.761654 18.227995 -0.000001
v 14.346405 18.227995 -0.000001
v 14.646404 18.227995 -0.604869
v 15.561655 18.227995 -0.604869
v 15.311654 18.227995 -0.000001
v 15.996405 18.227995 -0.604869
v 15.771404 18.227995 -0.000001
v 8.146404 18.227995 -0.604869
v 9.061653 18.227995 -0.604869
v 8.761652 18.227995 -0.000001
v 8.346403 18.227995 -0.000001
v 8.646404 18.227995 -0.604869
v 9.561655 18.227995 -0.604869
v 9.311655 18.227995 -0.000001
v 9.996405 18.227995 -0.604869
v 9.771404 18.227995 -0.000001
v 11.061655 18.227995 -0.604869
v 10.761654 18.227995 -0.000001
v 10.346405 18.227995 -0.000001
v 10.646406 18.227995 -0.604869
v 11.561654 18.227995 -0.604869
v 11.311653 18.227995 -0.000001
v 11.996405 18.227995 -0.604869
v 11.771404 18.227995 -0.000001
v 16.146404 18.227995 -0.600001
v 16.146404 18.227995 -0.000001
v 8.146404 18.227995 -0.600001
v 8.146404 18.227995 -0.000001
v 11.241722 0.202638 -0.604862
v 11.541721 0.202639 0.000006
v 11.956972 0.202639 0.000006
v 11.656971 0.202638 -0.604862
v 10.741722 0.202638 -0.604862
v 10.991722 0.202639 0.000006
v 10.306972 0.202638 -0.604862
v 10.531971 0.202639 0.000006
v 8.156971 0.202638 -0.604862
v 8.156971 0.202639 0.000006
v 9.241722 0.202638 -0.604862
v 9.541722 0.202639 0.000006
v 9.956971 0.202639 0.000006
v 9.656971 0.202638 -0.604862
v 8.741721 0.202638 -0.604862
v 8.991722 0.202639 0.000006
v 8.306972 0.202638 -0.604862
v 8.531971 0.202639 0.000006
v 16.156971 0.202638 -0.604862
v 16.156971 0.202639 0.000006
v 15.241722 0.202638 -0.604862
v 15.541723 0.202639 0.000006
v 15.956972 0.202639 0.000006
v 15.656971 0.202638 -0.604862
v 14.741722 0.202638 -0.604862
v 14.991720 0.202639 0.000006
v 14.306973 0.202638 -0.604862
v 14.531971 0.202639 0.000006
v 13.241722 0.202638 -0.604862
v 13.541723 0.202639 0.000006
v 13.956972 0.202639 0.000006
v 13.656971 0.202638 -0.604862
v 12.741722 0.202638 -0.604862
v 12.991722 0.202639 0.000006
v 12.306971 0.202638 -0.604862
v 12.531972 0.202639 0.000006
v 8.156971 0.202638 -0.599994
v 16.156971 0.202638 -0.599994
v 12.710592 0.213230 -0.604862
v 12.791040 1.125341 -0.613045
v 12.375792 1.125341 -0.613045
v 12.295343 0.213230 -0.604862
v 13.242371 0.213230 -0.604862
v 13.341042 1.125341 -0.613045
v 13.677124 0.213230 -0.604862
v 13.800791 1.125341 -0.613045
v 16.175793 0.213230 -0.604862
v 16.175793 1.125341 -0.613045
v 14.711420 0.213230 -0.604862
v 14.791040 1.125341 -0.613045
v 14.375792 1.125341 -0.613045
v 14.296169 0.213230 -0.604862
v 15.215355 0.213230 -0.604862
v 15.341040 1.125341 -0.613045
v 15.650105 0.213230 -0.604862
v 15.800793 1.125341 -0.613045
v 8.175791 0.213230 -0.604862
v 8.175791 1.125341 -0.613045
v 8.723362 0.213230 -0.604862
v 8.791039 1.125341 -0.613045
v 8.375791 1.125341 -0.613045
v 8.308112 0.213230 -0.604862
v 9.243752 0.213230 -0.604862
v 9.341042 1.125341 -0.613045
v 9.678503 0.213230 -0.604862
v 9.800792 1.125341 -0.613045
v 10.736309 0.213230 -0.604862
v 10.791040 1.125341 -0.613045
v 10.375791 1.125341 -0.613045
v 10.321060 0.213230 -0.604862
v 11.220050 0.213230 -0.604862
v 11.341042 1.125341 -0.613045
v 11.654799 0.213230 -0.604862
v 11.800792 1.125341 -0.613045
vn -0.0000 1.0000 -0.0000
vn -0.0000 -0.0000 -1.0000
vn -1.0000 -0.0006 -0.0000
vn -0.0000 -0.0000 1.0000
vn -0.0000 -0.0090 -1.0000
vn 1.0000 0.0006 -0.0000
vt 0.440733 0.329441
vt 0.444928 0.327465
vt 0.444861 0.330335
vt 0.440666 0.332311
vt 0.298791 0.283249
vt 0.302986 0.281272
vt 0.302897 0.285073
vt 0.298710 0.286704
vt 0.438085 0.330142
vt 0.442272 0.328511
vt 0.442198 0.331688
vt 0.438015 0.333146
vt 0.298640 0.289709
vt 0.302823 0.288251
vt 0.302762 0.290842
vt 0.298615 0.290745
vt 0.303053 0.278403
vt 0.298858 0.280379
vt 0.298939 0.276923
vt 0.303085 0.277020
vt 0.305000 0.316250
s 1
usemtl Material
f 4/1/1 3/2/1 2/3/1 1/4/1
f 1/5/1 2/6/1 6/7/1 5/8/1
f 5/9/1 6/10/1 8/11/1 7/12/1
f 16/13/1 17/14/1 36/15/1 9/16/1
f 13/1/1 12/2/1 11/3/1 10/4/1
f 10/5/1 11/6/1 15/7/1 14/8/1
f 14/9/1 15/10/1 17/11/1 16/12/1
f 12/17/1 13/18/1 7/13/1 8/14/1
f 22/1/1 21/2/1 20/3/1 19/4/1
f 18/19/1 38/20/1 21/17/1 22/18/1
f 19/5/1 20/6/1 24/7/1 23/8/1
f 23/9/1 24/10/1 26/11/1 25/12/1
f 30/1/1 29/2/1 28/3/1 27/4/1
f 27/5/1 28/6/1 32/7/1 31/8/1
f 31/9/1 32/10/1 34/11/1 33/12/1
f 29/17/1 30/18/1 25/13/1 26/14/1
f 33/13/1 34/14/1 3/17/1 4/18/1
f 76/21/2 75/21/2 37/21/2 35/21/2
f 75/21/3 48/21/3 38/21/3 37/21/3
f 36/21/4 38/21/4 48/21/4 58/21/4
f 42/1/1 39/4/1 40/3/1 41/2/1
f 39/5/1 43/8/1 44/7/1 40/6/1
f 43/9/1 45/12/1 46/11/1 44/10/1
f 55/13/1 47/16/1 48/15/1 56/14/1
f 52/1/1 49/4/1 50/3/1 51/2/1
f 49/5/1 53/8/1 54/7/1 50/6/1
f 53/9/1 55/12/1 56/11/1 54/10/1
f 51/17/1 46/14/1 45/13/1 52/18/1
f 62/1/1 59/4/1 60/3/1 61/2/1
f 57/19/1 62/18/1 61/17/1 58/20/1
f 59/5/1 63/8/1 64/7/1 60/6/1
f 63/9/1 65/12/1 66/11/1 64/10/1
f 70/1/1 67/4/1 68/3/1 69/2/1
f 67/5/1 71/8/1 72/7/1 68/6/1
f 71/9/1 73/12/1 74/11/1 72/10/1
f 69/17/1 66/14/1 65/13/1 70/18/1
f 73/13/1 42/18/1 41/17/1 74/14/1
f 80/1/5 79/2/5 78/3/5 77/4/5
f 77/5/5 78/6/5 82/7/5 81/8/5
f 81/9/5 82/10/5 84/11/5 83/12/5
f 93/13/5 94/14/5 86/15/5 85/16/5
f 90/1/5 89/2/5 88/3/5 87/4/5
f 87/5/5 88/6/5 92/7/5 91/8/5
f 91/9/5 92/10/5 94/11/5 93/12/5
f 89/17/5 90/18/5 83/13/5 84/14/5
f 100/1/5 99/2/5 98/3/5 97/4/5
f 95/19/5 96/20/5 99/17/5 100/18/5
f 97/5/5 98/6/5 102/7/5 101/8/5
f 101/9/5 102/10/5 104/11/5 103/12/5
f 108/1/5 107/2/5 106/3/5 105/4/5
f 105/5/5 106/6/5 110/7/5 109/8/5
f 109/9/5 110/10/5 112/11/5 111/12/5
f 107/17/5 108/18/5 103/13/5 104/14/5
f 111/13/5 112/14/5 79/17/5 80/18/5
f 58/21/6 76/21/6 35/21/6 36/21/6
f 116/1/1 115/2/1 114/3/1 113/4/1
f 113/5/1 114/6/1 118/7/1 117/8/1
f 117/9/1 118/10/1 120/11/1 119/12/1
f 128/13/1 129/14/1 148/15/1 121/16/1
f 125/1/1 124/2/1 123/3/1 122/4/1
f 122/5/1 123/6/1 127/7/1 126/8/1
f 126/9/1 127/10/1 129/11/1 128/12/1
f 124/17/1 125/18/1 119/13/1 120/14/1
f 134/1/1 133/2/1 132/3/1 131/4/1
f 130/19/1 150/20/1 133/17/1 134/18/1
f 131/5/1 132/6/1 136/7/1 135/8/1
f 135/9/1 136/10/1 138/11/1 137/12/1
f 142/1/1 141/2/1 140/3/1 139/4/1
f 139/5/1 140/6/1 144/7/1 143/8/1
f 143/9/1 144/10/1 146/11/1 145/12/1
f 141/17/1 142/18/1 137/13/1 138/14/1
f 145/13/1 146/14/1 115/17/1 116/18/1
f 188/21/2 187/21/2 149/21/2 147/21/2
f 187/21/3 160/21/3 150/21/3 149/21/3
f 148/21/4 150/21/4 160/21/4 170/21/4
f 154/1/1 151/4/1 152/3/1 153/2/1
f 151/5/1 155/8/1 156/7/1 152/6/1
f 155/9/1 157/12/1 158/11/1 156/10/1
f 167/13/1 159/16/1 160/15/1 168/14/1
f 164/1/1 161/4/1 162/3/1 163/2/1
f 161/5/1 165/8/1 166/7/1 162/6/1
f 165/9/1 167/12/1 168/11/1 166/10/1
f 163/17/1 158/14/1 157/13/1 164/18/1
f 174/1/1 171/4/1 172/3/1 173/2/1
f 169/19/1 174/18/1 173/17/1 170/20/1
f 171/5/1 175/8/1 176/7/1 172/6/1
f 175/9/1 177/12/1 178/11/1 176/10/1
f 182/1/1 179/4/1 180/3/1 181/2/1
f 179/5/1 183/8/1 184/7/1 180/6/1
f 183/9/1 185/12/1 186/11/1 184/10/1
f 181/17/1 178/14/1 177/13/1 182/18/1
f 185/13/1 154/18/1 153/17/1 186/14/1
f 192/1/5 191/2/5 190/3/5 189/4/5
f 189/5/5 190/6/5 194/7/5 193/8/5
f 193/9/5 194/10/5 196/11/5 195/12/5
f 205/13/5 206/14/5 198/15/5 197/16/5
f 202/1/5 201/2/5 200/3/5 199/4/5
f 199/5/5 200/6/5 204/7/5 203/8/5
f 203/9/5 204/10/5 206/11/5 205/12/5
f 201/17/5 202/18/5 195/13/5 196/14/5
f 212/1/5 211/2/5 210/3/5 209/4/5
f 207/19/5 208/20/5 211/17/5 212/18/5
f 209/5/5 210/6/5 214/7/5 213/8/5
f 213/9/5 214/10/5 216/11/5 215/12/5
f 220/1/5 219/2/5 218/3/5 217/4/5
f 217/5/5 218/6/5 222/7/5 221/8/5
f 221/9/5 222/10/5 224/11/5 223/12/5
f 219/17/5 220/18/5 215/13/5 216/14/5
f 223/13/5 224/14/5 191/17/5 192/18/5
f 170/21/6 188/21/6 147/21/6 148/21/6
f 228/1/1 227/2/1 226/3/1 225/4/1
f 225/5/1 226/6/1 230/7/1 229/8/1
f 229/9/1 230/10/1 232/11/1 231/12/1
f 240/13/1 241/14/1 260/15/1 233/16/1
f 237/1/1 236/2/1 235/3/1 234/4/1
f 234/5/1 235/6/1 239/7/1 238/8/1
f 238/9/1 239/10/1 241/11/1 240/12/1
f 236/17/1 237/18/1 231/13/1 232/14/1
f 246/1/1 245/2/1 244/3/1 243/4/1
f 242/19/1 262/20/1 245/17/1 246/18/1
f 243/5/1 244/6/1 248/7/1 247/8/1
f 247/9/1 248/10/1 250/11/1 249/12/1
f 254/1/1 253/2/1 252/3/1 251/4/1
f 251/5/1 252/6/1 256/7/1 255/8/1
f 255/9/1 256/10/1 258/11/1 257/12/1
f 253/17/1 254/18/1 249/13/1 250/14/1
f 257/13/1 258/14/1 227/17/1 228/18/1
f 300/21/2 299/21/2 261/21/2 259/21/2
f 299/21/3 272/21/3 262/21/3 261/21/3
f 260/21/4 262/21/4 272/21/4 282/21/4
f 266/1/1 263/4/1 264/3/1 265/2/1
f 263/5/1 267/8/1 268/7/1 264/6/1
f 267/9/1 269/12/1 270/11/1 268/10/1
f 279/13/1 271/16/1 272/15/1 280/14/1
f 276/1/1 273/4/1 274/3/1 275/2/1
f 273/5/1 277/8/1 278/7/1 274/6/1
f 277/9/1 279/12/1 280/11/1 278/10/1
f 275/17/1 270/14/1 269/13/1 276/18/1
f 286/1/1 283/4/1 284/3/1 285/2/1
f 281/19/1 286/18/1 285/17/1 282/20/1
f 283/5/1 287/8/1 288/7/1 284/6/1
f 287/9/1 289/12/1 290/11/1 288/10/1
f 294/1/1 291/4/1 292/3/1 293/2/1
f 291/5/1 295/8/1 296/7/1 292/6/1
f 295/9/1 297/12/1 298/11/1 296/10/1
f 293/17/1 290/14/1 289/13/1 294/18/1
f 297/13/1 266/18/1 265/17/1 298/14/1
f 304/1/5 303/2/5 302/3/5 301/4/5
f 301/5/5 302/6/5 306/7/5 305/8/5
f 305/9/5 306/10/5 308/11/5 307/12/5
f 317/13/5 318/14/5 310/15/5 309/16/5
f 314/1/5 313/2/5 312/3/5 311/4/5
f 311/5/5 312/6/5 316/7/5 315/8/5
f 315/9/5 316/10/5 318/11/5 317/12/5
f 313/17/5 314/18/5 307/13/5 308/14/5
f 324/1/5 323/2/5 322/3/5 321/4/5
f 319/19/5 320/20/5 323/17/5 324/18/5
f 321/5/5 322/6/5 326/7/5 325/8/5
f 325/9/5 326/10/5 328/11/5 327/12/5
f 332/1/5 331/2/5 330/3/5 329/4/5
f 329/5/5 330/6/5 334/7/5 333/8/5
f 333/9/5 334/10/5 336/11/5 335/12/5
f 331/17/5 332/18/5 327/13/5 328/14/5
f 335/13/5 336/14/5 303/17/5 304/18/5
f 282/21/6 300/21/6 259/21/6 260/21/6
