# Blender 4.3.2
# www.blender.org
mtllib Door.mtl
o Door
v -2.000000 7.000000 0.016523
v 2.000000 7.000000 0.016523
v -2.000000 -0.001443 0.016523
v 2.000000 -0.001443 0.016523
v -1.362886 -0.001443 0.016523
v -1.362886 6.362885 0.016523
v 1.362886 6.362885 0.016523
v 1.362886 -0.001443 0.016523
v -1.362886 -0.001443 0.258383
v -1.362886 6.362885 0.258383
v 1.362886 6.362885 0.258383
v 1.362886 -0.001443 0.258383
v -2.000000 -0.001443 0.258382
v -2.000000 7.000000 0.258383
v 2.000000 7.000000 0.258383
v 2.000000 -0.001443 0.258382
v 0.547777 3.054515 0.177728
v 0.547777 3.306927 0.177728
v 1.200142 3.306927 0.177728
v 1.200142 3.054515 0.177728
v 0.547777 3.054515 -0.044368
v 0.547777 3.306927 -0.044368
v 1.200142 3.306927 -0.044368
v 1.200142 3.054515 -0.044368
vn -0.0000 -0.0000 1.0000
vn -0.0000 -1.0000 -0.0000
vn 1.0000 -0.0000 -0.0000
vn -0.0000 1.0000 -0.0000
vn -1.0000 -0.0000 -0.0000
vt 0.232325 0.450192
vt 0.232325 0.450962
vt 0.231995 0.450962
vt 0.231995 0.450192
vt 0.230751 0.482854
vt 0.230828 0.482854
vt 0.230751 0.482084
vt 0.230343 0.482854
vt 0.230421 0.482854
vt 0.230357 0.480902
vt 0.230434 0.480825
vt 0.230434 0.481673
vt 0.230357 0.481673
vt 0.230027 0.480902
vt 0.229950 0.480825
vt 0.230027 0.481673
vt 0.229950 0.481673
vt 0.230828 0.482007
vt 0.230343 0.482007
vt 0.230421 0.482084
vt 0.223826 0.283229
vt 0.223826 0.283259
vt 0.223747 0.283259
vt 0.223747 0.283229
s 0
usemtl Material
f 6/1/1 5/2/1 8/3/1 7/4/1
f 5/5/2 9/5/2 13/6/2 3/6/2
f 6/7/3 10/7/3 9/5/3 5/5/3
f 4/8/2 16/8/2 12/9/2 8/9/2
f 10/10/1 14/11/1 13/12/1 9/13/1
f 11/14/1 15/15/1 14/11/1 10/10/1
f 12/16/1 16/17/1 15/15/1 11/14/1
f 1/18/4 14/18/4 15/19/4 2/19/4
f 7/20/2 11/20/2 10/7/2 6/7/2
f 2/19/3 15/19/3 16/8/3 4/8/3
f 3/6/5 13/6/5 14/18/5 1/18/5
f 8/9/5 12/9/5 11/20/5 7/20/5
f 18/21/1 17/22/1 20/23/1 19/24/1
f 19/24/3 20/23/3 24/23/3 23/24/3
f 17/22/5 18/21/5 22/21/5 21/22/5
f 20/23/2 17/22/2 21/22/2 24/23/2
f 18/21/4 19/24/4 23/24/4 22/21/4
