# Blender 4.3.2
# www.blender.org
mtllib Fence.mtl
o Fence
v -2.679252 3.052950 4.607099
v -2.768450 3.032377 4.552328
v -2.941436 3.001875 4.552328
v -3.029041 2.991333 4.607099
v -2.768450 3.032377 4.859291
v -2.679252 3.052950 4.804520
v -3.029041 2.991333 4.804520
v -2.941436 3.001875 4.859291
v -2.804796 0.105710 4.552328
v -2.719159 0.104591 4.607099
v -2.817568 0.021024 4.607099
v -2.982550 0.105710 4.552328
v -2.997806 0.021024 4.607099
v -3.068593 0.104562 4.607099
v -2.804796 0.105710 4.859291
v -2.817568 0.021024 4.804520
v -2.719159 0.104591 4.804520
v -2.982550 0.105710 4.859291
v -3.068593 0.104562 4.804520
v -2.997806 0.021024 4.804520
v 3.048228 3.052950 4.607099
v 2.959029 3.032377 4.552328
v 2.786044 3.001875 4.552328
v 2.698439 2.991333 4.607099
v 2.959029 3.032377 4.859291
v 3.048228 3.052950 4.804520
v 2.698439 2.991333 4.804520
v 2.786044 3.001875 4.859291
v 2.922684 0.105710 4.552328
v 3.008321 0.104591 4.607099
v 2.909912 0.021024 4.607099
v 2.744930 0.105710 4.552328
v 2.729674 0.021024 4.607099
v 2.658888 0.104562 4.607099
v 2.922684 0.105710 4.859291
v 2.909912 0.021024 4.804520
v 3.008321 0.104591 4.804520
v 2.744930 0.105710 4.859291
v 2.658888 0.104562 4.804520
v 2.729674 0.021024 4.804520
v 3.192320 3.067561 4.516478
v 3.193439 3.153198 4.584042
v 3.277006 3.054790 4.584042
v 3.192320 2.889808 4.516478
v 3.277006 2.874551 4.584042
v 3.193468 2.803765 4.584042
v 3.192320 3.067561 4.895141
v 3.277006 3.054790 4.827577
v 3.193439 3.153198 4.827577
v 3.192320 2.889808 4.895141
v 3.193468 2.803765 4.827577
v 3.277006 2.874551 4.827577
v -3.172947 3.067561 4.516478
v -3.174066 3.153198 4.584042
v -3.257633 3.054790 4.584042
v -3.172947 2.889808 4.516478
v -3.257633 2.874551 4.584042
v -3.174095 2.803765 4.584042
v -3.172947 3.067561 4.895141
v -3.257633 3.054790 4.827577
v -3.174066 3.153198 4.827577
v -3.172947 2.889808 4.895141
v -3.174095 2.803765 4.827577
v -3.257633 2.874551 4.827577
v 3.192320 1.597621 4.516478
v 3.193439 1.683258 4.584042
v 3.277006 1.584850 4.584042
v 3.192320 1.419868 4.516478
v 3.277006 1.404611 4.584042
v 3.193468 1.333825 4.584042
v 3.192320 1.597621 4.895141
v 3.277006 1.584850 4.827577
v 3.193439 1.683258 4.827577
v 3.192320 1.419868 4.895141
v 3.193468 1.333825 4.827577
v 3.277006 1.404611 4.827577
v -3.172947 1.597621 4.516478
v -3.174066 1.683258 4.584042
v -3.257633 1.584850 4.584042
v -3.172947 1.419868 4.516478
v -3.257633 1.404611 4.584042
v -3.174095 1.333825 4.584042
v -3.172947 1.597621 4.895141
v -3.257633 1.584850 4.827577
v -3.174066 1.683258 4.827577
v -3.172947 1.419868 4.895141
v -3.174095 1.333825 4.827577
v -3.257633 1.404611 4.827577
vn -0.0000 -0.0000 1.0000
vn -0.0000 -0.0000 -1.0000
vn -0.9999 0.0137 -0.0000
vn -0.0000 -1.0000 -0.0000
vn 0.9999 -0.0135 -0.0000
vn 0.4514 -0.5316 -0.7167
vn -0.4855 -0.4114 -0.7714
vn 0.4514 -0.5316 0.7167
vn -0.4855 -0.4114 0.7714
vn -0.0000 -0.5431 -0.8397
vn -0.0000 -0.5431 0.8397
vn 0.6473 -0.7622 -0.0000
vn -0.7629 -0.6465 -0.0000
vn 0.5315 -0.0069 0.8470
vn 0.5315 -0.0069 -0.8470
vn -0.5339 0.0074 -0.8455
vn -0.5339 0.0074 0.8455
vn -0.1735 0.9848 -0.0000
vn 1.0000 -0.0000 -0.0000
vn 0.5856 0.4973 -0.6401
vn 0.4611 -0.5442 -0.7009
vn 0.5857 0.4973 0.6401
vn 0.4611 -0.5442 0.7009
vn 0.6237 -0.0000 -0.7817
vn 0.6237 -0.0000 0.7817
vn 0.7622 0.6473 -0.0000
vn 0.6465 -0.7629 -0.0000
vn -0.0000 1.0000 -0.0000
vn -1.0000 -0.0000 -0.0000
vn -0.5857 0.4973 -0.6401
vn -0.4611 -0.5442 -0.7009
vn -0.5857 0.4973 0.6401
vn -0.4611 -0.5442 0.7009
vn -0.6237 -0.0000 -0.7817
vn -0.6237 -0.0000 0.7817
vn -0.7622 0.6473 -0.0000
vn -0.6465 -0.7629 -0.0000
vn -0.0000 -0.6176 0.7865
vn -0.0000 -0.6176 -0.7865
vn -0.0000 0.6194 0.7851
vn -0.0000 0.6194 -0.7851
vn 0.5857 0.4973 -0.6401
vt 0.566755 0.387028
vt 0.566791 0.387042
vt 0.566938 0.388290
vt 0.566901 0.388279
vt 0.566834 0.387028
vt 0.566798 0.387015
vt 0.566942 0.388252
vt 0.566979 0.388264
vt 0.566817 0.387045
vt 0.566844 0.387036
vt 0.566989 0.388274
vt 0.566963 0.388291
vt 0.566974 0.388289
vt 0.566937 0.388278
vt 0.566911 0.388295
vt 0.566948 0.388306
vt 0.566772 0.387010
vt 0.566744 0.387018
vt 0.566890 0.388269
vt 0.566917 0.388252
s 0
usemtl Material
f 5/1/1 8/2/1 18/3/1 15/4/1
f 3/5/2 2/6/2 9/7/2 12/8/2
f 7/9/3 4/10/3 14/11/3 19/12/3
f 13/13/4 11/14/4 16/15/4 20/16/4
f 1/17/5 6/18/5 17/19/5 10/20/5
f 9/7/6 10/20/6 11/14/6
f 12/8/7 13/13/7 14/11/7
f 15/4/8 16/15/8 17/19/8
f 18/3/9 19/12/9 20/16/9
f 11/14/10 13/13/10 12/8/10 9/7/10
f 15/4/11 18/3/11 20/16/11 16/15/11
f 16/15/12 11/14/12 10/20/12 17/19/12
f 19/12/13 14/11/13 13/13/13 20/16/13
f 5/1/14 15/4/14 17/19/14 6/18/14
f 9/7/15 2/6/15 1/17/15 10/20/15
f 3/5/16 12/8/16 14/11/16 4/10/16
f 18/3/17 8/2/17 7/9/17 19/12/17
f 1/17/18 2/6/18 3/5/18 4/10/18 7/9/18 8/2/18 5/1/18 6/18/18
f 25/1/1 28/2/1 38/3/1 35/4/1
f 23/5/2 22/6/2 29/7/2 32/8/2
f 27/9/3 24/10/3 34/11/3 39/12/3
f 33/13/4 31/14/4 36/15/4 40/16/4
f 21/17/5 26/18/5 37/19/5 30/20/5
f 29/7/6 30/20/6 31/14/6
f 32/8/7 33/13/7 34/11/7
f 35/4/8 36/15/8 37/19/8
f 38/3/9 39/12/9 40/16/9
f 31/14/10 33/13/10 32/8/10 29/7/10
f 35/4/11 38/3/11 40/16/11 36/15/11
f 36/15/12 31/14/12 30/20/12 37/19/12
f 39/12/13 34/11/13 33/13/13 40/16/13
f 25/1/14 35/4/14 37/19/14 26/18/14
f 29/7/15 22/6/15 21/17/15 30/20/15
f 23/5/16 32/8/16 34/11/16 24/10/16
f 38/3/17 28/2/17 27/9/17 39/12/17
f 21/17/18 22/6/18 23/5/18 24/10/18 27/9/18 28/2/18 25/1/18 26/18/18
f 45/13/19 43/14/19 48/15/19 52/16/19
f 41/7/20 42/20/20 43/14/20
f 44/8/21 45/13/21 46/11/21
f 47/4/22 48/15/22 49/19/22
f 50/3/23 51/12/23 52/16/23
f 43/14/24 45/13/24 44/8/24 41/7/24
f 47/4/25 50/3/25 52/16/25 48/15/25
f 48/15/26 43/14/26 42/20/26 49/19/26
f 51/12/27 46/11/27 45/13/27 52/16/27
f 61/19/28 49/19/28 42/20/28 54/20/28
f 62/3/1 50/3/1 47/4/1 59/4/1
f 57/13/29 64/16/29 60/15/29 55/14/29
f 58/11/4 46/11/4 51/12/4 63/12/4
f 53/7/30 55/14/30 54/20/30
f 56/8/31 58/11/31 57/13/31
f 59/4/32 61/19/32 60/15/32
f 62/3/33 64/16/33 63/12/33
f 55/14/34 53/7/34 56/8/34 57/13/34
f 59/4/35 60/15/35 64/16/35 62/3/35
f 60/15/36 61/19/36 54/20/36 55/14/36
f 63/12/37 64/16/37 57/13/37 58/11/37
f 50/3/38 62/3/38 63/12/38 51/12/38
f 56/8/39 44/8/39 46/11/39 58/11/39
f 59/4/40 47/4/40 49/19/40 61/19/40
f 53/7/2 41/7/2 44/8/2 56/8/2
f 41/7/41 53/7/41 54/20/41 42/20/41
f 69/13/19 67/14/19 72/15/19 76/16/19
f 65/7/42 66/20/42 67/14/42
f 68/8/21 69/13/21 70/11/21
f 71/4/22 72/15/22 73/19/22
f 74/3/23 75/12/23 76/16/23
f 67/14/24 69/13/24 68/8/24 65/7/24
f 71/4/25 74/3/25 76/16/25 72/15/25
f 72/15/26 67/14/26 66/20/26 73/19/26
f 75/12/27 70/11/27 69/13/27 76/16/27
f 85/19/28 73/19/28 66/20/28 78/20/28
f 86/3/1 74/3/1 71/4/1 83/4/1
f 81/13/29 88/16/29 84/15/29 79/14/29
f 82/11/4 70/11/4 75/12/4 87/12/4
f 77/7/30 79/14/30 78/20/30
f 80/8/31 82/11/31 81/13/31
f 83/4/32 85/19/32 84/15/32
f 86/3/33 88/16/33 87/12/33
f 79/14/34 77/7/34 80/8/34 81/13/34
f 83/4/35 84/15/35 88/16/35 86/3/35
f 84/15/36 85/19/36 78/20/36 79/14/36
f 87/12/37 88/16/37 81/13/37 82/11/37
f 74/3/38 86/3/38 87/12/38 75/12/38
f 80/8/39 68/8/39 70/11/39 82/11/39
f 83/4/40 71/4/40 73/19/40 85/19/40
f 77/7/2 65/7/2 68/8/2 80/8/2
f 65/7/41 77/7/41 78/20/41 66/20/41
