# Blender 4.3.2
# www.blender.org
mtllib Floor_Base.mtl
o Floor_Base
v 4.915249 0.604868 -0.000000
v 4.615250 0.000000 -0.000000
v 4.200000 0.000000 -0.000000
v 4.500000 0.604868 -0.000000
v 5.415249 0.604868 -0.000000
v 5.165249 0.000000 -0.000000
v 5.850000 0.604868 -0.000000
v 5.625000 0.000000 -0.000000
v 8.000000 0.604868 -0.000000
v 8.000000 0.000000 -0.000000
v 6.915249 0.604868 -0.000000
v 6.615250 0.000000 -0.000000
v 6.200000 0.000000 -0.000000
v 6.500000 0.604868 -0.000000
v 7.415249 0.604868 -0.000000
v 7.165249 0.000000 -0.000000
v 7.850000 0.604868 -0.000000
v 7.625000 0.000000 -0.000000
v -0.000000 0.604868 -0.000000
v 0.000000 0.000000 0.000000
v 0.915249 0.604868 -0.000000
v 0.615249 0.000000 -0.000000
v 0.200000 0.000000 -0.000000
v 0.500000 0.604868 -0.000000
v 1.415249 0.604868 -0.000000
v 1.165249 0.000000 -0.000000
v 1.850000 0.604868 -0.000000
v 1.625000 0.000000 -0.000000
v 2.915249 0.604868 -0.000000
v 2.615249 0.000000 -0.000000
v 2.200000 0.000000 -0.000000
v 2.500000 0.604868 -0.000000
v 3.415249 0.604868 -0.000000
v 3.165249 0.000000 -0.000000
v 3.850000 0.604868 -0.000000
v 3.625000 0.000000 -0.000000
v 8.000000 0.600000 -0.000000
v 8.000000 0.000000 -0.000000
v -0.000000 0.600000 -0.000000
v 0.000000 0.000000 0.000000
v 8.000000 0.600000 -17.000000
v 8.000000 -0.000000 -17.000000
v -0.000000 0.600000 -17.000000
v -0.000000 -0.000000 -17.000000
v 3.446378 0.604868 -0.010591
v 3.365931 0.613051 -0.922703
v 3.781180 0.613051 -0.922703
v 3.861628 0.604868 -0.010591
v 2.914599 0.604868 -0.010591
v 2.815931 0.613051 -0.922703
v 2.479849 0.604868 -0.010591
v 2.356180 0.613051 -0.922703
v -0.018820 0.604868 -0.010591
v -0.018820 0.613051 -0.922704
v 1.445552 0.604868 -0.010591
v 1.365930 0.613051 -0.922703
v 1.781180 0.613051 -0.922703
v 1.860802 0.604868 -0.010591
v 0.941618 0.604868 -0.010591
v 0.815930 0.613051 -0.922704
v 0.506867 0.604868 -0.010591
v 0.356180 0.613051 -0.922704
v 7.981180 0.604868 -0.010590
v 7.981180 0.613051 -0.922703
v 7.433609 0.604868 -0.010590
v 7.365931 0.613051 -0.922703
v 7.781180 0.613051 -0.922703
v 7.848859 0.604868 -0.010590
v 6.913218 0.604868 -0.010590
v 6.815930 0.613051 -0.922703
v 6.478468 0.604868 -0.010590
v 6.356180 0.613051 -0.922703
v 5.420661 0.604868 -0.010590
v 5.365931 0.613051 -0.922703
v 5.781180 0.613051 -0.922703
v 5.835911 0.604868 -0.010590
v 4.936922 0.604868 -0.010590
v 4.815931 0.613051 -0.922703
v 4.502172 0.604868 -0.010590
v 4.356180 0.613051 -0.922703
v -0.000000 0.600000 -6.500000
v -0.000000 -0.000000 -6.500000
v 8.000000 -0.000000 -6.500000
v 8.000000 0.600000 -6.500000
v 0.573261 0.600000 -17.000000
v 0.352417 0.600000 -17.000000
v 0.352417 0.600000 -6.500000
v 0.573261 0.600000 -6.500000
v 0.352417 0.691680 -6.500000
v 0.352417 0.691680 -17.000000
v 0.573261 0.691680 -17.000000
v 0.573261 0.691680 -6.500000
v 1.173261 0.600000 -17.000000
v 0.952417 0.600000 -17.000000
v 0.952417 0.600000 -6.500000
v 1.173261 0.600000 -6.500000
v 0.952417 0.691680 -6.500000
v 0.952417 0.691680 -17.000000
v 1.173261 0.691680 -17.000000
v 1.173261 0.691680 -6.500000
v 1.873260 0.600000 -17.000000
v 1.652417 0.600000 -17.000000
v 1.652417 0.600000 -6.500000
v 1.873260 0.600000 -6.500000
v 1.652417 0.691680 -6.500000
v 1.652417 0.691680 -17.000000
v 1.873260 0.691680 -17.000000
v 1.873260 0.691680 -6.500000
v 2.473261 0.600000 -17.000000
v 2.252417 0.600000 -17.000000
v 2.252417 0.600000 -6.500000
v 2.473261 0.600000 -6.500000
v 2.252417 0.691680 -6.500000
v 2.252417 0.691680 -17.000000
v 2.473261 0.691680 -17.000000
v 2.473261 0.691680 -6.500000
v 3.173260 0.600000 -17.000000
v 2.952417 0.600000 -17.000000
v 2.952417 0.600000 -6.500000
v 3.173260 0.600000 -6.500000
v 2.952417 0.691680 -6.500000
v 2.952417 0.691680 -17.000000
v 3.173260 0.691680 -17.000000
v 3.173260 0.691680 -6.500000
v 3.773261 0.600000 -17.000000
v 3.552417 0.600000 -17.000000
v 3.552417 0.600000 -6.500000
v 3.773261 0.600000 -6.500000
v 3.552417 0.691680 -6.500000
v 3.552417 0.691680 -17.000000
v 3.773261 0.691680 -17.000000
v 3.773261 0.691680 -6.500000
v 4.473260 0.600000 -17.000000
v 4.252417 0.600000 -17.000000
v 4.252417 0.600000 -6.500000
v 4.473260 0.600000 -6.500000
v 4.252417 0.691680 -6.500000
v 4.252417 0.691680 -17.000000
v 4.473260 0.691680 -17.000000
v 4.473260 0.691680 -6.500000
v 5.073261 0.600000 -17.000000
v 4.852417 0.600000 -17.000000
v 4.852417 0.600000 -6.500000
v 5.073261 0.600000 -6.500000
v 4.852417 0.691680 -6.500000
v 4.852417 0.691680 -17.000000
v 5.073261 0.691680 -17.000000
v 5.073261 0.691680 -6.500000
v 5.773261 0.600000 -17.000000
v 5.552417 0.600000 -17.000000
v 5.552417 0.600000 -6.500000
v 5.773261 0.600000 -6.500000
v 5.552417 0.691680 -6.500000
v 5.552417 0.691680 -17.000000
v 5.773261 0.691680 -17.000000
v 5.773261 0.691680 -6.500000
v 6.373261 0.600000 -17.000000
v 6.152418 0.600000 -17.000000
v 6.152418 0.600000 -6.500000
v 6.373261 0.600000 -6.500000
v 6.152418 0.691680 -6.500000
v 6.152418 0.691680 -17.000000
v 6.373261 0.691680 -17.000000
v 6.373261 0.691680 -6.500000
v 7.073261 0.600000 -17.000000
v 6.852417 0.600000 -17.000000
v 6.852417 0.600000 -6.500000
v 7.073261 0.600000 -6.500000
v 6.852417 0.691680 -6.500000
v 6.852417 0.691680 -17.000000
v 7.073261 0.691680 -17.000000
v 7.073261 0.691680 -6.500000
v 7.673261 0.600000 -17.000000
v 7.452418 0.600000 -17.000000
v 7.452418 0.600000 -6.500000
v 7.673261 0.600000 -6.500000
v 7.452418 0.691680 -6.500000
v 7.452418 0.691680 -17.000000
v 7.673261 0.691680 -17.000000
v 7.673261 0.691680 -6.500000
v 4.915249 0.604868 -23.514744
v 4.615250 0.000000 -23.514744
v 4.200000 0.000000 -23.514744
v 4.500000 0.604868 -23.514744
v 5.415249 0.604868 -23.514744
v 5.165249 0.000000 -23.514744
v 5.850000 0.604868 -23.514744
v 5.625000 0.000000 -23.514744
v 8.000000 0.604868 -23.514744
v 8.000000 0.000000 -23.514744
v 6.915249 0.604868 -23.514744
v 6.615250 0.000000 -23.514744
v 6.200000 0.000000 -23.514744
v 6.500000 0.604868 -23.514744
v 7.415249 0.604868 -23.514744
v 7.165249 0.000000 -23.514744
v 7.850000 0.604868 -23.514744
v 7.625000 0.000000 -23.514744
v -0.000000 0.604868 -23.514744
v 0.000000 0.000000 -23.514744
v 0.915249 0.604868 -23.514744
v 0.615249 0.000000 -23.514744
v 0.200000 0.000000 -23.514744
v 0.500000 0.604868 -23.514744
v 1.415249 0.604868 -23.514744
v 1.165249 0.000000 -23.514744
v 1.850000 0.604868 -23.514744
v 1.625000 0.000000 -23.514744
v 2.915249 0.604868 -23.514744
v 2.615249 0.000000 -23.514744
v 2.200000 0.000000 -23.514744
v 2.500000 0.604868 -23.514744
v 3.415249 0.604868 -23.514744
v 3.165249 0.000000 -23.514744
v 3.850000 0.604868 -23.514744
v 3.625000 0.000000 -23.514744
v 8.000000 0.600000 -23.514744
v 8.000000 0.000000 -23.514744
v -0.000000 0.600000 -23.514744
v 0.000000 0.000000 -23.514744
v 3.446378 0.604868 -23.504154
v 3.365931 0.613051 -22.592041
v 3.781180 0.613051 -22.592041
v 3.861628 0.604868 -23.504154
v 2.914599 0.604868 -23.504154
v 2.815931 0.613051 -22.592041
v 2.479849 0.604868 -23.504154
v 2.356180 0.613051 -22.592041
v -0.018820 0.604868 -23.504154
v -0.018820 0.613051 -22.592041
v 1.445552 0.604868 -23.504154
v 1.365930 0.613051 -22.592041
v 1.781180 0.613051 -22.592041
v 1.860802 0.604868 -23.504154
v 0.941618 0.604868 -23.504154
v 0.815930 0.613051 -22.592041
v 0.506867 0.604868 -23.504154
v 0.356180 0.613051 -22.592041
v 7.981180 0.604868 -23.504154
v 7.981180 0.613051 -22.592041
v 7.433609 0.604868 -23.504154
v 7.365931 0.613051 -22.592041
v 7.781180 0.613051 -22.592041
v 7.848859 0.604868 -23.504154
v 6.913218 0.604868 -23.504154
v 6.815930 0.613051 -22.592041
v 6.478468 0.604868 -23.504154
v 6.356180 0.613051 -22.592041
v 5.420661 0.604868 -23.504154
v 5.365931 0.613051 -22.592041
v 5.781180 0.613051 -22.592041
v 5.835911 0.604868 -23.504154
v 4.936922 0.604868 -23.504154
v 4.815931 0.613051 -22.592041
v 4.502172 0.604868 -23.504154
v 4.356180 0.613051 -22.592041
v 0.000000 0.600000 -17.014746
v 0.000000 0.000000 -17.014746
v 8.000000 0.000000 -17.014746
v 8.000000 0.600000 -17.014746
vn -0.0000 -0.0000 1.0000
vn -1.0000 -0.0000 -0.0000
vn 1.0000 -0.0000 -0.0000
vn -0.0000 1.0000 -0.0000
vn -0.0000 -1.0000 -0.0000
vn -0.0000 -0.0000 -1.0000
vn -0.0000 1.0000 0.0090
vn -0.0000 1.0000 -0.0090
vt 0.440733 0.329441
vt 0.444928 0.327465
vt 0.444861 0.330335
vt 0.440666 0.332311
vt 0.298791 0.283249
vt 0.302986 0.281272
vt 0.302897 0.285073
vt 0.298710 0.286704
vt 0.438085 0.330142
vt 0.442272 0.328511
vt 0.442198 0.331688
vt 0.438015 0.333146
vt 0.298640 0.289709
vt 0.302823 0.288251
vt 0.302762 0.290842
vt 0.298615 0.290745
vt 0.303053 0.278403
vt 0.298858 0.280379
vt 0.298939 0.276923
vt 0.303085 0.277020
vt 0.000000 0.000000
vt 0.305000 0.316250
vt 0.403437 0.099062
s 0
usemtl Material
f 4/1/1 3/2/1 2/3/1 1/4/1
f 1/5/1 2/6/1 6/7/1 5/8/1
f 5/9/1 6/10/1 8/11/1 7/12/1
f 17/13/1 18/14/1 10/15/1 9/16/1
f 14/1/1 13/2/1 12/3/1 11/4/1
f 11/5/1 12/6/1 16/7/1 15/8/1
f 15/9/1 16/10/1 18/11/1 17/12/1
f 13/17/1 14/18/1 7/13/1 8/14/1
f 24/1/1 23/2/1 22/3/1 21/4/1
f 19/19/1 20/20/1 23/17/1 24/18/1
f 21/5/1 22/6/1 26/7/1 25/8/1
f 25/9/1 26/10/1 28/11/1 27/12/1
f 32/1/1 31/2/1 30/3/1 29/4/1
f 29/5/1 30/6/1 34/7/1 33/8/1
f 33/9/1 34/10/1 36/11/1 35/12/1
f 31/17/1 32/18/1 27/13/1 28/14/1
f 35/13/1 36/14/1 3/17/1 4/18/1
f 82/21/2 81/21/2 43/21/2 44/21/2
f 84/21/3 83/21/3 42/21/3 41/21/3
f 81/21/4 84/21/4 41/21/4 43/21/4
f 82/22/5 83/22/5 38/22/5 40/22/5
f 41/21/6 42/21/6 44/21/6 43/21/6
f 48/1/7 47/2/7 46/3/7 45/4/7
f 45/5/7 46/6/7 50/7/7 49/8/7
f 49/9/7 50/10/7 52/11/7 51/12/7
f 61/13/7 62/14/7 54/15/7 53/16/7
f 58/1/7 57/2/7 56/3/7 55/4/7
f 55/5/7 56/6/7 60/7/7 59/8/7
f 59/9/7 60/10/7 62/11/7 61/12/7
f 57/17/7 58/18/7 51/13/7 52/14/7
f 68/1/7 67/2/7 66/3/7 65/4/7
f 63/19/7 64/20/7 67/17/7 68/18/7
f 65/5/7 66/6/7 70/7/7 69/8/7
f 69/9/7 70/10/7 72/11/7 71/12/7
f 76/1/7 75/2/7 74/3/7 73/4/7
f 73/5/7 74/6/7 78/7/7 77/8/7
f 77/9/7 78/10/7 80/11/7 79/12/7
f 75/17/7 76/18/7 71/13/7 72/14/7
f 79/13/7 80/14/7 47/17/7 48/18/7
f 44/21/5 42/21/5 83/21/5 82/21/5
f 39/22/4 37/22/4 84/22/4 81/22/4
f 37/22/3 38/22/3 83/22/3 84/22/3
f 40/22/2 39/22/2 81/22/2 82/22/2
f 87/23/5 86/23/5 85/23/5 88/23/5
f 89/23/4 92/23/4 91/23/4 90/23/4
f 87/23/1 88/23/1 92/23/1 89/23/1
f 85/23/6 86/23/6 90/23/6 91/23/6
f 88/23/3 85/23/3 91/23/3 92/23/3
f 86/23/2 87/23/2 89/23/2 90/23/2
f 95/23/5 94/23/5 93/23/5 96/23/5
f 97/23/4 100/23/4 99/23/4 98/23/4
f 95/23/1 96/23/1 100/23/1 97/23/1
f 93/23/6 94/23/6 98/23/6 99/23/6
f 96/23/3 93/23/3 99/23/3 100/23/3
f 94/23/2 95/23/2 97/23/2 98/23/2
f 103/23/5 102/23/5 101/23/5 104/23/5
f 105/23/4 108/23/4 107/23/4 106/23/4
f 103/23/1 104/23/1 108/23/1 105/23/1
f 101/23/6 102/23/6 106/23/6 107/23/6
f 104/23/3 101/23/3 107/23/3 108/23/3
f 102/23/2 103/23/2 105/23/2 106/23/2
f 111/23/5 110/23/5 109/23/5 112/23/5
f 113/23/4 116/23/4 115/23/4 114/23/4
f 111/23/1 112/23/1 116/23/1 113/23/1
f 109/23/6 110/23/6 114/23/6 115/23/6
f 112/23/3 109/23/3 115/23/3 116/23/3
f 110/23/2 111/23/2 113/23/2 114/23/2
f 119/23/5 118/23/5 117/23/5 120/23/5
f 121/23/4 124/23/4 123/23/4 122/23/4
f 119/23/1 120/23/1 124/23/1 121/23/1
f 117/23/6 118/23/6 122/23/6 123/23/6
f 120/23/3 117/23/3 123/23/3 124/23/3
f 118/23/2 119/23/2 121/23/2 122/23/2
f 127/23/5 126/23/5 125/23/5 128/23/5
f 129/23/4 132/23/4 131/23/4 130/23/4
f 127/23/1 128/23/1 132/23/1 129/23/1
f 125/23/6 126/23/6 130/23/6 131/23/6
f 128/23/3 125/23/3 131/23/3 132/23/3
f 126/23/2 127/23/2 129/23/2 130/23/2
f 135/23/5 134/23/5 133/23/5 136/23/5
f 137/23/4 140/23/4 139/23/4 138/23/4
f 135/23/1 136/23/1 140/23/1 137/23/1
f 133/23/6 134/23/6 138/23/6 139/23/6
f 136/23/3 133/23/3 139/23/3 140/23/3
f 134/23/2 135/23/2 137/23/2 138/23/2
f 143/23/5 142/23/5 141/23/5 144/23/5
f 145/23/4 148/23/4 147/23/4 146/23/4
f 143/23/1 144/23/1 148/23/1 145/23/1
f 141/23/6 142/23/6 146/23/6 147/23/6
f 144/23/3 141/23/3 147/23/3 148/23/3
f 142/23/2 143/23/2 145/23/2 146/23/2
f 151/23/5 150/23/5 149/23/5 152/23/5
f 153/23/4 156/23/4 155/23/4 154/23/4
f 151/23/1 152/23/1 156/23/1 153/23/1
f 149/23/6 150/23/6 154/23/6 155/23/6
f 152/23/3 149/23/3 155/23/3 156/23/3
f 150/23/2 151/23/2 153/23/2 154/23/2
f 159/23/5 158/23/5 157/23/5 160/23/5
f 161/23/4 164/23/4 163/23/4 162/23/4
f 159/23/1 160/23/1 164/23/1 161/23/1
f 157/23/6 158/23/6 162/23/6 163/23/6
f 160/23/3 157/23/3 163/23/3 164/23/3
f 158/23/2 159/23/2 161/23/2 162/23/2
f 167/23/5 166/23/5 165/23/5 168/23/5
f 169/23/4 172/23/4 171/23/4 170/23/4
f 167/23/1 168/23/1 172/23/1 169/23/1
f 165/23/6 166/23/6 170/23/6 171/23/6
f 168/23/3 165/23/3 171/23/3 172/23/3
f 166/23/2 167/23/2 169/23/2 170/23/2
f 175/23/5 174/23/5 173/23/5 176/23/5
f 177/23/4 180/23/4 179/23/4 178/23/4
f 175/23/1 176/23/1 180/23/1 177/23/1
f 173/23/6 174/23/6 178/23/6 179/23/6
f 176/23/3 173/23/3 179/23/3 180/23/3
f 174/23/2 175/23/2 177/23/2 178/23/2
f 184/1/6 181/4/6 182/3/6 183/2/6
f 181/5/6 185/8/6 186/7/6 182/6/6
f 185/9/6 187/12/6 188/11/6 186/10/6
f 197/13/6 189/16/6 190/15/6 198/14/6
f 194/1/6 191/4/6 192/3/6 193/2/6
f 191/5/6 195/8/6 196/7/6 192/6/6
f 195/9/6 197/12/6 198/11/6 196/10/6
f 193/17/6 188/14/6 187/13/6 194/18/6
f 204/1/6 201/4/6 202/3/6 203/2/6
f 199/19/6 204/18/6 203/17/6 200/20/6
f 201/5/6 205/8/6 206/7/6 202/6/6
f 205/9/6 207/12/6 208/11/6 206/10/6
f 212/1/6 209/4/6 210/3/6 211/2/6
f 209/5/6 213/8/6 214/7/6 210/6/6
f 213/9/6 215/12/6 216/11/6 214/10/6
f 211/17/6 208/14/6 207/13/6 212/18/6
f 215/13/6 184/18/6 183/17/6 216/14/6
f 258/22/5 220/22/5 218/22/5 259/22/5
f 224/1/8 221/4/8 222/3/8 223/2/8
f 221/5/8 225/8/8 226/7/8 222/6/8
f 225/9/8 227/12/8 228/11/8 226/10/8
f 237/13/8 229/16/8 230/15/8 238/14/8
f 234/1/8 231/4/8 232/3/8 233/2/8
f 231/5/8 235/8/8 236/7/8 232/6/8
f 235/9/8 237/12/8 238/11/8 236/10/8
f 233/17/8 228/14/8 227/13/8 234/18/8
f 244/1/8 241/4/8 242/3/8 243/2/8
f 239/19/8 244/18/8 243/17/8 240/20/8
f 241/5/8 245/8/8 246/7/8 242/6/8
f 245/9/8 247/12/8 248/11/8 246/10/8
f 252/1/8 249/4/8 250/3/8 251/2/8
f 249/5/8 253/8/8 254/7/8 250/6/8
f 253/9/8 255/12/8 256/11/8 254/10/8
f 251/17/8 248/14/8 247/13/8 252/18/8
f 255/13/8 224/18/8 223/17/8 256/14/8
f 219/22/4 257/22/4 260/22/4 217/22/4
f 217/22/3 260/22/3 259/22/3 218/22/3
f 220/22/2 258/22/2 257/22/2 219/22/2
