# Blender 4.3.2
# www.blender.org
mtllib Floor_Brakeable Pice1.mtl
o Floor_Brakeable_Pice1
v -0.001388 0.690467 -6.581152
v -0.001272 0.090670 -6.596749
v 7.998670 0.092999 -6.626937
v 7.998555 0.692796 -6.611342
v 2.001657 0.342989 -5.804740
v 4.001580 0.671026 -5.803773
v 5.997435 0.700013 -6.896851
v 2.001709 0.070647 -5.811822
v 4.001696 0.071229 -5.819369
v 5.998685 0.092417 -6.619390
v -0.022016 0.832319 -11.911263
v -0.021900 0.232522 -11.926861
v 7.978042 0.234851 -11.957048
v 7.977926 0.834648 -11.941453
v 2.087240 0.846304 -12.433426
v 4.002643 0.664337 -12.942396
v 5.977941 0.834066 -11.933906
v 2.087356 0.246507 -12.449022
v 3.972711 0.270544 -13.359468
v 5.978057 0.234269 -11.949501
vn 0.2238 0.0893 0.9705
vn 0.1936 0.2082 0.9587
vn 0.1807 0.2087 0.9612
vn 0.2362 0.0959 0.9670
vn -0.1871 -0.0256 0.9820
vn -0.1875 -0.0256 0.9819
vn -0.3650 -0.0243 0.9307
vn -0.0674 0.2114 0.9751
vn 0.4804 0.3380 -0.8093
vn 0.2564 0.1950 -0.9467
vn 0.2628 0.1992 -0.9441
vn -0.2804 0.2149 -0.9355
vn -0.2794 0.2098 -0.9369
vn -0.3083 0.3876 -0.8688
vn -0.2404 0.0252 -0.9704
vn -0.0038 0.0260 -0.9997
vn -1.0000 -0.0003 0.0039
vn 0.0002 -0.9996 -0.0265
vn 0.0001 -0.9996 -0.0265
vn 0.0183 0.9988 0.0444
vn -0.0401 0.9989 0.0248
vn -0.0407 0.9989 0.0239
vn 0.0160 0.9989 0.0440
vn 0.0774 0.9955 0.0541
vn -0.0267 0.9995 0.0180
vn -0.0274 0.9995 0.0178
vn 0.0002 -0.9996 -0.0266
vn 1.0000 0.0003 -0.0039
vn -0.0002 0.9996 0.0266
vt 0.305000 0.316250
vt 0.305000 0.316250
s 1
usemtl Material
f 9/1/1 10/1/2 7/2/3 6/1/4
f 8/1/5 9/1/1 6/1/4 5/2/6
f 2/1/7 8/1/5 5/2/6 1/1/7
f 10/1/2 3/1/8 4/1/8 7/2/3
f 19/1/9 16/1/9 17/1/10 20/1/11
f 18/1/12 15/1/13 16/1/14 19/1/14
f 12/1/15 11/1/15 15/1/13 18/1/12
f 20/1/11 17/1/10 14/1/16 13/1/16
f 2/1/17 1/1/17 11/1/17 12/1/17
f 9/1/18 8/1/18 18/1/19 19/1/18
f 8/1/18 2/1/18 12/1/18 18/1/19
f 5/2/20 6/1/21 16/1/22 15/1/23
f 10/1/18 9/1/18 19/1/18 20/1/18
f 1/1/24 5/2/20 15/1/23 11/1/24
f 6/1/21 7/2/25 17/1/26 16/1/22
f 3/1/27 10/1/18 20/1/18 13/1/27
f 4/1/28 3/1/28 13/1/28 14/1/28
f 7/2/25 4/1/29 14/1/29 17/1/26
