# Blender 4.3.2
# www.blender.org
mtllib Lever_Handel.mtl
o Lever_Handel
v 0.147087 0.144465 0.328466
v 0.147087 0.011947 0.088563
v 0.147087 0.751951 0.088563
v 0.147087 0.751951 -0.088563
v 0.147087 0.011947 -0.088563
v 0.147087 0.124772 -0.262272
v -0.153703 0.124772 -0.262272
v -0.153703 0.011947 -0.088563
v -0.153703 0.751951 -0.088563
v -0.153703 0.144465 0.328466
v -0.153703 0.751951 0.088563
v -0.153703 0.011947 0.088563
v -0.150688 2.107202 0.088563
v -0.088563 2.107202 0.150688
v -0.082773 2.137820 0.138317
v -0.138317 2.137820 0.082773
v -0.150688 2.107202 -0.088563
v -0.138317 2.137820 -0.082773
v -0.082773 2.137820 -0.138317
v -0.088563 2.107202 -0.150688
v 0.138317 2.137820 -0.082773
v 0.150688 2.107202 -0.088563
v 0.088563 2.107202 -0.150688
v 0.082773 2.137820 -0.138317
v 0.150688 2.107202 0.088563
v 0.138317 2.137820 0.082773
v 0.082773 2.137820 0.138317
v 0.088563 2.107202 0.150688
v -0.119032 2.967799 0.181157
v -0.119032 3.029924 0.119032
v -0.181157 2.967799 0.119032
v 0.119032 2.967799 0.181157
v 0.181157 2.967799 0.119032
v 0.119032 3.029924 0.119032
v 0.181157 2.967799 -0.119032
v 0.119032 2.967799 -0.181157
v 0.119032 3.029924 -0.119032
v -0.119032 2.967799 -0.181157
v -0.181157 2.967799 -0.119032
v -0.119032 3.029924 -0.119032
v -0.127615 2.182904 0.045601
v -0.045601 2.182904 0.127615
v -0.119032 2.213522 0.181157
v -0.181157 2.213522 0.119032
v -0.127615 2.182904 -0.045601
v -0.181157 2.213522 -0.119032
v -0.119032 2.213522 -0.181157
v -0.045601 2.182904 -0.127615
v 0.127615 2.182904 -0.045601
v 0.045601 2.182904 -0.127615
v 0.119032 2.213522 -0.181157
v 0.181157 2.213522 -0.119032
v 0.127615 2.182904 0.045601
v 0.181157 2.213522 0.119032
v 0.119032 2.213522 0.181157
v 0.045601 2.182904 0.127615
v -0.153703 1.126100 -0.150688
v -0.153703 1.126100 -0.088563
v 0.147087 1.126100 0.150688
v 0.147087 1.126100 0.088563
v -0.153703 1.126100 0.150688
v -0.153703 1.126100 0.088563
v 0.147087 1.126100 -0.150688
v 0.147087 1.126100 -0.088563
v 0.147087 0.401028 0.637639
v -0.153703 0.401028 0.637639
v -0.153703 0.401028 -0.637639
v 0.147087 0.401028 -0.637639
v -0.153703 0.852675 -0.637639
v 0.147087 0.852675 0.637639
v -0.153703 0.852675 0.637639
v 0.147087 0.852675 -0.637639
vn 1.0000 -0.0037 -0.0000
vn -0.0000 -0.0000 1.0000
vn 0.9730 0.2310 -0.0000
vn -0.0000 0.2310 -0.9730
vn -0.9730 0.2310 -0.0000
vn -0.0000 -1.0000 -0.0000
vn -1.0000 0.0031 -0.0000
vn -0.0000 -0.0000 -1.0000
vn -0.0000 0.2310 0.9730
vn -1.0000 -0.0000 -0.0000
vn 1.0000 -0.0000 -0.0000
vn -0.0000 1.0000 -0.0000
vn -0.6521 0.3868 0.6521
vn -0.6521 0.3868 -0.6521
vn 0.6521 0.3868 -0.6521
vn 0.6521 0.3868 0.6521
vn -0.5774 0.5773 0.5774
vn 0.5774 0.5773 0.5774
vn 0.5774 0.5773 -0.5774
vn -0.5774 0.5773 -0.5774
vn -0.2282 -0.9465 0.2282
vn -0.2282 -0.9465 -0.2282
vn 0.2282 -0.9465 -0.2282
vn 0.2282 -0.9465 0.2282
vn -0.0000 -0.8753 0.4835
vn -0.0000 -0.8386 -0.5447
vn 0.5655 0.6004 -0.5655
vn -0.5655 0.6004 -0.5655
vn -0.8940 0.0311 0.4470
vn -0.5655 0.6004 0.5655
vn 0.8941 0.0250 -0.4471
vn 0.5655 0.6004 0.5655
vn -0.0000 0.3746 0.9272
vn -0.0000 0.3746 -0.9272
vn 0.9272 0.3746 -0.0000
vn -0.9272 0.3746 -0.0000
vn -0.0000 0.7071 0.7071
vn 0.7071 0.7071 -0.0000
vn -0.0000 0.7071 -0.7071
vn -0.7071 0.7071 -0.0000
vn -0.7071 -0.0000 0.7071
vn 0.7071 -0.0000 -0.7071
vn -0.7071 -0.0000 -0.7071
vn 0.7071 -0.0000 0.7071
vn -0.0000 -0.8681 0.4964
vn -0.0000 -0.8681 -0.4964
vn 0.4964 -0.8681 -0.0000
vn -0.4964 -0.8681 -0.0000
vn -0.0000 -0.8054 -0.5927
vn 0.8941 0.0250 0.4471
vn -0.8940 0.0311 -0.4470
vn -0.0000 0.8719 -0.4896
vn -0.0000 -0.7695 0.6386
vn -0.0000 0.8719 0.4896
vt 0.528938 0.298261
vt 0.528462 0.298463
vt 0.528464 0.304806
vt 0.528949 0.304811
vt 0.340111 0.290640
vt 0.342847 0.290640
vt 0.342832 0.299405
vt 0.340078 0.299405
vt 0.528857 0.305019
vt 0.528405 0.305008
vt 0.528438 0.305312
vt 0.528686 0.305323
vt 0.527926 0.305006
vt 0.526913 0.305011
vt 0.527167 0.305312
vt 0.527727 0.305306
vt 0.526699 0.305017
vt 0.527108 0.305028
vt 0.527080 0.305338
vt 0.526854 0.305327
vt 0.528949 0.291128
vt 0.527127 0.290769
vt 0.526706 0.291208
vt 0.528483 0.291545
vt 0.526645 0.298300
vt 0.527073 0.298088
vt 0.527044 0.304815
vt 0.526609 0.304810
vt 0.528302 0.298530
vt 0.526502 0.298371
vt 0.526850 0.304807
vt 0.527930 0.304805
vt 0.527612 0.305031
vt 0.528668 0.305025
vt 0.528403 0.305338
vt 0.527822 0.305344
vt 0.339736 0.290361
vt 0.339471 0.290580
vt 0.339434 0.299231
vt 0.339702 0.298603
vt 0.343581 0.290580
vt 0.343654 0.290361
vt 0.343645 0.298603
vt 0.343571 0.299231
vt 0.343008 0.290307
vt 0.340465 0.290307
vt 0.340436 0.298449
vt 0.342995 0.298449
vt 0.342860 0.299949
vt 0.342968 0.299287
vt 0.340376 0.299287
vt 0.340140 0.299949
vt 0.529630 0.291387
vt 0.528942 0.295831
vt 0.528469 0.296106
vt 0.528050 0.292597
vt 0.526312 0.292296
vt 0.526666 0.295883
vt 0.527737 0.291018
vt 0.527092 0.295593
vt 0.527609 0.304816
vt 0.528739 0.304813
vt 0.340155 0.290166
vt 0.341002 0.290239
vt 0.340246 0.290089
vt 0.341210 0.290021
vt 0.343045 0.290089
vt 0.342194 0.290021
vt 0.343006 0.290166
vt 0.342039 0.290239
vt 0.529112 0.298188
vt 0.527230 0.298010
vt 0.525530 0.294638
vt 0.527190 0.294869
vt 0.528616 0.291996
vt 0.528608 0.295298
vt 0.530612 0.292363
vt 0.530624 0.295571
vt 0.525498 0.297266
vt 0.527172 0.297438
s 0
usemtl Material
f 60/1/1 64/2/1 22/3/1 25/4/1
f 43/5/2 55/6/2 32/7/2 29/8/2
f 26/9/3 21/10/3 49/11/3 53/12/3
f 24/13/4 19/14/4 48/15/4 50/16/4
f 18/17/5 16/18/5 41/19/5 45/20/5
f 2/21/6 12/22/6 8/23/6 5/24/6
f 58/25/7 62/26/7 13/27/7 17/28/7
f 63/29/8 57/30/8 20/31/8 23/32/8
f 15/33/9 27/34/9 56/35/9 42/36/9
f 46/37/10 44/38/10 31/39/10 39/40/10
f 54/41/11 52/42/11 35/43/11 33/44/11
f 51/45/8 47/46/8 38/47/8 36/48/8
f 34/49/12 37/50/12 40/51/12 30/52/12
f 1/53/11 2/21/11 3/54/11
f 4/55/11 5/24/11 6/56/11
f 7/57/10 8/23/10 9/58/10
f 10/59/10 11/60/10 12/22/10
f 13/27/13 14/61/13 15/33/13 16/18/13
f 17/28/14 18/17/14 19/14/14 20/31/14
f 21/10/15 22/3/15 23/32/15 24/13/15
f 25/4/16 26/9/16 27/34/16 28/62/16
f 29/8/17 30/52/17 31/39/17
f 32/7/18 33/44/18 34/49/18
f 35/43/19 36/48/19 37/50/19
f 38/47/20 39/40/20 40/51/20
f 41/63/21 42/64/21 43/5/21 44/38/21
f 45/65/22 46/37/22 47/46/22 48/66/22
f 49/67/23 50/68/23 51/45/23 52/42/23
f 53/69/24 54/41/24 55/6/24 56/70/24
f 12/22/25 2/21/25 1/53/25 10/59/25
f 2/21/11 5/24/11 4/55/11 3/54/11
f 5/24/26 8/23/26 7/57/26 6/56/26
f 8/23/10 12/22/10 11/60/10 9/58/10
f 49/11/27 21/10/27 24/13/27 50/16/27
f 57/30/10 7/57/10 9/58/10 58/25/10
f 48/15/28 19/14/28 18/17/28 45/20/28
f 59/71/11 1/53/11 3/54/11 60/1/11
f 61/72/29 14/61/29 13/27/29 62/26/29
f 41/19/30 16/18/30 15/33/30 42/36/30
f 63/29/31 23/32/31 22/3/31 64/2/31
f 26/9/32 53/12/32 56/35/32 27/34/32
f 27/34/33 15/33/33 14/61/33 28/62/33
f 19/14/34 24/13/34 23/32/34 20/31/34
f 21/10/35 26/9/35 25/4/35 22/3/35
f 16/18/36 18/17/36 17/28/36 13/27/36
f 29/8/37 32/7/37 34/49/37 30/52/37
f 33/44/38 35/43/38 37/50/38 34/49/38
f 36/48/39 38/47/39 40/51/39 37/50/39
f 39/40/40 31/39/40 30/52/40 40/51/40
f 43/5/41 29/8/41 31/39/41 44/38/41
f 51/45/42 36/48/42 35/43/42 52/42/42
f 38/47/43 47/46/43 46/37/43 39/40/43
f 32/7/44 55/6/44 54/41/44 33/44/44
f 55/6/45 43/5/45 42/64/45 56/70/45
f 47/46/46 51/45/46 50/68/46 48/66/46
f 52/42/47 54/41/47 53/69/47 49/67/47
f 44/38/48 46/37/48 45/65/48 41/63/48
f 61/72/2 59/71/2 28/62/2 14/61/2
f 6/56/49 7/57/49 67/73/49 68/74/49
f 6/56/11 63/29/11 64/2/11 4/55/11
f 10/59/10 61/72/10 62/26/10 11/60/10
f 28/62/50 59/71/50 60/1/50 25/4/50
f 20/31/51 57/30/51 58/25/51 17/28/51
f 61/72/10 10/59/10 66/75/10 71/76/10
f 9/58/10 11/60/10 62/26/10 58/25/10
f 3/54/11 4/55/11 64/2/11 60/1/11
f 66/75/2 65/77/2 70/78/2 71/76/2
f 68/74/8 67/73/8 69/79/8 72/80/8
f 57/30/52 63/29/52 72/80/52 69/79/52
f 1/53/11 59/71/11 70/78/11 65/77/11
f 10/59/53 1/53/53 65/77/53 66/75/53
f 7/57/10 57/30/10 69/79/10 67/73/10
f 59/71/54 61/72/54 71/76/54 70/78/54
f 63/29/11 6/56/11 68/74/11 72/80/11
