# Blender 4.3.2
# www.blender.org
mtllib Platform_Flat.mtl
o Floor_Base.032
v 4.915837 0.604869 -0.002524
v 4.615838 0.000001 -0.002524
v 4.200587 0.000001 -0.002524
v 4.500588 0.604868 -0.002524
v 5.415837 0.604869 -0.002523
v 5.165838 0.000001 -0.002523
v 5.850588 0.604869 -0.002523
v 5.625588 0.000001 -0.002523
v 8.000587 0.604869 -0.002523
v 6.915837 0.604869 -0.002523
v 6.615837 0.000001 -0.002523
v 6.200588 0.000001 -0.002523
v 6.500588 0.604869 -0.002523
v 7.415838 0.604869 -0.002523
v 7.165837 0.000001 -0.002523
v 7.850587 0.604869 -0.002523
v 7.625588 0.000001 -0.002523
v 0.000587 0.604868 -0.002524
v 0.915837 0.604868 -0.002524
v 0.615836 0.000000 -0.002524
v 0.200587 0.000000 -0.002524
v 0.500588 0.604868 -0.002524
v 1.415838 0.604868 -0.002524
v 1.165839 0.000000 -0.002524
v 1.850587 0.604868 -0.002524
v 1.625588 0.000000 -0.002524
v 2.915838 0.604868 -0.002524
v 2.615837 0.000000 -0.002524
v 2.200588 0.000000 -0.002524
v 2.500589 0.604868 -0.002524
v 3.415837 0.604868 -0.002524
v 3.165837 0.000000 -0.002524
v 3.850588 0.604868 -0.002524
v 3.625587 0.000000 -0.002524
v 8.000587 0.600001 -0.002523
v 8.000587 0.000001 -0.002523
v 0.000587 0.600000 -0.002524
v 0.000587 0.000000 -0.002524
v 3.446967 0.604868 -0.013114
v 3.366519 0.613051 -0.925227
v 3.781768 0.613051 -0.925226
v 3.862216 0.604868 -0.013114
v 2.915188 0.604868 -0.013114
v 2.816518 0.613051 -0.925227
v 2.480436 0.604868 -0.013114
v 2.356768 0.613051 -0.925227
v -0.018232 0.604868 -0.013116
v -0.018232 0.613051 -0.925227
v 1.446139 0.604868 -0.013114
v 1.366519 0.613051 -0.925227
v 1.781768 0.613051 -0.925227
v 1.861390 0.604868 -0.013114
v 0.942204 0.604868 -0.013116
v 0.816519 0.613051 -0.925227
v 0.507454 0.604868 -0.013116
v 0.356767 0.613051 -0.925227
v 7.981768 0.604869 -0.013113
v 7.981768 0.613052 -0.925226
v 7.434197 0.604869 -0.013113
v 7.366519 0.613052 -0.925226
v 7.781768 0.613052 -0.925226
v 7.849447 0.604869 -0.013113
v 6.913807 0.604869 -0.013113
v 6.816518 0.613052 -0.925226
v 6.479056 0.604869 -0.013113
v 6.356767 0.613052 -0.925226
v 5.421250 0.604869 -0.013114
v 5.366518 0.613052 -0.925226
v 5.781769 0.613052 -0.925226
v 5.836499 0.604869 -0.013113
v 4.937510 0.604869 -0.013114
v 4.816518 0.613052 -0.925226
v 4.502760 0.604868 -0.013114
v 4.356768 0.613052 -0.925226
v 3.095906 0.604867 -9.475389
v 3.395906 -0.000001 -9.475389
v 3.811157 -0.000001 -9.475389
v 3.511155 0.604867 -9.475389
v 2.595907 0.604867 -9.475389
v 2.845906 -0.000001 -9.475389
v 2.161156 0.604867 -9.475389
v 2.386155 -0.000001 -9.475389
v 0.011155 0.604866 -9.475389
v 0.011155 -0.000002 -9.475389
v 1.095906 0.604866 -9.475389
v 1.395907 -0.000001 -9.475389
v 1.811156 -0.000001 -9.475389
v 1.511155 0.604867 -9.475389
v 0.595906 0.604866 -9.475389
v 0.845907 -0.000001 -9.475389
v 0.161156 0.604866 -9.475389
v 0.386155 -0.000002 -9.475389
v 8.011156 0.604867 -9.475389
v 8.011156 -0.000001 -9.475389
v 7.095907 0.604867 -9.475389
v 7.395908 -0.000001 -9.475389
v 7.811157 -0.000001 -9.475389
v 7.511156 0.604867 -9.475389
v 6.595906 0.604867 -9.475389
v 6.845905 -0.000001 -9.475389
v 6.161157 0.604867 -9.475389
v 6.386156 -0.000001 -9.475389
v 5.095906 0.604867 -9.475389
v 5.395907 -0.000001 -9.475389
v 5.811156 -0.000001 -9.475389
v 5.511155 0.604867 -9.475389
v 4.595907 0.604867 -9.475389
v 4.845907 -0.000001 -9.475389
v 4.161156 0.604867 -9.475389
v 4.386157 -0.000001 -9.475389
v 0.011155 0.599998 -9.475389
v 8.011156 0.599999 -9.475389
v 4.564777 0.604867 -9.464798
v 4.645225 0.613050 -8.552686
v 4.229976 0.613050 -8.552686
v 4.149529 0.604867 -9.464798
v 5.096556 0.604867 -9.464798
v 5.195226 0.613050 -8.552686
v 5.531308 0.604867 -9.464798
v 5.654975 0.613050 -8.552686
v 8.029976 0.604867 -9.464797
v 8.029976 0.613050 -8.552686
v 6.565605 0.604867 -9.464798
v 6.645224 0.613050 -8.552686
v 6.229975 0.613050 -8.552686
v 6.150353 0.604867 -9.464798
v 7.069540 0.604867 -9.464797
v 7.195224 0.613050 -8.552686
v 7.504290 0.604867 -9.464797
v 7.654977 0.613050 -8.552686
v 0.029975 0.604866 -9.464799
v 0.029975 0.613049 -8.552687
v 0.577546 0.604866 -9.464799
v 0.645224 0.613049 -8.552687
v 0.229975 0.613049 -8.552687
v 0.162297 0.604866 -9.464799
v 1.097937 0.604866 -9.464799
v 1.195226 0.613050 -8.552687
v 1.532687 0.604867 -9.464799
v 1.654976 0.613050 -8.552687
v 2.590494 0.604867 -9.464799
v 2.645225 0.613050 -8.552687
v 2.229975 0.613050 -8.552687
v 2.175245 0.604867 -9.464799
v 3.074234 0.604867 -9.464799
v 3.195225 0.613050 -8.552687
v 3.508984 0.604867 -9.464799
v 3.654976 0.613050 -8.552687
vn -0.0000 -0.0000 1.0000
vn -0.0000 1.0000 -0.0000
vn -0.0000 1.0000 0.0090
vn -1.0000 -0.0000 -0.0011
vn -0.0000 -1.0000 -0.0000
vn -0.0000 -0.0000 -1.0000
vn -0.0000 1.0000 -0.0090
vn 1.0000 -0.0000 0.0011
vt 0.440733 0.329441
vt 0.444928 0.327465
vt 0.444861 0.330335
vt 0.440666 0.332311
vt 0.298791 0.283249
vt 0.302986 0.281272
vt 0.302897 0.285073
vt 0.298710 0.286704
vt 0.438085 0.330142
vt 0.442272 0.328511
vt 0.442198 0.331688
vt 0.438015 0.333146
vt 0.298640 0.289709
vt 0.302823 0.288251
vt 0.302762 0.290842
vt 0.298615 0.290745
vt 0.303053 0.278403
vt 0.298858 0.280379
vt 0.298939 0.276923
vt 0.303085 0.277020
vt 0.305000 0.316250
s 1
usemtl Material
f 4/1/1 3/2/1 2/3/1 1/4/1
f 1/5/1 2/6/1 6/7/1 5/8/1
f 5/9/1 6/10/1 8/11/1 7/12/1
f 16/13/1 17/14/1 36/15/1 9/16/1
f 13/1/1 12/2/1 11/3/1 10/4/1
f 10/5/1 11/6/1 15/7/1 14/8/1
f 14/9/1 15/10/1 17/11/1 16/12/1
f 12/17/1 13/18/1 7/13/1 8/14/1
f 22/1/1 21/2/1 20/3/1 19/4/1
f 18/19/1 38/20/1 21/17/1 22/18/1
f 19/5/1 20/6/1 24/7/1 23/8/1
f 23/9/1 24/10/1 26/11/1 25/12/1
f 30/1/1 29/2/1 28/3/1 27/4/1
f 27/5/1 28/6/1 32/7/1 31/8/1
f 31/9/1 32/10/1 34/11/1 33/12/1
f 29/17/1 30/18/1 25/13/1 26/14/1
f 33/13/1 34/14/1 3/17/1 4/18/1
f 112/21/2 111/21/2 37/21/2 35/21/2
f 42/1/3 41/2/3 40/3/3 39/4/3
f 39/5/3 40/6/3 44/7/3 43/8/3
f 43/9/3 44/10/3 46/11/3 45/12/3
f 55/13/3 56/14/3 48/15/3 47/16/3
f 52/1/3 51/2/3 50/3/3 49/4/3
f 49/5/3 50/6/3 54/7/3 53/8/3
f 53/9/3 54/10/3 56/11/3 55/12/3
f 51/17/3 52/18/3 45/13/3 46/14/3
f 62/1/3 61/2/3 60/3/3 59/4/3
f 57/19/3 58/20/3 61/17/3 62/18/3
f 59/5/3 60/6/3 64/7/3 63/8/3
f 63/9/3 64/10/3 66/11/3 65/12/3
f 70/1/3 69/2/3 68/3/3 67/4/3
f 67/5/3 68/6/3 72/7/3 71/8/3
f 71/9/3 72/10/3 74/11/3 73/12/3
f 69/17/3 70/18/3 65/13/3 66/14/3
f 73/13/3 74/14/3 41/17/3 42/18/3
f 111/21/4 84/21/4 38/21/4 37/21/4
f 36/21/5 38/21/5 84/21/5 94/21/5
f 78/1/6 77/2/6 76/3/6 75/4/6
f 75/5/6 76/6/6 80/7/6 79/8/6
f 79/9/6 80/10/6 82/11/6 81/12/6
f 91/13/6 92/14/6 84/15/6 83/16/6
f 88/1/6 87/2/6 86/3/6 85/4/6
f 85/5/6 86/6/6 90/7/6 89/8/6
f 89/9/6 90/10/6 92/11/6 91/12/6
f 87/17/6 88/18/6 81/13/6 82/14/6
f 98/1/6 97/2/6 96/3/6 95/4/6
f 93/19/6 94/20/6 97/17/6 98/18/6
f 95/5/6 96/6/6 100/7/6 99/8/6
f 99/9/6 100/10/6 102/11/6 101/12/6
f 106/1/6 105/2/6 104/3/6 103/4/6
f 103/5/6 104/6/6 108/7/6 107/8/6
f 107/9/6 108/10/6 110/11/6 109/12/6
f 105/17/6 106/18/6 101/13/6 102/14/6
f 109/13/6 110/14/6 77/17/6 78/18/6
f 116/1/7 115/2/7 114/3/7 113/4/7
f 113/5/7 114/6/7 118/7/7 117/8/7
f 117/9/7 118/10/7 120/11/7 119/12/7
f 129/13/7 130/14/7 122/15/7 121/16/7
f 126/1/7 125/2/7 124/3/7 123/4/7
f 123/5/7 124/6/7 128/7/7 127/8/7
f 127/9/7 128/10/7 130/11/7 129/12/7
f 125/17/7 126/18/7 119/13/7 120/14/7
f 136/1/7 135/2/7 134/3/7 133/4/7
f 131/19/7 132/20/7 135/17/7 136/18/7
f 133/5/7 134/6/7 138/7/7 137/8/7
f 137/9/7 138/10/7 140/11/7 139/12/7
f 144/1/7 143/2/7 142/3/7 141/4/7
f 141/5/7 142/6/7 146/7/7 145/8/7
f 145/9/7 146/10/7 148/11/7 147/12/7
f 143/17/7 144/18/7 139/13/7 140/14/7
f 147/13/7 148/14/7 115/17/7 116/18/7
f 94/21/8 112/21/8 35/21/8 36/21/8
