# Blender 4.3.2
# www.blender.org
mtllib Platform_FlatB.mtl
o Floor_Base.017
v 4.915837 0.609396 -0.002524
v 4.615838 0.004528 -0.002524
v 4.445705 0.004528 -0.002524
v 4.500588 0.609396 -0.002524
v 5.415837 0.609396 -0.002524
v 5.165838 0.004528 -0.002524
v 5.850588 0.609396 -0.002524
v 5.625588 0.004528 -0.002524
v 8.000587 0.609396 -0.002524
v 6.915837 0.609396 -0.002524
v 6.615837 0.004528 -0.002524
v 6.200588 0.004528 -0.002524
v 6.500588 0.609396 -0.002524
v 7.415838 0.609396 -0.002524
v 7.165837 0.004528 -0.002524
v 7.850587 0.609396 -0.002524
v 7.625588 0.004528 -0.002524
v 0.000587 0.609396 -0.002524
v 0.915837 0.609396 -0.002524
v 0.615836 0.004528 -0.002524
v 0.200587 0.004528 -0.002524
v 0.500588 0.609396 -0.002524
v 1.415838 0.609396 -0.002524
v 1.165839 0.004528 -0.002524
v 1.850587 0.609396 -0.002524
v 1.625588 0.004528 -0.002524
v 2.915838 0.609396 -0.002524
v 2.615837 0.004528 -0.002524
v 2.200588 0.004528 -0.002524
v 2.500589 0.609396 -0.002524
v 3.415837 0.609396 -0.002524
v 3.165837 0.004528 -0.002524
v 3.850588 0.609396 -0.002524
v 3.625587 0.004528 -0.002524
v 8.000587 0.004528 -0.002524
v 0.000587 0.004528 -0.002524
v 3.446967 0.609396 -0.013114
v 3.366519 0.617578 -0.925227
v 3.781768 0.617578 -0.925227
v 3.862216 0.609396 -0.013114
v 2.915188 0.609396 -0.013114
v 2.816517 0.617578 -0.925227
v 2.480436 0.609396 -0.013114
v 2.356768 0.617578 -0.925227
v -0.018232 0.609396 -0.013116
v -0.018232 0.617578 -0.925227
v 1.446139 0.609396 -0.013114
v 1.366519 0.617578 -0.925227
v 1.781768 0.617578 -0.925227
v 1.861391 0.609396 -0.013114
v 0.942204 0.609396 -0.013116
v 0.816519 0.617578 -0.925227
v 0.507454 0.609396 -0.013116
v 0.356767 0.617578 -0.925227
v 7.981768 0.609396 -0.013114
v 7.981768 0.617578 -0.925227
v 7.434197 0.609396 -0.013114
v 7.366519 0.617578 -0.925227
v 7.781768 0.617578 -0.925227
v 7.849447 0.609396 -0.013114
v 6.913807 0.609396 -0.013114
v 6.816518 0.617578 -0.925227
v 6.479056 0.609396 -0.013114
v 6.356767 0.617578 -0.925227
v 5.421250 0.609396 -0.013114
v 5.366518 0.617578 -0.925227
v 5.781769 0.617578 -0.925227
v 5.836499 0.609396 -0.013114
v 4.937510 0.609396 -0.013114
v 4.816518 0.617578 -0.925227
v 4.502760 0.609396 -0.013114
v 4.356768 0.617578 -0.925227
v 8.000587 0.019177 -0.002524
v 0.000587 0.019177 -0.002524
v 0.011154 -1.604702 -9.412763
v 8.011155 -1.604702 -9.412763
v 0.011154 0.586348 -9.412763
v 8.011155 0.586348 -9.412763
v 0.011154 0.586348 -0.032246
v 8.011155 0.586348 -0.032246
v 6.361746 0.019177 -0.002524
v 6.372313 -1.604702 -9.412763
v 6.372313 0.586348 -9.412763
v 6.372313 0.586348 -0.032246
v 1.321910 -1.604702 -9.412763
v 1.321910 0.586348 -9.412763
v 1.321910 0.586348 -0.032246
v 1.311342 0.019177 -0.002524
v 1.311342 0.073544 -0.195262
v 6.361746 0.073544 -0.195262
v 6.372313 0.073544 -9.308124
v 1.321910 0.073544 -9.308124
vn -0.0000 -0.0000 1.0000
vn -0.0000 1.0000 0.0090
vn -0.0000 -0.9854 0.1701
vn -0.0000 -0.0000 -1.0000
vn -0.0000 1.0000 -0.0000
vn -1.0000 -0.0001 -0.0011
vn -0.0000 -1.0000 -0.0000
vn 1.0000 0.0001 0.0011
vn -0.0000 -0.9624 -0.2715
vn -0.0000 -0.0622 0.9981
vn -1.0000 0.0038 -0.0009
vn 1.0000 -0.0038 0.0009
vt 0.440733 0.329441
vt 0.444888 0.329159
vt 0.444861 0.330335
vt 0.440666 0.332311
vt 0.298791 0.283249
vt 0.302986 0.281272
vt 0.302897 0.285073
vt 0.298710 0.286704
vt 0.438085 0.330142
vt 0.442272 0.328511
vt 0.442198 0.331688
vt 0.438015 0.333146
vt 0.298640 0.289709
vt 0.302823 0.288251
vt 0.302762 0.290842
vt 0.298615 0.290745
vt 0.444928 0.327465
vt 0.303053 0.278403
vt 0.298858 0.280379
vt 0.298939 0.276923
vt 0.303085 0.277020
vt 0.303140 0.274678
vt 0.305000 0.316250
vt 0.305000 0.316250
vt 0.305000 0.316250
vt 0.000000 0.000000
s 1
usemtl Material
f 4/1/1 3/2/1 2/3/1 1/4/1
f 1/5/1 2/6/1 6/7/1 5/8/1
f 5/9/1 6/10/1 8/11/1 7/12/1
f 16/13/1 17/14/1 35/15/1 9/16/1
f 13/1/1 12/17/1 11/3/1 10/4/1
f 10/5/1 11/6/1 15/7/1 14/8/1
f 14/9/1 15/10/1 17/11/1 16/12/1
f 12/18/1 13/19/1 7/13/1 8/14/1
f 22/1/1 21/17/1 20/3/1 19/4/1
f 18/20/1 36/21/1 21/18/1 22/19/1
f 19/5/1 20/6/1 24/7/1 23/8/1
f 23/9/1 24/10/1 26/11/1 25/12/1
f 30/1/1 29/17/1 28/3/1 27/4/1
f 27/5/1 28/6/1 32/7/1 31/8/1
f 31/9/1 32/10/1 34/11/1 33/12/1
f 29/18/1 30/19/1 25/13/1 26/14/1
f 33/13/1 34/14/1 3/22/1 4/19/1
f 40/1/2 39/17/2 38/3/2 37/4/2
f 37/5/2 38/6/2 42/7/2 41/8/2
f 41/9/2 42/10/2 44/11/2 43/12/2
f 53/13/2 54/14/2 46/15/2 45/16/2
f 50/1/2 49/17/2 48/3/2 47/4/2
f 47/5/2 48/6/2 52/7/2 51/8/2
f 51/9/2 52/10/2 54/11/2 53/12/2
f 49/18/2 50/19/2 43/13/2 44/14/2
f 60/1/2 59/17/2 58/3/2 57/4/2
f 55/20/2 56/21/2 59/18/2 60/19/2
f 57/5/2 58/6/2 62/7/2 61/8/2
f 61/9/2 62/10/2 64/11/2 63/12/2
f 68/1/2 67/17/2 66/3/2 65/4/2
f 65/5/2 66/6/2 70/7/2 69/8/2
f 69/9/2 70/10/2 72/11/2 71/12/2
f 67/18/2 68/19/2 63/13/2 64/14/2
f 71/13/2 72/14/2 39/18/2 40/19/2
f 85/23/3 88/23/3 74/23/3 75/23/3
f 85/23/4 75/23/4 77/23/4 86/24/4
f 86/24/5 77/23/5 79/23/5 87/23/5
f 78/23/5 83/24/5 84/23/5 80/23/5
f 76/23/4 82/25/4 83/24/4 78/23/4
f 76/23/3 73/23/3 81/23/3 82/25/3
f 83/24/5 86/24/5 87/23/5 84/23/5
f 82/25/4 85/23/4 86/24/4 83/24/4
f 82/25/6 81/23/6 90/23/6 91/25/6
f 91/25/7 90/23/7 89/23/7 92/23/7
f 88/23/8 85/23/8 92/23/8 89/23/8
f 81/26/9 88/26/9 89/26/9 90/26/9
f 85/23/10 82/25/10 91/25/10 92/23/10
f 74/23/11 79/23/11 77/23/11 75/23/11
f 76/23/12 78/23/12 80/23/12 73/23/12
