# Blender 4.3.2
# www.blender.org
mtllib Platform_End.mtl
o Floor_Base.023
v -4.532730 2.145802 -3.802774
v -4.532730 1.540933 -4.191316
v -4.532730 1.540933 -4.402788
v -4.532730 2.145802 -4.319366
v -4.532731 2.145802 -3.177501
v -4.532731 1.540933 -3.503375
v -4.532731 2.145802 -2.634344
v -4.532731 1.540933 -2.926677
v -4.532731 2.145802 -0.061667
v -4.532731 2.145802 -1.325336
v -4.532731 1.540933 -1.697276
v -4.532731 1.540933 -2.209160
v -4.532731 2.145802 -1.830096
v -4.532731 2.145802 -0.731338
v -4.532731 1.540933 -1.032473
v -4.532731 2.145802 -0.230502
v -4.532731 1.540933 -0.492395
v -4.532730 2.145802 -9.256419
v -4.532730 2.145802 -8.341169
v -4.532730 1.540933 -8.641171
v -4.532730 1.540933 -9.056419
v -4.532730 2.145802 -8.756418
v -4.532730 2.145802 -7.841169
v -4.532730 1.540933 -8.091167
v -4.532730 2.145802 -7.393914
v -4.532730 1.540933 -7.631419
v -4.532730 2.145802 -6.219292
v -4.532730 1.540933 -6.579670
v -4.532730 1.540933 -7.034832
v -4.532730 2.145802 -6.685970
v -4.532730 2.145802 -5.637139
v -4.532730 1.540933 -5.950476
v -4.532730 2.145802 -5.116370
v -4.532730 1.540933 -5.405607
v -4.532731 1.540933 -0.065109
v -4.532730 1.540933 -9.256419
v -4.522140 2.145802 -5.591229
v -3.610028 2.153984 -5.680333
v -3.610028 2.153984 -5.181387
v -4.522140 2.145802 -5.089786
v -4.522140 2.145802 -6.216415
v -3.610027 2.153984 -6.322454
v -4.522140 2.145802 -6.709770
v -3.610027 2.153984 -6.838738
v -4.522139 2.145802 -9.275239
v -4.522140 2.145802 -7.810868
v -3.610027 2.153984 -7.890487
v -3.610027 2.153984 -7.463809
v -4.522140 2.145802 -7.384186
v -4.522139 2.145802 -8.314802
v -3.610027 2.153984 -8.440487
v -4.522139 2.145802 -8.749552
v -4.522141 2.145802 -0.072446
v -4.522141 2.145802 -0.695443
v -3.610028 2.153984 -0.772381
v -4.522141 2.145802 -0.220401
v -4.522141 2.145802 -1.310511
v -3.610028 2.153984 -1.424972
v -4.522141 2.145802 -1.837672
v -3.610028 2.153984 -1.984533
v -4.522141 2.145802 -3.151219
v -3.610028 2.153984 -3.215420
v -3.610028 2.153984 -2.696527
v -4.522141 2.145802 -2.632138
v -4.522140 2.145802 -3.757362
v -3.610028 2.153984 -3.903704
v -4.522140 2.145802 -4.300142
v -3.610028 2.153984 -4.475824
v -4.532731 1.555583 -0.046811
v -4.532730 1.555583 -9.256419
v 0.004646 -0.068296 -9.245852
v 0.004645 -0.068296 -0.035965
v 0.004646 2.122754 -9.245852
v 0.004645 2.122754 -0.033996
v -4.503008 2.122754 -9.245852
v -4.503009 2.122754 -0.033996
v -4.532731 1.555583 -1.937993
v 0.004645 -0.068296 -1.927424
v 0.004645 2.122754 -1.927424
v -4.503009 2.122754 -1.927425
v 0.004646 -0.068296 -7.935097
v 0.004646 2.122754 -7.935097
v -4.503008 2.122754 -7.935097
v -4.532730 1.555583 -7.945664
v -4.339992 1.609950 -7.945664
v -4.339993 1.609950 -1.937993
v -0.099994 1.609950 -1.927424
v -0.099993 1.609950 -7.935097
v -4.530229 2.160509 0.012434
v -4.604605 1.555929 0.011547
v -4.029442 2.160269 0.013170
v -4.280902 1.555845 0.011803
v -3.593088 2.159782 0.014669
v -3.819886 1.555460 0.012987
v -2.521028 2.157711 0.021039
v -2.824039 1.553758 0.018223
v -3.242053 1.554599 0.015637
v -2.939349 2.158645 0.018165
v -2.016795 2.156424 0.024997
v -2.269647 1.552423 0.022330
v -1.578024 2.155201 0.028757
v -1.805748 1.551161 0.026209
v -1.963506 2.145802 0.047070
v -2.031183 2.153984 -0.865042
v -1.615935 2.153984 -0.865042
v -1.548256 2.145802 0.047070
v -2.483896 2.145802 0.047070
v -2.581185 2.153984 -0.865042
v -2.918647 2.145802 0.047070
v -3.040936 2.153984 -0.865042
v -3.976453 2.145802 0.047070
v -4.031185 2.153984 -0.865042
v -3.615934 2.153984 -0.865042
v -3.561204 2.145802 0.047070
v -4.460194 2.145802 0.047070
v -4.581185 2.153984 -0.865042
v -0.502362 2.152034 0.038493
v -0.805790 1.548208 0.035288
v -1.225180 1.549467 0.031416
v -0.921693 2.153276 0.034676
v -0.025131 2.150658 0.042727
v -0.025509 1.545905 0.042373
v -0.009162 2.145802 0.047070
v -0.009162 2.153984 -0.865043
v -0.455499 2.145802 0.047069
v -0.581183 2.153984 -0.865043
v -0.890248 2.145801 0.047069
v -1.040936 2.153984 -0.865043
v -4.481865 2.145802 -9.343154
v -4.555294 1.540933 -9.343154
v -3.981866 2.145802 -9.343154
v -4.231865 1.540933 -9.343154
v -3.547115 2.145802 -9.343154
v -3.772115 1.540933 -9.343154
v -1.397115 2.145802 -9.343154
v -2.481866 2.145802 -9.343154
v -2.781866 1.540933 -9.343154
v -3.197114 1.540933 -9.343154
v -2.897115 2.145802 -9.343154
v -1.981865 2.145802 -9.343154
v -2.231865 1.540933 -9.343154
v -1.547115 2.145802 -9.343154
v -1.772115 1.540933 -9.343154
v -1.397115 1.540933 -9.343154
v -1.415934 2.145802 -9.332563
v -1.415934 2.153984 -8.420451
v -1.963506 2.145802 -9.332563
v -2.031183 2.153984 -8.420451
v -1.615934 2.153984 -8.420451
v -1.548255 2.145802 -9.332563
v -2.483896 2.145802 -9.332563
v -2.581185 2.153984 -8.420451
v -2.918647 2.145802 -9.332563
v -3.040936 2.153984 -8.420451
v -3.976453 2.145802 -9.332563
v -4.031185 2.153984 -8.420451
v -3.615934 2.153984 -8.420451
v -3.561204 2.145802 -9.332563
v -4.460193 2.145802 -9.332563
v -4.581185 2.153984 -8.420451
v -0.481865 2.145802 -9.343153
v -0.781867 1.540933 -9.343153
v -1.197116 1.540933 -9.343153
v -0.897114 2.145801 -9.343153
v -0.009162 2.145802 -9.343153
v -0.009162 1.540933 -9.343153
v -0.009162 2.145802 -9.332562
v -0.009162 2.153984 -8.420450
v -0.455498 2.145802 -9.332561
v -0.581183 2.153984 -8.420450
v -0.890248 2.145801 -9.332561
v -1.040936 2.153984 -8.420450
vn -1.0000 -0.0000 -0.0000
vn -0.0090 1.0000 -0.0000
vn -0.3370 -0.9415 -0.0000
vn 1.0000 -0.0000 -0.0000
vn -0.0000 1.0000 -0.0000
vn 0.0024 -0.0001 -1.0000
vn -0.0000 -1.0000 -0.0000
vn -0.0024 0.0001 1.0000
vn 0.2715 -0.9624 -0.0000
vn -0.9981 -0.0622 -0.0000
vn 0.0019 0.0038 -1.0000
vn -0.0022 -0.0053 1.0000
vn -0.0012 -0.0015 1.0000
vn -0.0019 -0.0015 1.0000
vn -0.0023 -0.0014 1.0000
vn -0.0038 -0.0013 1.0000
vn -0.0041 -0.0013 1.0000
vn -0.0000 1.0000 0.0090
vn -0.0059 -0.0012 1.0000
vn -0.0056 -0.0012 1.0000
vn -0.0070 -0.0011 1.0000
vn -0.0072 -0.0011 1.0000
vn -0.0080 -0.0010 1.0000
vn -0.0081 -0.0010 1.0000
vn -0.0087 -0.0009 1.0000
vn -0.0088 -0.0009 1.0000
vn -0.0091 -0.0008 1.0000
vn -0.0091 -0.0007 1.0000
vn -0.0090 -0.0007 1.0000
vn -0.0000 -0.0000 -1.0000
vn -0.0000 1.0000 -0.0090
vt 0.440733 0.329441
vt 0.444888 0.329159
vt 0.444861 0.330335
vt 0.440666 0.332311
vt 0.298791 0.283249
vt 0.302986 0.281272
vt 0.302897 0.285073
vt 0.298710 0.286704
vt 0.438085 0.330142
vt 0.442272 0.328511
vt 0.442198 0.331688
vt 0.438015 0.333146
vt 0.298640 0.289709
vt 0.302823 0.288251
vt 0.302762 0.290842
vt 0.298615 0.290745
vt 0.444928 0.327465
vt 0.303053 0.278403
vt 0.298858 0.280379
vt 0.298939 0.276923
vt 0.303085 0.277020
vt 0.303140 0.274678
vt 0.305000 0.316250
vt 0.305000 0.316250
vt 0.305000 0.316250
vt 0.000000 0.000000
s 1
usemtl Material
f 4/1/1 3/2/1 2/3/1 1/4/1
f 1/5/1 2/6/1 6/7/1 5/8/1
f 5/9/1 6/10/1 8/11/1 7/12/1
f 16/13/1 17/14/1 35/15/1 9/16/1
f 13/1/1 12/17/1 11/3/1 10/4/1
f 10/5/1 11/6/1 15/7/1 14/8/1
f 14/9/1 15/10/1 17/11/1 16/12/1
f 12/18/1 13/19/1 7/13/1 8/14/1
f 22/1/1 21/17/1 20/3/1 19/4/1
f 18/20/1 36/21/1 21/18/1 22/19/1
f 19/5/1 20/6/1 24/7/1 23/8/1
f 23/9/1 24/10/1 26/11/1 25/12/1
f 30/1/1 29/17/1 28/3/1 27/4/1
f 27/5/1 28/6/1 32/7/1 31/8/1
f 31/9/1 32/10/1 34/11/1 33/12/1
f 29/18/1 30/19/1 25/13/1 26/14/1
f 33/13/1 34/14/1 3/22/1 4/19/1
f 40/1/2 39/17/2 38/3/2 37/4/2
f 37/5/2 38/6/2 42/7/2 41/8/2
f 41/9/2 42/10/2 44/11/2 43/12/2
f 49/1/2 48/17/2 47/3/2 46/4/2
f 46/5/2 47/6/2 51/7/2 50/8/2
f 48/18/2 49/19/2 43/13/2 44/14/2
f 54/5/2 55/6/2 58/7/2 57/8/2
f 57/9/2 58/10/2 60/11/2 59/12/2
f 64/1/2 63/17/2 62/3/2 61/4/2
f 61/5/2 62/6/2 66/7/2 65/8/2
f 65/9/2 66/10/2 68/11/2 67/12/2
f 63/18/2 64/19/2 59/13/2 60/14/2
f 67/13/2 68/14/2 39/18/2 40/19/2
f 81/23/3 84/23/3 70/23/3 71/23/3
f 81/23/4 71/23/4 73/23/4 82/24/4
f 82/24/5 73/23/5 75/23/5 83/23/5
f 74/23/5 79/24/5 80/23/5 76/23/5
f 72/23/4 78/25/4 79/24/4 74/23/4
f 72/23/3 69/23/3 77/23/3 78/25/3
f 79/24/5 82/24/5 83/23/5 80/23/5
f 78/25/4 81/23/4 82/24/4 79/24/4
f 78/25/6 77/23/6 86/23/6 87/25/6
f 87/25/7 86/23/7 85/23/7 88/23/7
f 84/23/8 81/23/8 88/23/8 85/23/8
f 77/26/9 84/26/9 85/26/9 86/26/9
f 81/23/10 78/25/10 87/25/10 88/23/10
f 70/23/11 75/23/11 73/23/11 71/23/11
f 72/23/12 74/23/12 76/23/12 69/23/12
f 89/5/13 90/6/13 92/7/14 91/8/15
f 91/9/15 92/10/14 94/11/16 93/12/17
f 127/13/18 128/14/18 105/18/18 106/19/18
f 98/1/19 97/17/20 96/3/21 95/4/22
f 95/5/22 96/6/21 100/7/23 99/8/24
f 99/9/24 100/10/23 102/11/25 101/12/26
f 97/18/20 98/19/19 93/13/17 94/14/16
f 106/1/18 105/17/18 104/3/18 103/4/18
f 103/5/18 104/6/18 108/7/18 107/8/18
f 107/9/18 108/10/18 110/11/18 109/12/18
f 114/1/18 113/17/18 112/3/18 111/4/18
f 111/5/18 112/6/18 116/7/18 115/8/18
f 113/18/18 114/19/18 109/13/18 110/14/18
f 120/1/27 119/17/27 118/3/28 117/4/28
f 117/5/28 118/6/28 122/7/29 121/8/29
f 123/5/18 124/6/18 126/7/18 125/8/18
f 125/9/18 126/10/18 128/11/18 127/12/18
f 129/5/30 131/8/30 132/7/30 130/6/30
f 131/9/30 133/12/30 134/11/30 132/10/30
f 142/13/30 135/16/30 144/15/30 143/14/30
f 139/1/30 136/4/30 137/3/30 138/17/30
f 136/5/30 140/8/30 141/7/30 137/6/30
f 140/9/30 142/12/30 143/11/30 141/10/30
f 138/18/30 134/14/30 133/13/30 139/19/30
f 150/1/31 147/4/31 148/3/31 149/17/31
f 145/20/31 150/19/31 149/18/31 146/21/31
f 147/5/31 151/8/31 152/7/31 148/6/31
f 151/9/31 153/12/31 154/11/31 152/10/31
f 158/1/31 155/4/31 156/3/31 157/17/31
f 155/5/31 159/8/31 160/7/31 156/6/31
f 157/18/31 154/14/31 153/13/31 158/19/31
f 164/1/30 161/4/30 162/3/30 163/17/30
f 135/20/30 164/19/30 163/18/30 144/21/30
f 161/5/30 165/8/30 166/7/30 162/6/30
f 171/13/31 145/16/31 146/15/31 172/14/31
f 167/5/31 169/8/31 170/7/31 168/6/31
f 169/9/31 171/12/31 172/11/31 170/10/31
f 101/13/26 102/14/25 119/18/27 120/19/27
l 45 52
l 52 50
l 54 56
l 56 53
