# Blender 4.3.2
# www.blender.org
mtllib Table.mtl
o Table
v -3.344000 3.219994 5.017940
v -3.154134 3.306296 5.017940
v -3.154134 3.219994 5.320000
v 3.154134 3.219994 5.320000
v 3.154134 3.306296 5.017940
v 3.344000 3.219994 5.017940
v -3.344000 3.219994 -5.017940
v -3.154134 3.219994 -5.320000
v -3.154134 3.306296 -5.017940
v 3.344000 3.219994 -5.017940
v 3.154134 3.306296 -5.017940
v 3.154134 3.219994 -5.320000
v -3.344000 3.012213 -5.017940
v -3.154134 2.925911 -5.017940
v -3.154134 3.012213 -5.320000
v -3.344000 3.012213 5.017940
v -3.154134 3.012213 5.320000
v -3.154134 2.925911 5.017940
v 3.154134 3.012213 5.320000
v 3.344000 3.012213 5.017940
v 3.154134 2.925911 5.017940
v 3.344000 3.012213 -5.017940
v 3.154134 3.012213 -5.320000
v 3.154134 2.925911 -5.017940
v -2.679252 3.052950 4.607099
v -2.768450 3.032377 4.552328
v -2.941436 3.001875 4.552328
v -3.029041 2.991333 4.607099
v -2.768450 3.032377 4.859291
v -2.679252 3.052950 4.804520
v -3.029041 2.991333 4.804520
v -2.941436 3.001875 4.859291
v -2.804796 0.105710 4.552328
v -2.719159 0.104591 4.607099
v -2.817568 0.021024 4.607099
v -2.982550 0.105710 4.552328
v -2.997806 0.021024 4.607099
v -3.068593 0.104562 4.607099
v -2.804796 0.105710 4.859291
v -2.817568 0.021024 4.804520
v -2.719159 0.104591 4.804520
v -2.982550 0.105710 4.859291
v -3.068593 0.104562 4.804520
v -2.997806 0.021024 4.804520
v 3.048228 3.052950 4.607099
v 2.959029 3.032377 4.552328
v 2.786044 3.001875 4.552328
v 2.698439 2.991333 4.607099
v 2.959029 3.032377 4.859291
v 3.048228 3.052950 4.804520
v 2.698439 2.991333 4.804520
v 2.786044 3.001875 4.859291
v 2.922684 0.105710 4.552328
v 3.008321 0.104591 4.607099
v 2.909912 0.021024 4.607099
v 2.744930 0.105710 4.552328
v 2.729674 0.021024 4.607099
v 2.658888 0.104562 4.607099
v 2.922684 0.105710 4.859291
v 2.909912 0.021024 4.804520
v 3.008321 0.104591 4.804520
v 2.744930 0.105710 4.859291
v 2.658888 0.104562 4.804520
v 2.729674 0.021024 4.804520
v -2.679252 3.052950 -4.992902
v -2.768450 3.032377 -5.047672
v -2.941436 3.001875 -5.047672
v -3.029041 2.991333 -4.992902
v -2.768450 3.032377 -4.740710
v -2.679252 3.052950 -4.795480
v -3.029041 2.991333 -4.795480
v -2.941436 3.001875 -4.740710
v -2.804796 0.105710 -5.047672
v -2.719159 0.104591 -4.992902
v -2.817568 0.021024 -4.992902
v -2.982550 0.105710 -5.047672
v -2.997806 0.021024 -4.992902
v -3.068593 0.104562 -4.992902
v -2.804796 0.105710 -4.740710
v -2.817568 0.021024 -4.795480
v -2.719159 0.104591 -4.795480
v -2.982550 0.105710 -4.740710
v -3.068593 0.104562 -4.795480
v -2.997806 0.021024 -4.795480
v 3.048228 3.052950 -4.992902
v 2.959029 3.032377 -5.047672
v 2.786044 3.001875 -5.047672
v 2.698439 2.991333 -4.992902
v 2.959029 3.032377 -4.740710
v 3.048228 3.052950 -4.795480
v 2.698439 2.991333 -4.795480
v 2.786044 3.001875 -4.740710
v 2.922684 0.105710 -5.047672
v 3.008321 0.104591 -4.992902
v 2.909912 0.021024 -4.992902
v 2.744930 0.105710 -5.047672
v 2.729674 0.021024 -4.992902
v 2.658888 0.104562 -4.992902
v 2.922684 0.105710 -4.740710
v 2.909912 0.021024 -4.795480
v 3.008321 0.104591 -4.795480
v 2.744930 0.105710 -4.740710
v 2.658888 0.104562 -4.795480
v 2.729674 0.021024 -4.795480
vn -0.0000 -0.0000 1.0000
vn -0.0000 -1.0000 -0.0000
vn 1.0000 -0.0000 -0.0000
vn -0.0000 -0.0000 -1.0000
vn -0.0000 1.0000 -0.0000
vn -0.4005 0.8811 0.2517
vn 0.4005 0.8811 0.2517
vn -0.4005 0.8811 -0.2517
vn 0.4005 0.8811 -0.2517
vn -0.4005 -0.8811 -0.2517
vn -0.4005 -0.8811 0.2517
vn 0.4005 -0.8811 0.2517
vn 0.4005 -0.8811 -0.2517
vn -0.4138 0.9104 -0.0000
vn -0.0000 0.9615 0.2747
vn 0.4138 0.9104 -0.0000
vn -0.0000 0.9615 -0.2747
vn -0.4138 -0.9104 -0.0000
vn -0.0000 -0.9615 0.2747
vn 0.4138 -0.9104 -0.0000
vn -0.0000 -0.9615 -0.2747
vn -0.8466 -0.0000 -0.5322
vn 0.8466 -0.0000 -0.5322
vn 0.8466 -0.0000 0.5322
vn -0.8466 -0.0000 0.5322
vn -1.0000 -0.0000 -0.0000
vn -0.9999 0.0137 -0.0000
vn 0.9999 -0.0135 -0.0000
vn 0.4514 -0.5316 -0.7167
vn -0.4855 -0.4114 -0.7714
vn 0.4514 -0.5316 0.7167
vn -0.4855 -0.4114 0.7714
vn -0.0000 -0.5431 -0.8397
vn -0.0000 -0.5431 0.8397
vn 0.6473 -0.7622 -0.0000
vn -0.7629 -0.6465 -0.0000
vn 0.5315 -0.0069 0.8470
vn 0.5315 -0.0069 -0.8470
vn -0.5339 0.0074 -0.8455
vn -0.5339 0.0074 0.8455
vn -0.1735 0.9848 -0.0000
vt 0.213361 0.382690
vt 0.213361 0.382809
vt 0.212653 0.382489
vt 0.212651 0.382389
vt 0.213406 0.382851
vt 0.214702 0.382637
vt 0.213859 0.382374
vt 0.212693 0.382525
vt 0.212672 0.382377
vt 0.212674 0.382476
vt 0.213838 0.382330
vt 0.213838 0.382239
vt 0.213892 0.382242
vt 0.213891 0.382332
vt 0.214738 0.382587
vt 0.214742 0.382481
vt 0.213405 0.382633
vt 0.212689 0.382342
vt 0.213860 0.382208
vt 0.214708 0.382442
vt 0.213431 0.382694
vt 0.214737 0.382495
vt 0.214734 0.382602
vt 0.213431 0.382814
vt 0.566755 0.387028
vt 0.566791 0.387042
vt 0.566938 0.388290
vt 0.566901 0.388279
vt 0.566834 0.387028
vt 0.566798 0.387015
vt 0.566942 0.388252
vt 0.566979 0.388264
vt 0.566817 0.387045
vt 0.566844 0.387036
vt 0.566989 0.388274
vt 0.566963 0.388291
vt 0.566974 0.388289
vt 0.566937 0.388278
vt 0.566911 0.388295
vt 0.566948 0.388306
vt 0.566772 0.387010
vt 0.566744 0.387018
vt 0.566890 0.388269
vt 0.566917 0.388252
s 0
usemtl Material
f 3/1/1 17/2/1 19/3/1 4/4/1
f 18/5/2 14/6/2 24/7/2 21/8/2
f 6/9/3 20/10/3 22/11/3 10/12/3
f 12/13/4 23/14/4 15/15/4 8/16/4
f 2/17/5 5/18/5 11/19/5 9/20/5
f 1/21/6 3/1/6 2/17/6
f 4/4/7 6/9/7 5/18/7
f 7/22/8 9/20/8 8/16/8
f 10/12/9 12/13/9 11/19/9
f 13/23/10 15/15/10 14/6/10
f 16/24/11 18/5/11 17/2/11
f 19/3/12 21/8/12 20/10/12
f 22/11/13 24/7/13 23/14/13
f 9/20/14 7/22/14 1/21/14 2/17/14
f 2/17/15 3/1/15 4/4/15 5/18/15
f 5/18/16 6/9/16 10/12/16 11/19/16
f 11/19/17 12/13/17 8/16/17 9/20/17
f 13/23/18 14/6/18 18/5/18 16/24/18
f 17/2/19 18/5/19 21/8/19 19/3/19
f 20/10/20 21/8/20 24/7/20 22/11/20
f 23/14/21 24/7/21 14/6/21 15/15/21
f 7/22/22 8/16/22 15/15/22 13/23/22
f 22/11/23 23/14/23 12/13/23 10/12/23
f 6/9/24 4/4/24 19/3/24 20/10/24
f 16/24/25 17/2/25 3/1/25 1/21/25
f 7/22/26 13/23/26 16/24/26 1/21/26
f 29/25/1 32/26/1 42/27/1 39/28/1
f 27/29/4 26/30/4 33/31/4 36/32/4
f 31/33/27 28/34/27 38/35/27 43/36/27
f 37/37/2 35/38/2 40/39/2 44/40/2
f 25/41/28 30/42/28 41/43/28 34/44/28
f 33/31/29 34/44/29 35/38/29
f 36/32/30 37/37/30 38/35/30
f 39/28/31 40/39/31 41/43/31
f 42/27/32 43/36/32 44/40/32
f 35/38/33 37/37/33 36/32/33 33/31/33
f 39/28/34 42/27/34 44/40/34 40/39/34
f 40/39/35 35/38/35 34/44/35 41/43/35
f 43/36/36 38/35/36 37/37/36 44/40/36
f 29/25/37 39/28/37 41/43/37 30/42/37
f 33/31/38 26/30/38 25/41/38 34/44/38
f 27/29/39 36/32/39 38/35/39 28/34/39
f 42/27/40 32/26/40 31/33/40 43/36/40
f 25/41/41 26/30/41 27/29/41 28/34/41 31/33/41 32/26/41 29/25/41 30/42/41
f 49/25/1 52/26/1 62/27/1 59/28/1
f 47/29/4 46/30/4 53/31/4 56/32/4
f 51/33/27 48/34/27 58/35/27 63/36/27
f 57/37/2 55/38/2 60/39/2 64/40/2
f 45/41/28 50/42/28 61/43/28 54/44/28
f 53/31/29 54/44/29 55/38/29
f 56/32/30 57/37/30 58/35/30
f 59/28/31 60/39/31 61/43/31
f 62/27/32 63/36/32 64/40/32
f 55/38/33 57/37/33 56/32/33 53/31/33
f 59/28/34 62/27/34 64/40/34 60/39/34
f 60/39/35 55/38/35 54/44/35 61/43/35
f 63/36/36 58/35/36 57/37/36 64/40/36
f 49/25/37 59/28/37 61/43/37 50/42/37
f 53/31/38 46/30/38 45/41/38 54/44/38
f 47/29/39 56/32/39 58/35/39 48/34/39
f 62/27/40 52/26/40 51/33/40 63/36/40
f 45/41/41 46/30/41 47/29/41 48/34/41 51/33/41 52/26/41 49/25/41 50/42/41
f 69/25/1 72/26/1 82/27/1 79/28/1
f 67/29/4 66/30/4 73/31/4 76/32/4
f 71/33/27 68/34/27 78/35/27 83/36/27
f 77/37/2 75/38/2 80/39/2 84/40/2
f 65/41/28 70/42/28 81/43/28 74/44/28
f 73/31/29 74/44/29 75/38/29
f 76/32/30 77/37/30 78/35/30
f 79/28/31 80/39/31 81/43/31
f 82/27/32 83/36/32 84/40/32
f 75/38/33 77/37/33 76/32/33 73/31/33
f 79/28/34 82/27/34 84/40/34 80/39/34
f 80/39/35 75/38/35 74/44/35 81/43/35
f 83/36/36 78/35/36 77/37/36 84/40/36
f 69/25/37 79/28/37 81/43/37 70/42/37
f 73/31/38 66/30/38 65/41/38 74/44/38
f 67/29/39 76/32/39 78/35/39 68/34/39
f 82/27/40 72/26/40 71/33/40 83/36/40
f 65/41/41 66/30/41 67/29/41 68/34/41 71/33/41 72/26/41 69/25/41 70/42/41
f 89/25/1 92/26/1 102/27/1 99/28/1
f 87/29/4 86/30/4 93/31/4 96/32/4
f 91/33/27 88/34/27 98/35/27 103/36/27
f 97/37/2 95/38/2 100/39/2 104/40/2
f 85/41/28 90/42/28 101/43/28 94/44/28
f 93/31/29 94/44/29 95/38/29
f 96/32/30 97/37/30 98/35/30
f 99/28/31 100/39/31 101/43/31
f 102/27/32 103/36/32 104/40/32
f 95/38/33 97/37/33 96/32/33 93/31/33
f 99/28/34 102/27/34 104/40/34 100/39/34
f 100/39/35 95/38/35 94/44/35 101/43/35
f 103/36/36 98/35/36 97/37/36 104/40/36
f 89/25/37 99/28/37 101/43/37 90/42/37
f 93/31/38 86/30/38 85/41/38 94/44/38
f 87/29/39 96/32/39 98/35/39 88/34/39
f 102/27/40 92/26/40 91/33/40 103/36/40
f 85/41/41 86/30/41 87/29/41 88/34/41 91/33/41 92/26/41 89/25/41 90/42/41
