# Blender 4.3.2
# www.blender.org
mtllib PlayerBuB.mtl
o Washing_Bubbles.001
v -0.780873 -1.448499 2.665996
v 3.118473 -0.553877 1.567384
v -1.733727 -2.779795 -0.818630
v 2.170533 -2.354309 -2.106505
v -1.974935 1.927938 2.037585
v 1.471238 3.034274 0.852914
v -3.092492 0.554501 -1.429148
v 0.237849 1.768466 -2.705707
v -2.911822 -1.202605 -1.406812
v 1.592381 -0.215214 -2.919769
v -1.491097 0.354663 2.808597
v 2.916985 1.382749 1.166081
v -1.418393 -2.482519 1.029482
v 3.150412 -1.603656 -0.056960
v -3.157691 1.466059 0.466789
v 1.092138 2.684104 -0.954598
v 3.055045 0.735089 -0.851768
v -3.016515 -0.576692 1.060366
v 1.767540 -1.373811 2.321289
v 0.261182 -3.242220 -1.737385
v -1.554624 1.476731 -2.425579
v -0.120512 2.710766 1.652985
v 1.164015 0.899472 2.693693
v -1.105746 -1.233613 -2.791575
v -1.141405 3.124388 -0.512260
v 1.299934 -3.020538 0.525954
v -0.983628 -1.948288 2.121522
v 2.900599 -1.109614 1.991196
v 2.801581 -1.952302 -1.377831
v -1.030391 -3.024213 -1.304599
v -2.315089 -2.521163 -1.143485
v 0.987003 0.895505 -2.817369
v -2.722954 1.018278 -1.831222
v -3.086236 1.259639 -0.861683
v 1.323513 3.052679 0.042589
v -1.071172 2.603158 1.821465
v -1.763274 1.269886 2.358023
v 3.243027 0.007764 1.480287
v -3.230115 0.006650 -1.342259
v 1.947914 -1.375184 -2.408076
v -1.099964 -0.649836 2.719556
v 2.068489 2.399244 1.188448
v 3.033510 1.160131 0.431006
v -2.473797 -0.110859 1.986907
v -0.474607 0.711992 2.874114
v -2.095898 -1.234240 -2.136250
v -1.591150 -3.075283 -0.119940
v 3.520126 -1.475944 0.919328
v -2.334364 1.998935 1.576123
v 0.797105 2.430247 -2.050012
v 2.449670 0.495980 -2.073227
v -3.092125 -1.157931 -0.318306
v -2.443440 -1.758382 1.195819
v 2.293549 2.081101 -1.058813
v 3.248050 -0.588528 -0.804826
v -3.059474 0.649070 0.879934
v -2.326061 2.150692 0.008841
v -0.148590 -3.014564 0.898566
v 0.247591 -1.426480 2.681891
v 1.387568 -2.730561 -1.987161
v -0.662590 1.617515 -2.547258
v 0.911748 3.147175 0.981355
v 2.153726 1.291081 2.177641
v 0.310693 -0.917250 -3.170236
v 0.028866 2.982795 -0.892952
v 2.591357 -2.733576 0.179120
v 1.593813 -2.385897 1.673198
v -1.645792 2.098933 -1.549122
v -0.366864 -2.304792 -2.558251
v 0.473028 2.143403 2.164115
v 1.232935 -0.022224 2.835088
v -0.729996 3.029409 0.689592
v -1.418364 0.169925 -2.839621
v 0.745860 -3.152354 -0.719384
v -0.597500 -3.341594 -0.299700
v -2.525748 -0.198815 -2.415464
v -1.703458 2.585314 0.968158
v 0.117879 -0.597573 2.876558
v -0.735813 1.708562 2.529500
v -1.666716 -2.496323 -1.907961
v -2.512277 1.878347 -0.883140
v 0.127912 -2.282564 1.917178
v 2.715387 -1.734270 1.164840
v -0.399329 2.394638 -1.822708
v -3.641622 0.073191 -0.295382
v 2.808860 -1.158066 -1.575147
v 1.484852 1.406059 -2.186398
v -2.537956 -1.892325 -0.001631
v 1.148360 -1.899386 -2.696680
v 1.395400 2.305423 1.853688
v -1.687628 -1.271514 2.225638
v 2.358322 2.358415 -0.145179
v 3.543238 -0.010024 0.615631
v -2.638025 0.987285 1.771006
v 2.610345 0.109421 2.182668
v 0.505998 3.245442 0.175732
v -0.116160 0.683942 -3.064479
v 2.022367 -2.887089 -1.083042
v -0.654785 -1.214604 2.235511
v 2.614923 -0.464446 1.314294
v -1.453777 -2.330935 -0.686442
v 1.820051 -1.974154 -1.766359
v -1.656037 1.616629 1.708571
v 1.233671 2.544323 0.715192
v -2.593138 0.464967 -1.198376
v 0.199443 1.482905 -2.268809
v -2.441639 -1.008421 -1.179648
v 1.335255 -0.180464 -2.448303
v -1.250323 0.297396 2.355088
v 2.445971 1.159474 0.977791
v -1.189362 -2.081661 0.863252
v 2.641705 -1.344708 -0.047761
v -2.647810 1.229328 0.391416
v 0.915789 2.250690 -0.800457
v 2.561738 0.616388 -0.714228
v -2.529431 -0.483571 0.889147
v 1.482129 -1.151978 1.946463
v 0.219009 -2.718689 -1.456844
v -1.303594 1.238282 -2.033913
v -0.101053 2.273053 1.386071
v 0.976058 0.754231 2.258733
v -0.927198 -1.034415 -2.340810
v -0.957098 2.619884 -0.429541
v 1.090030 -2.532802 0.441027
v -0.824797 -1.633695 1.778953
v 2.432231 -0.930444 1.669672
v 2.349204 -1.637060 -1.155347
v -0.864011 -2.535885 -1.093941
v -1.941265 -2.114066 -0.958842
v 0.827628 0.750903 -2.362438
v -2.283272 0.853854 -1.535528
v -2.587892 1.056240 -0.722544
v 1.109802 2.559754 0.035712
v -0.898206 2.182816 1.527349
v -1.478552 1.064833 1.977266
v 2.719368 0.006511 1.241260
v -2.708538 0.005577 -1.125519
v 1.633379 -1.153129 -2.019234
v -0.922349 -0.544906 2.280423
v 1.734485 2.011828 0.996546
v 2.543680 0.972799 0.361411
v -2.074345 -0.092960 1.666076
v -0.397971 0.597024 2.410026
v -1.757468 -1.034947 -1.791306
v -1.334220 -2.578711 -0.100571
v 2.951722 -1.237620 0.770883
v -1.957427 1.676157 1.321624
v 0.668397 2.037829 -1.718989
v 2.054113 0.415895 -1.738455
v -2.592829 -0.970959 -0.266906
v -2.048890 -1.474450 1.002728
v 1.923204 1.745058 -0.887843
v 2.723578 -0.493500 -0.674867
v -2.565452 0.544260 0.737851
v -1.950462 1.803413 0.007417
v -0.124596 -2.527794 0.753471
v 0.207613 -1.196141 2.248838
v 1.163514 -2.289653 -1.666287
v -0.555598 1.356331 -2.135946
v 0.764527 2.638988 0.822892
v 1.805958 1.082606 1.826009
v 0.260525 -0.769138 -2.658329
v 0.024205 2.501156 -0.748763
v 2.172925 -2.292179 0.150199
v 1.336456 -2.000638 1.403022
v -1.380041 1.760017 -1.298977
v -0.307625 -1.932630 -2.145159
v 0.396647 1.797300 1.814671
v 1.033850 -0.018634 2.377298
v -0.612121 2.540241 0.578242
v -1.189336 0.142486 -2.381098
v 0.625425 -2.643337 -0.603222
v -0.501016 -2.802018 -0.251305
v -2.117910 -0.166710 -2.025430
v -1.428395 2.167855 0.811828
v 0.098844 -0.501084 2.412071
v -0.617000 1.432678 2.121054
v -1.397585 -2.093236 -1.599872
v -2.106614 1.575047 -0.740538
v 0.107257 -1.913993 1.607607
v 2.276924 -1.454235 0.976751
v -0.334847 2.007966 -1.528389
v -3.053596 0.061372 -0.247683
v 2.355304 -0.971066 -1.320804
v 1.245089 1.179019 -1.833353
v -2.128144 -1.586766 -0.001364
v 0.962932 -1.592691 -2.261237
v 1.170081 1.933163 1.554368
v -1.415122 -1.066200 1.866259
v 1.977518 1.977591 -0.121736
v 2.971102 -0.008406 0.516224
v -2.212054 0.827863 1.485037
v 2.188847 0.091753 1.830228
v 0.424295 2.721390 0.147358
v -0.097405 0.573506 -2.569647
v 1.695808 -2.420902 -0.908161
vn -0.2119 -0.4388 0.8732
vn 0.8356 -0.0779 0.5439
vn -0.5043 -0.8564 -0.1113
vn 0.5771 -0.5032 -0.6433
vn -0.4916 0.5246 0.6951
vn 0.4450 0.8626 0.2407
vn -0.8510 0.2584 -0.4572
vn 0.0662 0.5321 -0.8441
vn -0.8333 -0.3878 -0.3940
vn 0.4580 0.0553 -0.8872
vn -0.3797 0.0372 0.9244
vn 0.8115 0.4695 0.3479
vn -0.4175 -0.7820 0.4629
vn 0.9078 -0.4021 -0.1192
vn -0.8578 0.4930 0.1456
vn 0.3158 0.8515 -0.4187
vn 0.8836 0.3054 -0.3551
vn -0.8713 -0.2537 0.4200
vn 0.3335 -0.4325 0.8377
vn 0.0247 -0.9011 -0.4328
vn -0.3864 0.5219 -0.7605
vn -0.0337 0.8295 0.5575
vn 0.2199 0.2725 0.9367
vn -0.3044 -0.2650 -0.9149
vn -0.3425 0.9152 -0.2126
vn 0.2228 -0.9294 0.2942
vn -0.2922 -0.6795 0.6730
vn 0.6073 -0.3449 0.7157
vn 0.8309 -0.3935 -0.3934
vn -0.2604 -0.9097 -0.3235
vn -0.7017 -0.6692 -0.2445
vn 0.3054 0.3225 -0.8959
vn -0.6723 0.4244 -0.6066
vn -0.8506 0.4753 -0.2251
vn 0.3816 0.9088 -0.1687
vn -0.2218 0.7886 0.5735
vn -0.4534 0.2952 0.8410
vn 0.8687 0.1713 0.4648
vn -0.8988 -0.0564 -0.4348
vn 0.5592 -0.1904 -0.8069
vn -0.3024 -0.2106 0.9296
vn 0.6322 0.6867 0.3589
vn 0.9092 0.4163 -0.0049
vn -0.7251 -0.1087 0.6800
vn -0.0489 0.1915 0.9803
vn -0.5712 -0.3327 -0.7504
vn -0.4810 -0.8638 0.1503
vn 0.9030 -0.3680 0.2217
vn -0.6835 0.5975 0.4192
vn 0.2460 0.7512 -0.6126
vn 0.7174 0.2346 -0.6560
vn -0.9189 -0.3921 0.0442
vn -0.7037 -0.5576 0.4404
vn 0.6694 0.6147 -0.4172
vn 0.9466 -0.0049 -0.3223
vn -0.9308 0.0926 0.3536
vn -0.6254 0.7780 -0.0604
vn -0.0643 -0.9093 0.4112
vn 0.0718 -0.4399 0.8952
vn 0.3098 -0.7588 -0.5730
vn -0.2012 0.5472 -0.8125
vn 0.1388 0.9227 0.3598
vn 0.5167 0.3930 0.7607
vn 0.0396 -0.1499 -0.9879
vn -0.0058 0.9375 -0.3479
vn 0.5947 -0.7929 0.1328
vn 0.2942 -0.7369 0.6087
vn -0.4343 0.7484 -0.5012
vn -0.1611 -0.5602 -0.8125
vn 0.1149 0.5803 0.8062
vn 0.2459 -0.0192 0.9691
vn -0.2309 0.9582 0.1688
vn -0.3441 0.0764 -0.9358
vn 0.1417 -0.9894 -0.0311
vn -0.1366 -0.9872 0.0825
vn -0.6275 -0.0646 -0.7760
vn -0.4753 0.8554 0.2058
vn 0.0409 -0.1148 0.9925
vn -0.0886 0.4635 0.8816
vn -0.4642 -0.6356 -0.6168
vn -0.6524 0.6919 -0.3093
vn -0.0069 -0.7574 0.6529
vn 0.6138 -0.6375 0.4657
vn -0.1578 0.8052 -0.5716
vn -0.9995 -0.0289 0.0094
vn 0.8470 -0.0865 -0.5245
vn 0.5386 0.4865 -0.6879
vn -0.7945 -0.5886 0.1496
vn 0.2068 -0.4072 -0.8896
vn 0.3250 0.6327 0.7029
vn -0.5477 -0.4245 0.7210
vn 0.7145 0.6874 -0.1304
vn 0.9899 0.1358 0.0413
vn -0.7853 0.1576 0.5987
vn 0.6026 0.1033 0.7913
vn 0.0604 0.9974 -0.0384
vn -0.0710 0.1912 -0.9790
vn 0.4807 -0.8603 -0.1697
vn 0.3158 0.8514 -0.4187
vt 0.677204 0.158052
vt 0.676906 0.158439
vt 0.677293 0.158737
vt 0.677591 0.158350
vt 0.676011 0.159600
vt 0.675713 0.159987
vt 0.676100 0.160285
vt 0.676398 0.159898
vt 0.674818 0.161147
vt 0.674520 0.161534
vt 0.674907 0.161832
vt 0.675205 0.161446
vt 0.673625 0.162695
vt 0.673327 0.163082
vt 0.673714 0.163380
vt 0.674012 0.162993
vt 0.673271 0.159955
vt 0.672972 0.160341
vt 0.673359 0.160640
vt 0.673657 0.160253
vt 0.676366 0.162340
vt 0.676068 0.162727
vt 0.676455 0.163025
vt 0.676753 0.162638
vt 0.675592 0.161744
vt 0.675294 0.162131
vt 0.675681 0.162429
vt 0.675979 0.162042
vt 0.672497 0.159358
vt 0.672198 0.159745
vt 0.672585 0.160043
vt 0.672884 0.159656
vt 0.674222 0.161921
vt 0.673924 0.162308
vt 0.674310 0.162606
vt 0.674609 0.162219
vt 0.676607 0.158826
vt 0.676309 0.159213
vt 0.676696 0.159511
vt 0.676994 0.159124
vt 0.673093 0.158584
vt 0.672795 0.158971
vt 0.673182 0.159269
vt 0.673480 0.158882
vt 0.676188 0.160970
vt 0.675890 0.161357
vt 0.676277 0.161655
vt 0.676575 0.161268
vt 0.676962 0.161566
vt 0.676664 0.161953
vt 0.677051 0.162252
vt 0.677349 0.161865
vt 0.673867 0.159181
vt 0.673569 0.159568
vt 0.673956 0.159866
vt 0.674254 0.159479
vt 0.675415 0.160374
vt 0.675116 0.160760
vt 0.675503 0.161059
vt 0.675802 0.160672
vt 0.677800 0.157278
vt 0.677502 0.157665
vt 0.677889 0.157963
vt 0.678187 0.157576
vt 0.677026 0.156682
vt 0.676728 0.157069
vt 0.677115 0.157367
vt 0.677413 0.156980
vt 0.674641 0.159777
vt 0.674343 0.160164
vt 0.674729 0.160462
vt 0.675028 0.160075
vt 0.675834 0.158229
vt 0.675535 0.158616
vt 0.675922 0.158915
vt 0.676221 0.158528
vt 0.673448 0.161325
vt 0.673150 0.161712
vt 0.673537 0.162010
vt 0.673835 0.161623
vt 0.672851 0.162099
vt 0.672553 0.162486
vt 0.672940 0.162784
vt 0.673238 0.162397
vt 0.674044 0.160551
vt 0.673746 0.160938
vt 0.674133 0.161236
vt 0.674431 0.160849
vt 0.675237 0.159003
vt 0.674939 0.159390
vt 0.675326 0.159688
vt 0.675624 0.159301
vt 0.676430 0.157456
vt 0.676132 0.157842
vt 0.676519 0.158141
vt 0.676817 0.157754
vt 0.676043 0.157157
vt 0.675745 0.157544
vt 0.676341 0.156770
vt 0.674850 0.158705
vt 0.674552 0.159092
vt 0.675148 0.158318
vt 0.672465 0.161800
vt 0.672166 0.162187
vt 0.672763 0.161413
vt 0.673061 0.161027
vt 0.675447 0.157931
vt 0.676640 0.156384
vt 0.676938 0.155997
vt 0.677325 0.156295
vt 0.677712 0.156593
vt 0.678099 0.156891
vt 0.678485 0.157189
vt 0.673778 0.158496
vt 0.674165 0.158794
vt 0.676874 0.160881
vt 0.677261 0.161179
vt 0.677647 0.161478
vt 0.676487 0.160583
vt 0.672706 0.158286
vt 0.672408 0.158673
vt 0.673004 0.157899
vt 0.673391 0.158197
vt 0.672110 0.159060
vt 0.671812 0.159447
vt 0.539742 0.354025
vt 0.539444 0.354412
vt 0.539831 0.354710
vt 0.540129 0.354323
vt 0.538550 0.355572
vt 0.538251 0.355959
vt 0.538638 0.356257
vt 0.538936 0.355871
vt 0.537357 0.357120
vt 0.537058 0.357507
vt 0.537445 0.357805
vt 0.537744 0.357418
vt 0.536164 0.358668
vt 0.535866 0.359055
vt 0.536252 0.359353
vt 0.536551 0.358966
vt 0.535809 0.355927
vt 0.535511 0.356314
vt 0.535898 0.356612
vt 0.536196 0.356225
vt 0.538904 0.358313
vt 0.538606 0.358700
vt 0.538993 0.358998
vt 0.539291 0.358611
vt 0.538130 0.357717
vt 0.537832 0.358103
vt 0.538219 0.358402
vt 0.538517 0.358015
vt 0.535035 0.355331
vt 0.534737 0.355718
vt 0.535124 0.356016
vt 0.535422 0.355629
vt 0.536760 0.357894
vt 0.536462 0.358281
vt 0.536849 0.358579
vt 0.537147 0.358192
vt 0.539146 0.354799
vt 0.538848 0.355186
vt 0.539235 0.355484
vt 0.539533 0.355097
vt 0.535632 0.354557
vt 0.535333 0.354944
vt 0.535720 0.355242
vt 0.536019 0.354855
vt 0.538727 0.356943
vt 0.538429 0.357330
vt 0.538816 0.357628
vt 0.539114 0.357241
vt 0.539501 0.357539
vt 0.539203 0.357926
vt 0.539589 0.358224
vt 0.539888 0.357837
vt 0.536405 0.355153
vt 0.536107 0.355540
vt 0.536494 0.355839
vt 0.536792 0.355452
vt 0.537953 0.356346
vt 0.537655 0.356733
vt 0.538042 0.357031
vt 0.538340 0.356644
vt 0.540339 0.353251
vt 0.540041 0.353638
vt 0.540428 0.353936
vt 0.540726 0.353549
vt 0.539565 0.352654
vt 0.539267 0.353041
vt 0.539654 0.353340
vt 0.539952 0.352953
vt 0.537179 0.355750
vt 0.536881 0.356137
vt 0.537268 0.356435
vt 0.537566 0.356048
vt 0.538372 0.354202
vt 0.538074 0.354589
vt 0.538461 0.354887
vt 0.538759 0.354500
vt 0.535986 0.357297
vt 0.535688 0.357684
vt 0.536075 0.357983
vt 0.536373 0.357596
vt 0.535390 0.358071
vt 0.535092 0.358458
vt 0.535479 0.358756
vt 0.535777 0.358370
vt 0.536583 0.356524
vt 0.536285 0.356911
vt 0.536672 0.357209
vt 0.536970 0.356822
vt 0.537776 0.354976
vt 0.537477 0.355363
vt 0.537864 0.355661
vt 0.538163 0.355274
vt 0.538969 0.353428
vt 0.538670 0.353815
vt 0.539057 0.354113
vt 0.539355 0.353727
vt 0.538582 0.353130
vt 0.538283 0.353517
vt 0.538880 0.352743
vt 0.537389 0.354678
vt 0.537091 0.355065
vt 0.537687 0.354291
vt 0.535003 0.357773
vt 0.534705 0.358160
vt 0.535301 0.357386
vt 0.535599 0.356999
vt 0.537985 0.353904
vt 0.539178 0.352356
vt 0.539476 0.351969
vt 0.539863 0.352268
vt 0.540250 0.352566
vt 0.540637 0.352864
vt 0.541024 0.353162
vt 0.536317 0.354468
vt 0.536704 0.354766
vt 0.539412 0.356854
vt 0.539799 0.357152
vt 0.540186 0.357450
vt 0.539025 0.356556
vt 0.535245 0.354259
vt 0.534947 0.354646
vt 0.535543 0.353872
vt 0.535930 0.354170
vt 0.534648 0.355033
vt 0.534350 0.355419
s 1
usemtl Mat_Traspernet
f 98/1/98 60/2/60 4/3/4 29/4/29
f 97/5/97 61/6/61 8/7/8 32/8/32
f 96/9/96 62/10/62 6/11/6 35/12/35
f 95/13/95 28/14/28 2/15/2 38/16/38
f 94/17/94 37/18/37 5/19/5 49/20/49
f 93/21/93 38/22/38 2/23/2 48/24/48
f 92/25/92 42/26/42 12/27/12 43/28/43
f 91/29/91 41/30/41 11/31/11 44/32/44
f 90/33/90 63/34/63 12/35/12 42/36/42
f 89/37/89 64/38/64 10/39/10 40/40/40
f 88/41/88 53/42/53 18/43/18 52/44/52
f 87/45/87 54/46/54 17/47/17 51/48/51
f 86/49/86 55/50/55 14/51/14 29/52/29
f 85/53/85 56/54/56 15/55/15 34/56/34
f 84/57/84 65/58/65 16/59/16 50/60/50
f 83/61/83 66/62/66 14/63/14 48/64/48
f 82/65/82 58/66/58 26/67/26 67/68/67
f 81/69/81 57/70/57 25/71/25 68/72/68
f 80/73/80 46/74/46 24/75/24 69/76/69
f 79/77/79 45/78/45 23/79/23 70/80/70
f 78/81/78 59/82/59 19/83/19 71/84/71
f 77/85/77 36/86/36 22/87/22 72/88/72
f 76/89/76 33/90/33 21/91/21 73/92/73
f 75/93/75 30/94/30 20/95/20 74/96/74
f 47/97/47 3/98/3 30/94/30 75/93/75
f 13/99/13 47/97/47 75/93/75 58/66/58
f 58/66/58 75/93/75 74/96/74 26/67/26
f 39/100/39 7/101/7 33/90/33 76/89/76
f 9/102/9 39/100/39 76/89/76 46/74/46
f 46/74/46 76/89/76 73/92/73 24/75/24
f 49/20/49 5/19/5 36/86/36 77/85/77
f 15/55/15 49/20/49 77/85/77 57/70/57
f 57/70/57 77/85/77 72/88/72 25/71/25
f 41/103/41 1/104/1 59/82/59 78/81/78
f 11/105/11 41/103/41 78/81/78 45/78/45
f 45/78/45 78/81/78 71/84/71 23/79/23
f 37/106/37 11/105/11 45/78/45 79/77/79
f 5/19/5 37/106/37 79/77/79 36/86/36
f 36/86/36 79/77/79 70/80/70 22/87/22
f 31/107/31 9/102/9 46/74/46 80/73/80
f 3/98/3 31/107/31 80/73/80 30/94/30
f 30/94/30 80/73/80 69/76/69 20/95/20
f 34/56/34 15/55/15 57/70/57 81/69/81
f 7/101/7 34/56/34 81/69/81 33/90/33
f 33/90/33 81/69/81 68/72/68 21/91/21
f 27/108/27 13/99/13 58/66/58 82/65/82
f 1/109/1 27/108/27 82/65/82 59/110/59
f 59/110/59 82/65/82 67/68/67 19/111/19
f 67/68/67 26/67/26 66/62/66 83/61/83
f 19/111/19 67/68/67 83/61/83 28/112/28
f 28/112/28 83/61/83 48/64/48 2/113/2
f 68/72/68 25/71/25 65/58/65 84/57/84
f 21/91/21 68/72/68 84/57/84 61/6/61
f 61/6/61 84/57/84 50/60/50 8/7/8
f 52/44/52 18/43/18 56/54/56 85/53/85
f 9/114/9 52/44/52 85/53/85 39/115/39
f 39/115/39 85/53/85 34/56/34 7/101/7
f 51/48/51 17/47/17 55/50/55 86/49/86
f 10/116/10 51/48/51 86/49/86 40/117/40
f 40/117/40 86/49/86 29/52/29 4/118/4
f 50/60/50 16/59/16 54/46/54 87/45/87
f 8/7/8 50/60/50 87/45/87 32/119/32
f 32/119/32 87/45/87 51/48/51 10/116/10
f 47/120/47 13/121/13 53/42/53 88/41/88
f 3/122/3 47/120/47 88/41/88 31/123/31
f 31/123/31 88/41/88 52/44/52 9/114/9
f 69/76/69 24/75/24 64/38/64 89/37/89
f 20/95/20 69/76/69 89/37/89 60/2/60
f 60/2/60 89/37/89 40/40/40 4/3/4
f 70/80/70 23/79/23 63/34/63 90/33/90
f 22/87/22 70/80/70 90/33/90 62/10/62
f 62/10/62 90/33/90 42/36/42 6/11/6
f 27/124/27 1/125/1 41/30/41 91/29/91
f 13/121/13 27/124/27 91/29/91 53/42/53
f 53/42/53 91/29/91 44/32/44 18/43/18
f 35/12/35 6/11/6 42/26/42 92/25/92
f 16/59/16 35/12/35 92/25/92 54/46/54
f 54/46/54 92/25/92 43/28/43 17/47/17
f 43/28/43 12/27/12 38/22/38 93/21/93
f 17/47/17 43/28/43 93/21/93 55/50/55
f 55/50/55 93/21/93 48/24/48 14/51/14
f 44/32/44 11/31/11 37/18/37 94/17/94
f 18/43/18 44/32/44 94/17/94 56/54/56
f 56/54/56 94/17/94 49/20/49 15/55/15
f 71/84/71 19/83/19 28/14/28 95/13/95
f 23/79/23 71/84/71 95/13/95 63/34/63
f 63/34/63 95/13/95 38/16/38 12/35/12
f 72/88/72 22/87/22 62/10/62 96/9/96
f 25/71/25 72/88/72 96/9/96 65/58/65
f 65/58/65 96/9/96 35/12/35 16/59/16
f 73/92/73 21/91/21 61/6/61 97/5/97
f 24/75/24 73/92/73 97/5/97 64/38/64
f 64/38/64 97/5/97 32/8/32 10/39/10
f 74/96/74 20/95/20 60/2/60 98/1/98
f 26/67/26 74/96/74 98/1/98 66/62/66
f 66/62/66 98/1/98 29/4/29 14/63/14
f 196/126/98 158/127/60 102/128/4 127/129/29
f 195/130/97 159/131/61 106/132/8 130/133/32
f 194/134/96 160/135/62 104/136/6 133/137/35
f 193/138/95 126/139/28 100/140/2 136/141/38
f 192/142/94 135/143/37 103/144/5 147/145/49
f 191/146/93 136/147/38 100/148/2 146/149/48
f 190/150/92 140/151/42 110/152/12 141/153/43
f 189/154/91 139/155/41 109/156/11 142/157/44
f 188/158/90 161/159/63 110/160/12 140/161/42
f 187/162/89 162/163/64 108/164/10 138/165/40
f 186/166/88 151/167/53 116/168/18 150/169/52
f 185/170/87 152/171/54 115/172/17 149/173/51
f 184/174/86 153/175/55 112/176/14 127/177/29
f 183/178/85 154/179/56 113/180/15 132/181/34
f 182/182/84 163/183/65 114/184/99 148/185/50
f 181/186/83 164/187/66 112/188/14 146/189/48
f 180/190/82 156/191/58 124/192/26 165/193/67
f 179/194/81 155/195/57 123/196/25 166/197/68
f 178/198/80 144/199/46 122/200/24 167/201/69
f 177/202/79 143/203/45 121/204/23 168/205/70
f 176/206/78 157/207/59 117/208/19 169/209/71
f 175/210/77 134/211/36 120/212/22 170/213/72
f 174/214/76 131/215/33 119/216/21 171/217/73
f 173/218/75 128/219/30 118/220/20 172/221/74
f 145/222/47 101/223/3 128/219/30 173/218/75
f 111/224/13 145/222/47 173/218/75 156/191/58
f 156/191/58 173/218/75 172/221/74 124/192/26
f 137/225/39 105/226/7 131/215/33 174/214/76
f 107/227/9 137/225/39 174/214/76 144/199/46
f 144/199/46 174/214/76 171/217/73 122/200/24
f 147/145/49 103/144/5 134/211/36 175/210/77
f 113/180/15 147/145/49 175/210/77 155/195/57
f 155/195/57 175/210/77 170/213/72 123/196/25
f 139/228/41 99/229/1 157/207/59 176/206/78
f 109/230/11 139/228/41 176/206/78 143/203/45
f 143/203/45 176/206/78 169/209/71 121/204/23
f 135/231/37 109/230/11 143/203/45 177/202/79
f 103/144/5 135/231/37 177/202/79 134/211/36
f 134/211/36 177/202/79 168/205/70 120/212/22
f 129/232/31 107/227/9 144/199/46 178/198/80
f 101/223/3 129/232/31 178/198/80 128/219/30
f 128/219/30 178/198/80 167/201/69 118/220/20
f 132/181/34 113/180/15 155/195/57 179/194/81
f 105/226/7 132/181/34 179/194/81 131/215/33
f 131/215/33 179/194/81 166/197/68 119/216/21
f 125/233/27 111/224/13 156/191/58 180/190/82
f 99/234/1 125/233/27 180/190/82 157/235/59
f 157/235/59 180/190/82 165/193/67 117/236/19
f 165/193/67 124/192/26 164/187/66 181/186/83
f 117/236/19 165/193/67 181/186/83 126/237/28
f 126/237/28 181/186/83 146/189/48 100/238/2
f 166/197/68 123/196/25 163/183/65 182/182/84
f 119/216/21 166/197/68 182/182/84 159/131/61
f 159/131/61 182/182/84 148/185/50 106/132/8
f 150/169/52 116/168/18 154/179/56 183/178/85
f 107/239/9 150/169/52 183/178/85 137/240/39
f 137/240/39 183/178/85 132/181/34 105/226/7
f 149/173/51 115/172/17 153/175/55 184/174/86
f 108/241/10 149/173/51 184/174/86 138/242/40
f 138/242/40 184/174/86 127/177/29 102/243/4
f 148/185/50 114/184/99 152/171/54 185/170/87
f 106/132/8 148/185/50 185/170/87 130/244/32
f 130/244/32 185/170/87 149/173/51 108/241/10
f 145/245/47 111/246/13 151/167/53 186/166/88
f 101/247/3 145/245/47 186/166/88 129/248/31
f 129/248/31 186/166/88 150/169/52 107/239/9
f 167/201/69 122/200/24 162/163/64 187/162/89
f 118/220/20 167/201/69 187/162/89 158/127/60
f 158/127/60 187/162/89 138/165/40 102/128/4
f 168/205/70 121/204/23 161/159/63 188/158/90
f 120/212/22 168/205/70 188/158/90 160/135/62
f 160/135/62 188/158/90 140/161/42 104/136/6
f 125/249/27 99/250/1 139/155/41 189/154/91
f 111/246/13 125/249/27 189/154/91 151/167/53
f 151/167/53 189/154/91 142/157/44 116/168/18
f 133/137/35 104/136/6 140/151/42 190/150/92
f 114/184/99 133/137/35 190/150/92 152/171/54
f 152/171/54 190/150/92 141/153/43 115/172/17
f 141/153/43 110/152/12 136/147/38 191/146/93
f 115/172/17 141/153/43 191/146/93 153/175/55
f 153/175/55 191/146/93 146/149/48 112/176/14
f 142/157/44 109/156/11 135/143/37 192/142/94
f 116/168/18 142/157/44 192/142/94 154/179/56
f 154/179/56 192/142/94 147/145/49 113/180/15
f 169/209/71 117/208/19 126/139/28 193/138/95
f 121/204/23 169/209/71 193/138/95 161/159/63
f 161/159/63 193/138/95 136/141/38 110/160/12
f 170/213/72 120/212/22 160/135/62 194/134/96
f 123/196/25 170/213/72 194/134/96 163/183/65
f 163/183/65 194/134/96 133/137/35 114/184/99
f 171/217/73 119/216/21 159/131/61 195/130/97
f 122/200/24 171/217/73 195/130/97 162/163/64
f 162/163/64 195/130/97 130/133/32 108/164/10
f 172/221/74 118/220/20 158/127/60 196/126/98
f 124/192/26 172/221/74 196/126/98 164/187/66
f 164/187/66 196/126/98 127/129/29 112/188/14
